%FSLAX34Y34*%
%MOMM*%
%LNSILK_BOTTOM*%
G71*
G01*
%ADD10C, 0.000*%
%ADD11C, 0.150*%
%LPD*%
G54D10*
X93449Y-143224D02*
X93449Y-97224D01*
X63449Y-97224D01*
X63449Y-143224D01*
X93449Y-143224D01*
G36*
X63449Y-140224D02*
X93449Y-140224D01*
X93449Y-135224D01*
X63449Y-135224D01*
X63449Y-140224D01*
G37*
G54D10*
X63449Y-140224D02*
X93449Y-140224D01*
X93449Y-135224D01*
X63449Y-135224D01*
X63449Y-140224D01*
G54D10*
X78449Y-130224D02*
X78449Y-123824D01*
X84749Y-123824D01*
X72049Y-123824D01*
X78449Y-123824D01*
X84749Y-115924D01*
X72049Y-115924D01*
X78449Y-123824D01*
G54D10*
X78449Y-115924D02*
X78449Y-109524D01*
G54D10*
X423649Y-143224D02*
X423649Y-97224D01*
X393649Y-97224D01*
X393649Y-143224D01*
X423649Y-143224D01*
G36*
X393649Y-140224D02*
X423649Y-140224D01*
X423649Y-135224D01*
X393649Y-135224D01*
X393649Y-140224D01*
G37*
G54D10*
X393649Y-140224D02*
X423649Y-140224D01*
X423649Y-135224D01*
X393649Y-135224D01*
X393649Y-140224D01*
G54D10*
X408649Y-130224D02*
X408649Y-123824D01*
X414949Y-123824D01*
X402249Y-123824D01*
X408649Y-123824D01*
X414949Y-115924D01*
X402249Y-115924D01*
X408649Y-123824D01*
G54D10*
X408649Y-115924D02*
X408649Y-109524D01*
G54D10*
X747499Y-143224D02*
X747499Y-97224D01*
X717499Y-97224D01*
X717499Y-143224D01*
X747499Y-143224D01*
G36*
X717499Y-140224D02*
X747499Y-140224D01*
X747499Y-135224D01*
X717499Y-135224D01*
X717499Y-140224D01*
G37*
G54D10*
X717499Y-140224D02*
X747499Y-140224D01*
X747499Y-135224D01*
X717499Y-135224D01*
X717499Y-140224D01*
G54D10*
X732499Y-130224D02*
X732499Y-123824D01*
X738799Y-123824D01*
X726099Y-123824D01*
X732499Y-123824D01*
X738799Y-115924D01*
X726099Y-115924D01*
X732499Y-123824D01*
G54D10*
X732499Y-115924D02*
X732499Y-109524D01*
G54D10*
X93449Y-295624D02*
X93449Y-249624D01*
X63449Y-249624D01*
X63449Y-295624D01*
X93449Y-295624D01*
G36*
X63449Y-292624D02*
X93449Y-292624D01*
X93449Y-287624D01*
X63449Y-287624D01*
X63449Y-292624D01*
G37*
G54D10*
X63449Y-292624D02*
X93449Y-292624D01*
X93449Y-287624D01*
X63449Y-287624D01*
X63449Y-292624D01*
G54D10*
X78449Y-282624D02*
X78449Y-276224D01*
X84749Y-276224D01*
X72049Y-276224D01*
X78449Y-276224D01*
X84749Y-268324D01*
X72049Y-268324D01*
X78449Y-276224D01*
G54D10*
X78449Y-268324D02*
X78449Y-261924D01*
G54D10*
X423649Y-295624D02*
X423649Y-249624D01*
X393649Y-249624D01*
X393649Y-295624D01*
X423649Y-295624D01*
G36*
X393649Y-292624D02*
X423649Y-292624D01*
X423649Y-287624D01*
X393649Y-287624D01*
X393649Y-292624D01*
G37*
G54D10*
X393649Y-292624D02*
X423649Y-292624D01*
X423649Y-287624D01*
X393649Y-287624D01*
X393649Y-292624D01*
G54D10*
X408649Y-282624D02*
X408649Y-276224D01*
X414949Y-276224D01*
X402249Y-276224D01*
X408649Y-276224D01*
X414949Y-268324D01*
X402249Y-268324D01*
X408649Y-276224D01*
G54D10*
X408649Y-268324D02*
X408649Y-261924D01*
G54D10*
X747499Y-295624D02*
X747499Y-249624D01*
X717499Y-249624D01*
X717499Y-295624D01*
X747499Y-295624D01*
G36*
X717499Y-292624D02*
X747499Y-292624D01*
X747499Y-287624D01*
X717499Y-287624D01*
X717499Y-292624D01*
G37*
G54D10*
X717499Y-292624D02*
X747499Y-292624D01*
X747499Y-287624D01*
X717499Y-287624D01*
X717499Y-292624D01*
G54D10*
X732499Y-282624D02*
X732499Y-276224D01*
X738799Y-276224D01*
X726099Y-276224D01*
X732499Y-276224D01*
X738799Y-268324D01*
X726099Y-268324D01*
X732499Y-276224D01*
G54D10*
X732499Y-268324D02*
X732499Y-261924D01*
G54D10*
X415712Y-551212D02*
X415712Y-505212D01*
X385712Y-505212D01*
X385712Y-551212D01*
X415712Y-551212D01*
G36*
X385712Y-548212D02*
X415712Y-548212D01*
X415712Y-543212D01*
X385712Y-543212D01*
X385712Y-548212D01*
G37*
G54D10*
X385712Y-548212D02*
X415712Y-548212D01*
X415712Y-543212D01*
X385712Y-543212D01*
X385712Y-548212D01*
G54D10*
X400712Y-538212D02*
X400712Y-531812D01*
X407012Y-531812D01*
X394312Y-531812D01*
X400712Y-531812D01*
X407012Y-523912D01*
X394312Y-523912D01*
X400712Y-531812D01*
G54D10*
X400712Y-523912D02*
X400712Y-517512D01*
G54D10*
X93449Y-530574D02*
X93449Y-484574D01*
X63449Y-484574D01*
X63449Y-530574D01*
X93449Y-530574D01*
G36*
X63449Y-527574D02*
X93449Y-527574D01*
X93449Y-522574D01*
X63449Y-522574D01*
X63449Y-527574D01*
G37*
G54D10*
X63449Y-527574D02*
X93449Y-527574D01*
X93449Y-522574D01*
X63449Y-522574D01*
X63449Y-527574D01*
G54D10*
X78449Y-517574D02*
X78449Y-511174D01*
X84749Y-511174D01*
X72049Y-511174D01*
X78449Y-511174D01*
X84749Y-503274D01*
X72049Y-503274D01*
X78449Y-511174D01*
G54D10*
X78449Y-503274D02*
X78449Y-496874D01*
G54D10*
X741149Y-551212D02*
X741149Y-505212D01*
X711149Y-505212D01*
X711149Y-551212D01*
X741149Y-551212D01*
G36*
X711150Y-548212D02*
X741150Y-548212D01*
X741150Y-543212D01*
X711150Y-543212D01*
X711150Y-548212D01*
G37*
G54D10*
X711150Y-548212D02*
X741150Y-548212D01*
X741150Y-543212D01*
X711150Y-543212D01*
X711150Y-548212D01*
G54D10*
X726150Y-538212D02*
X726150Y-531812D01*
X732450Y-531812D01*
X719750Y-531812D01*
X726150Y-531812D01*
X732450Y-523912D01*
X719750Y-523912D01*
X726150Y-531812D01*
G54D10*
X726150Y-523912D02*
X726150Y-517512D01*
G54D11*
X150838Y-524350D02*
X150838Y-504350D01*
X188838Y-504350D01*
X188838Y-524350D01*
X150838Y-524350D01*
G54D11*
X150838Y-549750D02*
X150838Y-529750D01*
X188838Y-529750D01*
X188838Y-549750D01*
X150838Y-549750D01*
G54D11*
X466750Y-525938D02*
X466750Y-505938D01*
X504750Y-505938D01*
X504750Y-525938D01*
X466750Y-525938D01*
G54D11*
X466750Y-551338D02*
X466750Y-531338D01*
X504750Y-531338D01*
X504750Y-551338D01*
X466750Y-551338D01*
M02*
