%FSLAX34Y34*%
%MOMM*%
%LNCOPPER_BOTTOM*%
G71*
G01*
%ADD10C, 4.000*%
%ADD11C, 4.300*%
%ADD12C, 4.800*%
%ADD13C, 5.000*%
%ADD14C, 3.000*%
%ADD15C, 3.000*%
%ADD16R, 2.400X2.400*%
%ADD17C, 3.000*%
%ADD18C, 1.100*%
%ADD19C, 1.300*%
%ADD20C, 5.000*%
%ADD21C, 1.333*%
%ADD22C, 1.000*%
%ADD23R, 2.100X2.200*%
%ADD24C, 1.500*%
%ADD25C, 0.533*%
%ADD26C, 0.667*%
%ADD27C, 2.200*%
%ADD28C, 2.500*%
%ADD29R, 1.600X1.600*%
%ADD30C, 2.000*%
%ADD31C, 0.300*%
%ADD32C, 4.000*%
%ADD33C, 0.333*%
%ADD34R, 1.300X1.400*%
%LPD*%
G36*
X0Y0D02*
X970000Y0D01*
X970000Y-700000D01*
X0Y-700000D01*
X0Y0D01*
G37*
%LPC*%
X679450Y-82551D02*
G54D10*
D03*
X679450Y-158751D02*
G54D10*
D03*
X831850Y-82551D02*
G54D11*
D03*
X882650Y-82551D02*
G54D11*
D03*
X933450Y-82551D02*
G54D11*
D03*
X831850Y-158751D02*
G54D11*
D03*
X882650Y-158751D02*
G54D11*
D03*
X933450Y-158751D02*
G54D11*
D03*
X882650Y-25400D02*
G54D12*
D03*
X558800Y-25400D02*
G54D12*
D03*
X234950Y-25400D02*
G54D12*
D03*
X31750Y-234951D02*
G54D10*
D03*
X31750Y-311151D02*
G54D10*
D03*
X184150Y-234951D02*
G54D11*
D03*
X234950Y-234951D02*
G54D11*
D03*
X285750Y-234951D02*
G54D11*
D03*
X184150Y-311151D02*
G54D11*
D03*
X234950Y-311151D02*
G54D11*
D03*
X285750Y-311151D02*
G54D11*
D03*
X31750Y-82551D02*
G54D10*
D03*
X31750Y-158751D02*
G54D10*
D03*
X184150Y-82551D02*
G54D11*
D03*
X234950Y-82551D02*
G54D11*
D03*
X285750Y-82551D02*
G54D11*
D03*
X184150Y-158751D02*
G54D11*
D03*
X234950Y-158751D02*
G54D11*
D03*
X285750Y-158751D02*
G54D11*
D03*
X355600Y-82551D02*
G54D10*
D03*
X355600Y-158751D02*
G54D10*
D03*
X508000Y-82551D02*
G54D11*
D03*
X558800Y-82551D02*
G54D11*
D03*
X609600Y-82551D02*
G54D11*
D03*
X508000Y-158751D02*
G54D11*
D03*
X558800Y-158751D02*
G54D11*
D03*
X609600Y-158751D02*
G54D11*
D03*
X355601Y-234952D02*
G54D10*
D03*
X355601Y-311152D02*
G54D10*
D03*
X508001Y-234952D02*
G54D11*
D03*
X558801Y-234952D02*
G54D11*
D03*
X609601Y-234952D02*
G54D11*
D03*
X508001Y-311152D02*
G54D11*
D03*
X558801Y-311152D02*
G54D11*
D03*
X609601Y-311152D02*
G54D11*
D03*
X679450Y-234951D02*
G54D10*
D03*
X679450Y-311151D02*
G54D10*
D03*
X831850Y-234951D02*
G54D11*
D03*
X882650Y-234951D02*
G54D11*
D03*
X933450Y-234951D02*
G54D11*
D03*
X831850Y-311151D02*
G54D11*
D03*
X882650Y-311151D02*
G54D11*
D03*
X933450Y-311151D02*
G54D11*
D03*
G54D13*
X882650Y-25400D02*
X882650Y-165100D01*
G54D13*
X558800Y-25400D02*
X558800Y-158750D01*
G54D13*
X234950Y-25400D02*
X234950Y-158750D01*
X354012Y-490539D02*
G54D10*
D03*
X354012Y-566739D02*
G54D10*
D03*
X506412Y-490539D02*
G54D11*
D03*
X557212Y-490539D02*
G54D11*
D03*
X608012Y-490539D02*
G54D11*
D03*
X506412Y-566739D02*
G54D11*
D03*
X557212Y-566739D02*
G54D11*
D03*
X608012Y-566739D02*
G54D11*
D03*
G54D13*
X609600Y-81756D02*
X609600Y-157956D01*
X558800Y-234156D01*
X558800Y-310356D01*
G54D13*
X285750Y-81756D02*
X285750Y-157956D01*
X234950Y-234156D01*
X234950Y-310356D01*
G54D13*
X933450Y-80962D02*
X933450Y-157162D01*
X882650Y-227012D01*
X882650Y-309562D01*
X38100Y-488951D02*
G54D11*
D03*
X38100Y-565151D02*
G54D11*
D03*
X190500Y-488951D02*
G54D11*
D03*
X241300Y-488951D02*
G54D11*
D03*
X292100Y-488951D02*
G54D11*
D03*
X190500Y-565151D02*
G54D11*
D03*
X241300Y-565151D02*
G54D11*
D03*
X292100Y-565151D02*
G54D11*
D03*
G54D13*
X184150Y-310356D02*
X184150Y-348456D01*
X209550Y-373856D01*
X812800Y-373856D01*
X831850Y-348456D01*
X831850Y-310356D01*
G54D13*
X508000Y-310356D02*
X438150Y-373856D01*
G54D13*
X506412Y-565944D02*
X506412Y-489744D01*
X95250Y-673100D02*
G54D12*
D03*
X479425Y-673100D02*
G54D12*
D03*
X704850Y-673100D02*
G54D12*
D03*
X871538Y-673100D02*
G54D12*
D03*
G54D13*
X831850Y-233362D02*
X831850Y-309562D01*
G54D13*
X933450Y-233362D02*
X933450Y-309562D01*
G54D13*
X609600Y-233362D02*
X609600Y-309562D01*
G54D13*
X508000Y-233362D02*
X508000Y-309562D01*
G54D13*
X285750Y-234156D02*
X285750Y-310356D01*
G54D13*
X184150Y-234156D02*
X184150Y-310356D01*
G54D14*
X184150Y-82550D02*
X184150Y-158750D01*
G54D14*
X508000Y-83344D02*
X508000Y-159544D01*
G54D14*
X831850Y-83344D02*
X831850Y-159544D01*
X127000Y-25400D02*
G54D15*
D03*
X444500Y-25400D02*
G54D15*
D03*
X774700Y-25400D02*
G54D15*
D03*
X158750Y-673100D02*
G54D15*
D03*
X549275Y-673100D02*
G54D15*
D03*
X635000Y-673100D02*
G54D15*
D03*
X811212Y-673100D02*
G54D15*
D03*
X78449Y-139724D02*
G54D16*
D03*
X78449Y-100024D02*
G54D16*
D03*
X128492Y-390098D02*
G54D17*
D03*
X128492Y-415498D02*
G54D17*
D03*
X103092Y-390098D02*
G54D17*
D03*
X103092Y-415498D02*
G54D17*
D03*
X77692Y-390098D02*
G54D17*
D03*
X77692Y-415498D02*
G54D17*
D03*
X52292Y-390098D02*
G54D17*
D03*
X52292Y-415498D02*
G54D17*
D03*
X26892Y-390098D02*
G54D17*
D03*
X26892Y-415498D02*
G54D17*
D03*
X408649Y-139724D02*
G54D16*
D03*
X408649Y-100024D02*
G54D16*
D03*
X732499Y-139724D02*
G54D16*
D03*
X732499Y-100024D02*
G54D16*
D03*
X78449Y-292124D02*
G54D16*
D03*
X78449Y-252424D02*
G54D16*
D03*
X408649Y-292124D02*
G54D16*
D03*
X408649Y-252424D02*
G54D16*
D03*
X732499Y-292124D02*
G54D16*
D03*
X732499Y-252424D02*
G54D16*
D03*
G54D18*
X31750Y-82550D02*
X57150Y-82550D01*
X76200Y-101600D01*
G54D18*
X355600Y-82550D02*
X387350Y-82550D01*
X406400Y-101600D01*
G54D18*
X679450Y-82550D02*
X717550Y-82550D01*
X736600Y-101600D01*
G54D18*
X31750Y-234950D02*
X63500Y-234950D01*
X82550Y-254000D01*
G54D18*
X355600Y-234950D02*
X393700Y-234950D01*
X412750Y-254000D01*
G54D18*
X679450Y-234950D02*
X717550Y-234950D01*
X736600Y-254000D01*
G54D18*
X31750Y-311150D02*
X57150Y-311150D01*
X76200Y-292100D01*
G54D18*
X31750Y-158750D02*
X63500Y-158750D01*
X82550Y-139700D01*
G54D18*
X355600Y-158750D02*
X393700Y-158750D01*
X412750Y-139700D01*
G54D18*
X679450Y-158750D02*
X717550Y-158750D01*
X736600Y-139700D01*
G54D18*
X679450Y-311150D02*
X717550Y-311150D01*
X736600Y-292100D01*
G54D18*
X355600Y-311150D02*
X393700Y-311150D01*
X412750Y-292100D01*
X400712Y-547712D02*
G54D16*
D03*
X400712Y-508012D02*
G54D16*
D03*
X78449Y-527074D02*
G54D16*
D03*
X78449Y-487374D02*
G54D16*
D03*
G54D19*
X354012Y-490538D02*
X379412Y-490538D01*
X398462Y-509588D01*
G54D19*
X38100Y-488950D02*
X76200Y-488950D01*
X946150Y-25400D02*
G54D20*
D03*
X25400Y-25400D02*
G54D20*
D03*
X25400Y-673100D02*
G54D20*
D03*
X946150Y-673100D02*
G54D20*
D03*
G54D21*
X428044Y-636161D02*
X418044Y-609494D01*
X408044Y-636161D01*
G54D21*
X424044Y-626161D02*
X412044Y-626161D01*
G54D21*
X400711Y-636161D02*
X400711Y-621161D01*
G54D21*
X400711Y-624494D02*
X398711Y-622161D01*
X394711Y-621161D01*
X390711Y-622161D01*
X388711Y-624494D01*
X388711Y-636161D01*
G54D21*
X377378Y-609494D02*
X377378Y-634494D01*
X375378Y-636161D01*
X373378Y-635494D01*
G54D21*
X381378Y-621161D02*
X373378Y-621161D01*
G54D21*
X364445Y-636161D02*
X366045Y-636161D01*
X366045Y-634828D01*
X364445Y-634828D01*
X364445Y-636161D01*
X366045Y-636161D01*
G54D21*
X357112Y-634494D02*
X353112Y-636161D01*
X349112Y-636161D01*
X345112Y-634494D01*
X345112Y-631161D01*
X347112Y-629494D01*
X355112Y-627828D01*
X357112Y-626161D01*
X357112Y-622828D01*
X353112Y-621161D01*
X349112Y-621161D01*
X345112Y-622828D01*
G54D21*
X337779Y-621161D02*
X331779Y-636161D01*
X325779Y-621161D01*
X319779Y-636161D01*
X315779Y-621161D01*
G54D21*
X308446Y-636161D02*
X308446Y-621161D01*
G54D21*
X308446Y-616161D02*
X308446Y-616161D01*
G54D21*
X297113Y-609494D02*
X297113Y-634494D01*
X295113Y-636161D01*
X293113Y-635494D01*
G54D21*
X301113Y-621161D02*
X293113Y-621161D01*
G54D21*
X275780Y-622161D02*
X279780Y-621161D01*
X283780Y-622161D01*
X285780Y-625494D01*
X285780Y-632161D01*
X283780Y-635494D01*
X279780Y-636161D01*
X275780Y-635494D01*
G54D21*
X268447Y-636161D02*
X268447Y-609494D01*
G54D21*
X268447Y-625494D02*
X266447Y-622161D01*
X262447Y-621161D01*
X258447Y-622161D01*
X256447Y-625494D01*
X256447Y-636161D01*
G54D21*
X434043Y-672040D02*
X428043Y-675374D01*
X426043Y-678707D01*
X426043Y-685374D01*
G54D21*
X442043Y-685374D02*
X442043Y-658707D01*
X432043Y-658707D01*
X428043Y-660374D01*
X426043Y-663707D01*
X426043Y-667040D01*
X428043Y-670374D01*
X432043Y-672040D01*
X442043Y-672040D01*
G54D21*
X418710Y-663707D02*
X416710Y-660374D01*
X412710Y-658707D01*
X408710Y-658707D01*
X404710Y-660374D01*
X402710Y-663707D01*
X402710Y-667040D01*
X404710Y-670374D01*
X408710Y-672040D01*
X404710Y-673707D01*
X402710Y-677040D01*
X402710Y-680374D01*
X404710Y-683707D01*
X408710Y-685374D01*
X412710Y-685374D01*
X416710Y-683707D01*
X418710Y-680374D01*
G54D21*
X387377Y-685374D02*
X387377Y-658707D01*
G54D21*
X395377Y-658707D02*
X379377Y-658707D01*
G54D21*
X356044Y-658707D02*
X356044Y-680374D01*
X358044Y-683707D01*
X362044Y-685374D01*
X366044Y-685374D01*
X370044Y-683707D01*
X372044Y-680374D01*
G54D21*
X348711Y-658707D02*
X348711Y-685374D01*
X334711Y-685374D01*
G54D21*
X313645Y-658707D02*
X317645Y-660374D01*
X319645Y-663707D01*
X319645Y-680374D01*
X317645Y-683707D01*
X313645Y-685374D01*
G54D21*
X290312Y-680374D02*
X292312Y-683707D01*
X296312Y-685374D01*
X300312Y-685374D01*
X304312Y-683707D01*
X306312Y-680374D01*
X306312Y-663707D01*
X304312Y-660374D01*
X300312Y-658707D01*
X296312Y-658707D01*
X292312Y-660374D01*
X290312Y-663707D01*
G54D21*
X282979Y-658707D02*
X278979Y-660374D01*
X276979Y-663707D01*
X276979Y-680374D01*
X278979Y-683707D01*
X282979Y-685374D01*
G54D21*
X261913Y-670374D02*
X253913Y-685374D01*
X245913Y-670374D01*
G54D21*
X238580Y-663707D02*
X236580Y-660374D01*
X232580Y-658707D01*
X228580Y-658707D01*
X224580Y-660374D01*
X222580Y-663707D01*
X222580Y-667040D01*
X224580Y-670374D01*
X228580Y-672040D01*
X224580Y-673707D01*
X222580Y-677040D01*
X222580Y-680374D01*
X224580Y-683707D01*
X228580Y-685374D01*
X232580Y-685374D01*
X236580Y-683707D01*
X238580Y-680374D01*
G54D21*
X213647Y-685374D02*
X215247Y-685374D01*
X215247Y-684040D01*
X213647Y-684040D01*
X213647Y-685374D01*
X215247Y-685374D01*
G54D21*
X190314Y-663707D02*
X190314Y-680374D01*
X192314Y-683707D01*
X196314Y-685374D01*
X200314Y-685374D01*
X204314Y-683707D01*
X206314Y-680374D01*
X206314Y-663707D01*
X204314Y-660374D01*
X200314Y-658707D01*
X196314Y-658707D01*
X192314Y-660374D01*
X190314Y-663707D01*
G54D19*
X38100Y-565150D02*
X44450Y-565150D01*
X82550Y-527050D01*
G54D19*
X354012Y-566738D02*
X379412Y-566738D01*
X398462Y-547688D01*
X962026Y-520700D02*
G54D22*
D03*
X808038Y-528638D02*
G54D22*
D03*
X962026Y-631825D02*
G54D22*
D03*
X431800Y-485775D02*
G54D22*
D03*
X644526Y-525462D02*
G54D22*
D03*
X379413Y-647700D02*
G54D22*
D03*
X131763Y-484188D02*
G54D22*
D03*
X444500Y-300038D02*
G54D22*
D03*
X176213Y-400050D02*
G54D22*
D03*
X127000Y-230188D02*
G54D22*
D03*
X782638Y-300038D02*
G54D22*
D03*
X452438Y-227012D02*
G54D22*
D03*
X782638Y-195262D02*
G54D22*
D03*
X88900Y-214312D02*
G54D22*
D03*
X22226Y-195262D02*
G54D22*
D03*
X39688Y-447675D02*
G54D22*
D03*
X125413Y-152400D02*
G54D22*
D03*
X320676Y-104775D02*
G54D22*
D03*
X465138Y-119062D02*
G54D22*
D03*
X644526Y-117475D02*
G54D22*
D03*
X785813Y-95250D02*
G54D22*
D03*
X874713Y-344488D02*
G54D22*
D03*
X544513Y-403225D02*
G54D22*
D03*
X249238Y-415925D02*
G54D22*
D03*
X236538Y-346075D02*
G54D22*
D03*
X322263Y-544512D02*
G54D22*
D03*
X109538Y-563562D02*
G54D22*
D03*
X950913Y-198438D02*
G54D22*
D03*
X679450Y-490539D02*
G54D10*
D03*
X679450Y-566739D02*
G54D10*
D03*
X831850Y-490539D02*
G54D11*
D03*
X882650Y-490539D02*
G54D11*
D03*
X933450Y-490539D02*
G54D11*
D03*
X831850Y-566739D02*
G54D11*
D03*
X882650Y-566739D02*
G54D11*
D03*
X933450Y-566739D02*
G54D11*
D03*
X726149Y-547712D02*
G54D16*
D03*
X726150Y-508012D02*
G54D16*
D03*
G54D19*
X679450Y-490538D02*
X704850Y-490538D01*
X723900Y-509588D01*
G54D19*
X679450Y-566738D02*
X704850Y-566738D01*
X723900Y-547688D01*
G54D13*
X241300Y-489744D02*
X241300Y-565944D01*
G54D13*
X190500Y-488950D02*
X190500Y-565150D01*
G54D13*
X95250Y-673100D02*
X95250Y-639762D01*
X117475Y-617538D01*
X211138Y-617538D01*
X241300Y-566738D01*
G54D13*
X479425Y-673100D02*
X479425Y-654050D01*
X557212Y-603250D01*
X557212Y-566738D01*
G54D13*
X557212Y-491331D02*
X557212Y-567531D01*
G54D13*
X608012Y-490538D02*
X608012Y-568325D01*
X608012Y-585788D01*
X639762Y-617538D01*
X858838Y-617538D01*
X882650Y-593725D01*
X882650Y-565150D01*
G54D13*
X292100Y-565150D02*
X292100Y-488950D01*
X292100Y-471488D01*
X319088Y-433388D01*
X882650Y-433388D01*
X882650Y-490538D01*
G54D13*
X831850Y-566738D02*
X831850Y-550862D01*
X854075Y-528638D01*
X912812Y-528638D01*
X933450Y-508000D01*
X933450Y-490538D01*
G54D13*
X933450Y-490538D02*
X933450Y-393700D01*
X914400Y-374650D01*
X804862Y-374650D01*
X12700Y-433388D02*
G54D22*
D03*
X42863Y-617538D02*
G54D22*
D03*
X588963Y-644525D02*
G54D22*
D03*
X446088Y-619125D02*
G54D22*
D03*
X779463Y-403225D02*
G54D22*
D03*
X723900Y-474662D02*
G54D22*
D03*
X728663Y-579438D02*
G54D22*
D03*
X533400Y-339725D02*
G54D22*
D03*
X160338Y-514350D02*
G54D23*
D03*
X179338Y-514350D02*
G54D23*
D03*
X160338Y-539750D02*
G54D23*
D03*
X179338Y-539750D02*
G54D23*
D03*
G54D24*
X158750Y-514350D02*
X142875Y-514350D01*
G54D24*
X157162Y-514350D02*
X157162Y-539750D01*
X142875Y-539750D01*
G54D24*
X157162Y-504825D02*
X157162Y-549275D01*
X476250Y-515938D02*
G54D23*
D03*
X495250Y-515938D02*
G54D23*
D03*
X476250Y-541338D02*
G54D23*
D03*
X495250Y-541338D02*
G54D23*
D03*
G54D24*
X474662Y-515938D02*
X458788Y-515938D01*
G54D24*
X473075Y-515938D02*
X473075Y-541338D01*
X458788Y-541338D01*
G54D24*
X473075Y-506412D02*
X473075Y-550862D01*
X511176Y-528638D02*
G54D22*
D03*
X195263Y-527050D02*
G54D22*
D03*
X141288Y-514350D02*
G54D22*
D03*
X142876Y-539750D02*
G54D22*
D03*
X458788Y-515938D02*
G54D22*
D03*
X458788Y-541338D02*
G54D22*
D03*
X457200Y-574675D02*
G54D22*
D03*
X409576Y-573088D02*
G54D22*
D03*
X182563Y-120650D02*
G54D22*
D03*
X508000Y-120650D02*
G54D22*
D03*
X830263Y-120650D02*
G54D22*
D03*
%LPD*%
G54D25*
G36*
X78449Y-97358D02*
X90949Y-97358D01*
X90949Y-102691D01*
X78449Y-102691D01*
X78449Y-97358D01*
G37*
G36*
X81116Y-100024D02*
X81116Y-112524D01*
X75783Y-112524D01*
X75783Y-100024D01*
X81116Y-100024D01*
G37*
G36*
X78449Y-102691D02*
X65949Y-102691D01*
X65949Y-97358D01*
X78449Y-97358D01*
X78449Y-102691D01*
G37*
G36*
X75783Y-100024D02*
X75783Y-87524D01*
X81116Y-87524D01*
X81116Y-100024D01*
X75783Y-100024D01*
G37*
G54D26*
G36*
X30225Y-415498D02*
X30225Y-430998D01*
X23559Y-430998D01*
X23559Y-415498D01*
X30225Y-415498D01*
G37*
G36*
X29249Y-417855D02*
X18289Y-428815D01*
X13575Y-424101D01*
X24535Y-413141D01*
X29249Y-417855D01*
G37*
G36*
X26892Y-418831D02*
X11392Y-418831D01*
X11392Y-412165D01*
X26892Y-412165D01*
X26892Y-418831D01*
G37*
G36*
X24535Y-417855D02*
X13575Y-406895D01*
X18289Y-402181D01*
X29249Y-413141D01*
X24535Y-417855D01*
G37*
G54D25*
G36*
X408649Y-97358D02*
X421149Y-97358D01*
X421149Y-102691D01*
X408649Y-102691D01*
X408649Y-97358D01*
G37*
G36*
X411316Y-100024D02*
X411316Y-112524D01*
X405983Y-112524D01*
X405983Y-100024D01*
X411316Y-100024D01*
G37*
G36*
X408649Y-102691D02*
X396149Y-102691D01*
X396149Y-97358D01*
X408649Y-97358D01*
X408649Y-102691D01*
G37*
G36*
X405983Y-100024D02*
X405983Y-87524D01*
X411316Y-87524D01*
X411316Y-100024D01*
X405983Y-100024D01*
G37*
G54D25*
G36*
X732499Y-97358D02*
X744999Y-97358D01*
X744999Y-102691D01*
X732499Y-102691D01*
X732499Y-97358D01*
G37*
G36*
X735166Y-100024D02*
X735166Y-112524D01*
X729833Y-112524D01*
X729833Y-100024D01*
X735166Y-100024D01*
G37*
G36*
X732499Y-102691D02*
X719999Y-102691D01*
X719999Y-97358D01*
X732499Y-97358D01*
X732499Y-102691D01*
G37*
G36*
X729833Y-100024D02*
X729833Y-87524D01*
X735166Y-87524D01*
X735166Y-100024D01*
X729833Y-100024D01*
G37*
G54D25*
G36*
X78449Y-249758D02*
X90949Y-249758D01*
X90949Y-255091D01*
X78449Y-255091D01*
X78449Y-249758D01*
G37*
G36*
X81116Y-252424D02*
X81116Y-264924D01*
X75783Y-264924D01*
X75783Y-252424D01*
X81116Y-252424D01*
G37*
G36*
X78449Y-255091D02*
X65949Y-255091D01*
X65949Y-249758D01*
X78449Y-249758D01*
X78449Y-255091D01*
G37*
G36*
X75783Y-252424D02*
X75783Y-239924D01*
X81116Y-239924D01*
X81116Y-252424D01*
X75783Y-252424D01*
G37*
G54D25*
G36*
X408649Y-249758D02*
X421149Y-249758D01*
X421149Y-255091D01*
X408649Y-255091D01*
X408649Y-249758D01*
G37*
G36*
X411316Y-252424D02*
X411316Y-264924D01*
X405983Y-264924D01*
X405983Y-252424D01*
X411316Y-252424D01*
G37*
G36*
X408649Y-255091D02*
X396149Y-255091D01*
X396149Y-249758D01*
X408649Y-249758D01*
X408649Y-255091D01*
G37*
G36*
X405983Y-252424D02*
X405983Y-239924D01*
X411316Y-239924D01*
X411316Y-252424D01*
X405983Y-252424D01*
G37*
G54D25*
G36*
X732499Y-249758D02*
X744999Y-249758D01*
X744999Y-255091D01*
X732499Y-255091D01*
X732499Y-249758D01*
G37*
G36*
X735166Y-252424D02*
X735166Y-264924D01*
X729833Y-264924D01*
X729833Y-252424D01*
X735166Y-252424D01*
G37*
G36*
X732499Y-255091D02*
X719999Y-255091D01*
X719999Y-249758D01*
X732499Y-249758D01*
X732499Y-255091D01*
G37*
G36*
X729833Y-252424D02*
X729833Y-239924D01*
X735166Y-239924D01*
X735166Y-252424D01*
X729833Y-252424D01*
G37*
G54D25*
G36*
X400712Y-505346D02*
X413212Y-505346D01*
X413212Y-510678D01*
X400712Y-510678D01*
X400712Y-505346D01*
G37*
G36*
X403379Y-508012D02*
X403379Y-520512D01*
X398046Y-520512D01*
X398046Y-508012D01*
X403379Y-508012D01*
G37*
G36*
X400712Y-510678D02*
X388212Y-510678D01*
X388212Y-505346D01*
X400712Y-505346D01*
X400712Y-510678D01*
G37*
G36*
X398046Y-508012D02*
X398046Y-495512D01*
X403379Y-495512D01*
X403379Y-508012D01*
X398046Y-508012D01*
G37*
G54D25*
G36*
X78449Y-484708D02*
X90949Y-484708D01*
X90949Y-490041D01*
X78449Y-490041D01*
X78449Y-484708D01*
G37*
G36*
X81116Y-487374D02*
X81116Y-499874D01*
X75783Y-499874D01*
X75783Y-487374D01*
X81116Y-487374D01*
G37*
G36*
X78449Y-490041D02*
X65949Y-490041D01*
X65949Y-484708D01*
X78449Y-484708D01*
X78449Y-490041D01*
G37*
G36*
X75783Y-487374D02*
X75783Y-474874D01*
X81116Y-474874D01*
X81116Y-487374D01*
X75783Y-487374D01*
G37*
G54D21*
G36*
X939483Y-25400D02*
X939483Y100D01*
X952817Y100D01*
X952817Y-25400D01*
X939483Y-25400D01*
G37*
G36*
X946150Y-18733D02*
X971650Y-18733D01*
X971650Y-32067D01*
X946150Y-32067D01*
X946150Y-18733D01*
G37*
G36*
X952817Y-25400D02*
X952817Y-50900D01*
X939483Y-50900D01*
X939483Y-25400D01*
X952817Y-25400D01*
G37*
G36*
X946150Y-32067D02*
X920650Y-32067D01*
X920650Y-18733D01*
X946150Y-18733D01*
X946150Y-32067D01*
G37*
G54D21*
G36*
X18733Y-25400D02*
X18733Y100D01*
X32067Y100D01*
X32067Y-25400D01*
X18733Y-25400D01*
G37*
G36*
X25400Y-18733D02*
X50900Y-18733D01*
X50900Y-32067D01*
X25400Y-32067D01*
X25400Y-18733D01*
G37*
G36*
X32067Y-25400D02*
X32067Y-50900D01*
X18733Y-50900D01*
X18733Y-25400D01*
X32067Y-25400D01*
G37*
G36*
X25400Y-32067D02*
X-100Y-32067D01*
X-100Y-18733D01*
X25400Y-18733D01*
X25400Y-32067D01*
G37*
G54D21*
G36*
X18733Y-673100D02*
X18733Y-647600D01*
X32067Y-647600D01*
X32067Y-673100D01*
X18733Y-673100D01*
G37*
G36*
X25400Y-666433D02*
X50900Y-666433D01*
X50900Y-679767D01*
X25400Y-679767D01*
X25400Y-666433D01*
G37*
G36*
X32067Y-673100D02*
X32067Y-698600D01*
X18733Y-698600D01*
X18733Y-673100D01*
X32067Y-673100D01*
G37*
G36*
X25400Y-679767D02*
X-100Y-679767D01*
X-100Y-666433D01*
X25400Y-666433D01*
X25400Y-679767D01*
G37*
G54D21*
G36*
X939483Y-673100D02*
X939483Y-647600D01*
X952817Y-647600D01*
X952817Y-673100D01*
X939483Y-673100D01*
G37*
G36*
X946150Y-666433D02*
X971650Y-666433D01*
X971650Y-679767D01*
X946150Y-679767D01*
X946150Y-666433D01*
G37*
G36*
X952817Y-673100D02*
X952817Y-698600D01*
X939483Y-698600D01*
X939483Y-673100D01*
X952817Y-673100D01*
G37*
G36*
X946150Y-679767D02*
X920650Y-679767D01*
X920650Y-666433D01*
X946150Y-666433D01*
X946150Y-679767D01*
G37*
G54D25*
G36*
X726150Y-505346D02*
X738650Y-505346D01*
X738650Y-510678D01*
X726150Y-510678D01*
X726150Y-505346D01*
G37*
G36*
X728816Y-508012D02*
X728816Y-520512D01*
X723483Y-520512D01*
X723483Y-508012D01*
X728816Y-508012D01*
G37*
G36*
X726150Y-510678D02*
X713650Y-510678D01*
X713650Y-505346D01*
X726150Y-505346D01*
X726150Y-510678D01*
G37*
G36*
X723483Y-508012D02*
X723483Y-495512D01*
X728816Y-495512D01*
X728816Y-508012D01*
X723483Y-508012D01*
G37*
X679450Y-82551D02*
G54D27*
D03*
X679450Y-158751D02*
G54D27*
D03*
X831850Y-82551D02*
G54D28*
D03*
X882650Y-82551D02*
G54D28*
D03*
X933450Y-82551D02*
G54D28*
D03*
X831850Y-158751D02*
G54D28*
D03*
X882650Y-158751D02*
G54D28*
D03*
X933450Y-158751D02*
G54D28*
D03*
X882650Y-25400D02*
G54D15*
D03*
X558800Y-25400D02*
G54D15*
D03*
X234950Y-25400D02*
G54D15*
D03*
X31750Y-234951D02*
G54D27*
D03*
X31750Y-311151D02*
G54D27*
D03*
X184150Y-234951D02*
G54D28*
D03*
X234950Y-234951D02*
G54D28*
D03*
X285750Y-234951D02*
G54D28*
D03*
X184150Y-311151D02*
G54D28*
D03*
X234950Y-311151D02*
G54D28*
D03*
X285750Y-311151D02*
G54D28*
D03*
X31750Y-82551D02*
G54D27*
D03*
X31750Y-158751D02*
G54D27*
D03*
X184150Y-82551D02*
G54D28*
D03*
X234950Y-82551D02*
G54D28*
D03*
X285750Y-82551D02*
G54D28*
D03*
X184150Y-158751D02*
G54D28*
D03*
X234950Y-158751D02*
G54D28*
D03*
X285750Y-158751D02*
G54D28*
D03*
X355600Y-82551D02*
G54D27*
D03*
X355600Y-158751D02*
G54D27*
D03*
X508000Y-82551D02*
G54D28*
D03*
X558800Y-82551D02*
G54D28*
D03*
X609600Y-82551D02*
G54D28*
D03*
X508000Y-158751D02*
G54D28*
D03*
X558800Y-158751D02*
G54D28*
D03*
X609600Y-158751D02*
G54D28*
D03*
X355601Y-234952D02*
G54D27*
D03*
X355601Y-311152D02*
G54D27*
D03*
X508001Y-234952D02*
G54D28*
D03*
X558801Y-234952D02*
G54D28*
D03*
X609601Y-234952D02*
G54D28*
D03*
X508001Y-311152D02*
G54D28*
D03*
X558801Y-311152D02*
G54D28*
D03*
X609601Y-311152D02*
G54D28*
D03*
X679450Y-234951D02*
G54D27*
D03*
X679450Y-311151D02*
G54D27*
D03*
X831850Y-234951D02*
G54D28*
D03*
X882650Y-234951D02*
G54D28*
D03*
X933450Y-234951D02*
G54D28*
D03*
X831850Y-311151D02*
G54D28*
D03*
X882650Y-311151D02*
G54D28*
D03*
X933450Y-311151D02*
G54D28*
D03*
G54D14*
X882650Y-25400D02*
X882650Y-165100D01*
G54D14*
X558800Y-25400D02*
X558800Y-158750D01*
G54D14*
X234950Y-25400D02*
X234950Y-158750D01*
X354012Y-490539D02*
G54D27*
D03*
X354012Y-566739D02*
G54D27*
D03*
X506412Y-490539D02*
G54D28*
D03*
X557212Y-490539D02*
G54D28*
D03*
X608012Y-490539D02*
G54D28*
D03*
X506412Y-566739D02*
G54D28*
D03*
X557212Y-566739D02*
G54D28*
D03*
X608012Y-566739D02*
G54D28*
D03*
G54D14*
X609600Y-81756D02*
X609600Y-157956D01*
X558800Y-234156D01*
X558800Y-310356D01*
G54D14*
X285750Y-81756D02*
X285750Y-157956D01*
X234950Y-234156D01*
X234950Y-310356D01*
G54D14*
X933450Y-80962D02*
X933450Y-157162D01*
X882650Y-227012D01*
X882650Y-309562D01*
X38100Y-488951D02*
G54D28*
D03*
X38100Y-565151D02*
G54D28*
D03*
X190500Y-488951D02*
G54D28*
D03*
X241300Y-488951D02*
G54D28*
D03*
X292100Y-488951D02*
G54D28*
D03*
X190500Y-565151D02*
G54D28*
D03*
X241300Y-565151D02*
G54D28*
D03*
X292100Y-565151D02*
G54D28*
D03*
G54D14*
X184150Y-310356D02*
X184150Y-348456D01*
X209550Y-373856D01*
X812800Y-373856D01*
X831850Y-348456D01*
X831850Y-310356D01*
G54D14*
X508000Y-310356D02*
X438150Y-373856D01*
G54D14*
X506412Y-565944D02*
X506412Y-489744D01*
X95250Y-673100D02*
G54D15*
D03*
X479425Y-673100D02*
G54D15*
D03*
X704850Y-673100D02*
G54D15*
D03*
X871538Y-673100D02*
G54D15*
D03*
G54D14*
X831850Y-233362D02*
X831850Y-309562D01*
G54D14*
X933450Y-233362D02*
X933450Y-309562D01*
G54D14*
X609600Y-233362D02*
X609600Y-309562D01*
G54D14*
X508000Y-233362D02*
X508000Y-309562D01*
G54D14*
X285750Y-234156D02*
X285750Y-310356D01*
G54D14*
X184150Y-234156D02*
X184150Y-310356D01*
G54D14*
X184150Y-82550D02*
X184150Y-158750D01*
G54D14*
X508000Y-83344D02*
X508000Y-159544D01*
G54D14*
X831850Y-83344D02*
X831850Y-159544D01*
X127000Y-25400D02*
G54D15*
D03*
X444500Y-25400D02*
G54D15*
D03*
X774700Y-25400D02*
G54D15*
D03*
X158750Y-673100D02*
G54D15*
D03*
X549275Y-673100D02*
G54D15*
D03*
X635000Y-673100D02*
G54D15*
D03*
X811212Y-673100D02*
G54D15*
D03*
X78449Y-139724D02*
G54D29*
D03*
X78449Y-100024D02*
G54D29*
D03*
X128492Y-390098D02*
G54D30*
D03*
X128492Y-415498D02*
G54D30*
D03*
X103092Y-390098D02*
G54D30*
D03*
X103092Y-415498D02*
G54D30*
D03*
X77692Y-390098D02*
G54D30*
D03*
X77692Y-415498D02*
G54D30*
D03*
X52292Y-390098D02*
G54D30*
D03*
X52292Y-415498D02*
G54D30*
D03*
X26892Y-390098D02*
G54D30*
D03*
X26892Y-415498D02*
G54D30*
D03*
X408649Y-139724D02*
G54D29*
D03*
X408649Y-100024D02*
G54D29*
D03*
X732499Y-139724D02*
G54D29*
D03*
X732499Y-100024D02*
G54D29*
D03*
X78449Y-292124D02*
G54D29*
D03*
X78449Y-252424D02*
G54D29*
D03*
X408649Y-292124D02*
G54D29*
D03*
X408649Y-252424D02*
G54D29*
D03*
X732499Y-292124D02*
G54D29*
D03*
X732499Y-252424D02*
G54D29*
D03*
G54D31*
X31750Y-82550D02*
X57150Y-82550D01*
X76200Y-101600D01*
G54D31*
X355600Y-82550D02*
X387350Y-82550D01*
X406400Y-101600D01*
G54D31*
X679450Y-82550D02*
X717550Y-82550D01*
X736600Y-101600D01*
G54D31*
X31750Y-234950D02*
X63500Y-234950D01*
X82550Y-254000D01*
G54D31*
X355600Y-234950D02*
X393700Y-234950D01*
X412750Y-254000D01*
G54D31*
X679450Y-234950D02*
X717550Y-234950D01*
X736600Y-254000D01*
G54D31*
X31750Y-311150D02*
X57150Y-311150D01*
X76200Y-292100D01*
G54D31*
X31750Y-158750D02*
X63500Y-158750D01*
X82550Y-139700D01*
G54D31*
X355600Y-158750D02*
X393700Y-158750D01*
X412750Y-139700D01*
G54D31*
X679450Y-158750D02*
X717550Y-158750D01*
X736600Y-139700D01*
G54D31*
X679450Y-311150D02*
X717550Y-311150D01*
X736600Y-292100D01*
G54D31*
X355600Y-311150D02*
X393700Y-311150D01*
X412750Y-292100D01*
X400712Y-547712D02*
G54D29*
D03*
X400712Y-508012D02*
G54D29*
D03*
X78449Y-527074D02*
G54D29*
D03*
X78449Y-487374D02*
G54D29*
D03*
G54D31*
X354012Y-490538D02*
X379412Y-490538D01*
X398462Y-509588D01*
G54D31*
X38100Y-488950D02*
X76200Y-488950D01*
X946150Y-25400D02*
G54D32*
D03*
X25400Y-25400D02*
G54D32*
D03*
X25400Y-673100D02*
G54D32*
D03*
X946150Y-673100D02*
G54D32*
D03*
G54D33*
X428044Y-636161D02*
X418044Y-609494D01*
X408044Y-636161D01*
G54D33*
X424044Y-626161D02*
X412044Y-626161D01*
G54D33*
X400711Y-636161D02*
X400711Y-621161D01*
G54D33*
X400711Y-624494D02*
X398711Y-622161D01*
X394711Y-621161D01*
X390711Y-622161D01*
X388711Y-624494D01*
X388711Y-636161D01*
G54D33*
X377378Y-609494D02*
X377378Y-634494D01*
X375378Y-636161D01*
X373378Y-635494D01*
G54D33*
X381378Y-621161D02*
X373378Y-621161D01*
G54D33*
X364445Y-636161D02*
X366045Y-636161D01*
X366045Y-634828D01*
X364445Y-634828D01*
X364445Y-636161D01*
X366045Y-636161D01*
G54D33*
X357112Y-634494D02*
X353112Y-636161D01*
X349112Y-636161D01*
X345112Y-634494D01*
X345112Y-631161D01*
X347112Y-629494D01*
X355112Y-627828D01*
X357112Y-626161D01*
X357112Y-622828D01*
X353112Y-621161D01*
X349112Y-621161D01*
X345112Y-622828D01*
G54D33*
X337779Y-621161D02*
X331779Y-636161D01*
X325779Y-621161D01*
X319779Y-636161D01*
X315779Y-621161D01*
G54D33*
X308446Y-636161D02*
X308446Y-621161D01*
G54D33*
X308446Y-616161D02*
X308446Y-616161D01*
G54D33*
X297113Y-609494D02*
X297113Y-634494D01*
X295113Y-636161D01*
X293113Y-635494D01*
G54D33*
X301113Y-621161D02*
X293113Y-621161D01*
G54D33*
X275780Y-622161D02*
X279780Y-621161D01*
X283780Y-622161D01*
X285780Y-625494D01*
X285780Y-632161D01*
X283780Y-635494D01*
X279780Y-636161D01*
X275780Y-635494D01*
G54D33*
X268447Y-636161D02*
X268447Y-609494D01*
G54D33*
X268447Y-625494D02*
X266447Y-622161D01*
X262447Y-621161D01*
X258447Y-622161D01*
X256447Y-625494D01*
X256447Y-636161D01*
G54D33*
X434043Y-672040D02*
X428043Y-675374D01*
X426043Y-678707D01*
X426043Y-685374D01*
G54D33*
X442043Y-685374D02*
X442043Y-658707D01*
X432043Y-658707D01*
X428043Y-660374D01*
X426043Y-663707D01*
X426043Y-667040D01*
X428043Y-670374D01*
X432043Y-672040D01*
X442043Y-672040D01*
G54D33*
X418710Y-663707D02*
X416710Y-660374D01*
X412710Y-658707D01*
X408710Y-658707D01*
X404710Y-660374D01*
X402710Y-663707D01*
X402710Y-667040D01*
X404710Y-670374D01*
X408710Y-672040D01*
X404710Y-673707D01*
X402710Y-677040D01*
X402710Y-680374D01*
X404710Y-683707D01*
X408710Y-685374D01*
X412710Y-685374D01*
X416710Y-683707D01*
X418710Y-680374D01*
G54D33*
X387377Y-685374D02*
X387377Y-658707D01*
G54D33*
X395377Y-658707D02*
X379377Y-658707D01*
G54D33*
X356044Y-658707D02*
X356044Y-680374D01*
X358044Y-683707D01*
X362044Y-685374D01*
X366044Y-685374D01*
X370044Y-683707D01*
X372044Y-680374D01*
G54D33*
X348711Y-658707D02*
X348711Y-685374D01*
X334711Y-685374D01*
G54D33*
X313645Y-658707D02*
X317645Y-660374D01*
X319645Y-663707D01*
X319645Y-680374D01*
X317645Y-683707D01*
X313645Y-685374D01*
G54D33*
X290312Y-680374D02*
X292312Y-683707D01*
X296312Y-685374D01*
X300312Y-685374D01*
X304312Y-683707D01*
X306312Y-680374D01*
X306312Y-663707D01*
X304312Y-660374D01*
X300312Y-658707D01*
X296312Y-658707D01*
X292312Y-660374D01*
X290312Y-663707D01*
G54D33*
X282979Y-658707D02*
X278979Y-660374D01*
X276979Y-663707D01*
X276979Y-680374D01*
X278979Y-683707D01*
X282979Y-685374D01*
G54D33*
X261913Y-670374D02*
X253913Y-685374D01*
X245913Y-670374D01*
G54D33*
X238580Y-663707D02*
X236580Y-660374D01*
X232580Y-658707D01*
X228580Y-658707D01*
X224580Y-660374D01*
X222580Y-663707D01*
X222580Y-667040D01*
X224580Y-670374D01*
X228580Y-672040D01*
X224580Y-673707D01*
X222580Y-677040D01*
X222580Y-680374D01*
X224580Y-683707D01*
X228580Y-685374D01*
X232580Y-685374D01*
X236580Y-683707D01*
X238580Y-680374D01*
G54D33*
X213647Y-685374D02*
X215247Y-685374D01*
X215247Y-684040D01*
X213647Y-684040D01*
X213647Y-685374D01*
X215247Y-685374D01*
G54D33*
X190314Y-663707D02*
X190314Y-680374D01*
X192314Y-683707D01*
X196314Y-685374D01*
X200314Y-685374D01*
X204314Y-683707D01*
X206314Y-680374D01*
X206314Y-663707D01*
X204314Y-660374D01*
X200314Y-658707D01*
X196314Y-658707D01*
X192314Y-660374D01*
X190314Y-663707D01*
G54D31*
X38100Y-565150D02*
X44450Y-565150D01*
X82550Y-527050D01*
G54D31*
X354012Y-566738D02*
X379412Y-566738D01*
X398462Y-547688D01*
X962026Y-520700D02*
G54D22*
D03*
X808038Y-528638D02*
G54D22*
D03*
X962026Y-631825D02*
G54D22*
D03*
X431800Y-485775D02*
G54D22*
D03*
X644526Y-525462D02*
G54D22*
D03*
X379413Y-647700D02*
G54D22*
D03*
X131763Y-484188D02*
G54D22*
D03*
X444500Y-300038D02*
G54D22*
D03*
X176213Y-400050D02*
G54D22*
D03*
X127000Y-230188D02*
G54D22*
D03*
X782638Y-300038D02*
G54D22*
D03*
X452438Y-227012D02*
G54D22*
D03*
X782638Y-195262D02*
G54D22*
D03*
X88900Y-214312D02*
G54D22*
D03*
X22226Y-195262D02*
G54D22*
D03*
X39688Y-447675D02*
G54D22*
D03*
X125413Y-152400D02*
G54D22*
D03*
X320676Y-104775D02*
G54D22*
D03*
X465138Y-119062D02*
G54D22*
D03*
X644526Y-117475D02*
G54D22*
D03*
X785813Y-95250D02*
G54D22*
D03*
X874713Y-344488D02*
G54D22*
D03*
X544513Y-403225D02*
G54D22*
D03*
X249238Y-415925D02*
G54D22*
D03*
X236538Y-346075D02*
G54D22*
D03*
X322263Y-544512D02*
G54D22*
D03*
X109538Y-563562D02*
G54D22*
D03*
X950913Y-198438D02*
G54D22*
D03*
X679450Y-490539D02*
G54D27*
D03*
X679450Y-566739D02*
G54D27*
D03*
X831850Y-490539D02*
G54D28*
D03*
X882650Y-490539D02*
G54D28*
D03*
X933450Y-490539D02*
G54D28*
D03*
X831850Y-566739D02*
G54D28*
D03*
X882650Y-566739D02*
G54D28*
D03*
X933450Y-566739D02*
G54D28*
D03*
X726149Y-547712D02*
G54D29*
D03*
X726150Y-508012D02*
G54D29*
D03*
G54D31*
X679450Y-490538D02*
X704850Y-490538D01*
X723900Y-509588D01*
G54D31*
X679450Y-566738D02*
X704850Y-566738D01*
X723900Y-547688D01*
G54D14*
X241300Y-489744D02*
X241300Y-565944D01*
G54D14*
X190500Y-488950D02*
X190500Y-565150D01*
G54D14*
X95250Y-673100D02*
X95250Y-639762D01*
X117475Y-617538D01*
X211138Y-617538D01*
X241300Y-566738D01*
G54D14*
X479425Y-673100D02*
X479425Y-654050D01*
X557212Y-603250D01*
X557212Y-566738D01*
G54D14*
X557212Y-491331D02*
X557212Y-567531D01*
G54D14*
X608012Y-490538D02*
X608012Y-568325D01*
X608012Y-585788D01*
X639762Y-617538D01*
X858838Y-617538D01*
X882650Y-593725D01*
X882650Y-565150D01*
G54D14*
X292100Y-565150D02*
X292100Y-488950D01*
X292100Y-471488D01*
X319088Y-433388D01*
X882650Y-433388D01*
X882650Y-490538D01*
G54D14*
X831850Y-566738D02*
X831850Y-550862D01*
X854075Y-528638D01*
X912812Y-528638D01*
X933450Y-508000D01*
X933450Y-490538D01*
G54D14*
X933450Y-490538D02*
X933450Y-393700D01*
X914400Y-374650D01*
X804862Y-374650D01*
X12700Y-433388D02*
G54D22*
D03*
X42863Y-617538D02*
G54D22*
D03*
X588963Y-644525D02*
G54D22*
D03*
X446088Y-619125D02*
G54D22*
D03*
X779463Y-403225D02*
G54D22*
D03*
X723900Y-474662D02*
G54D22*
D03*
X728663Y-579438D02*
G54D22*
D03*
X533400Y-339725D02*
G54D22*
D03*
X160338Y-514350D02*
G54D34*
D03*
X179338Y-514350D02*
G54D34*
D03*
X160338Y-539750D02*
G54D34*
D03*
X179338Y-539750D02*
G54D34*
D03*
G54D24*
X158750Y-514350D02*
X142875Y-514350D01*
G54D24*
X157162Y-514350D02*
X157162Y-539750D01*
X142875Y-539750D01*
G54D24*
X157162Y-504825D02*
X157162Y-549275D01*
X476250Y-515938D02*
G54D34*
D03*
X495250Y-515938D02*
G54D34*
D03*
X476250Y-541338D02*
G54D34*
D03*
X495250Y-541338D02*
G54D34*
D03*
G54D24*
X474662Y-515938D02*
X458788Y-515938D01*
G54D24*
X473075Y-515938D02*
X473075Y-541338D01*
X458788Y-541338D01*
G54D24*
X473075Y-506412D02*
X473075Y-550862D01*
X511176Y-528638D02*
G54D22*
D03*
X195263Y-527050D02*
G54D22*
D03*
X141288Y-514350D02*
G54D22*
D03*
X142876Y-539750D02*
G54D22*
D03*
X458788Y-515938D02*
G54D22*
D03*
X458788Y-541338D02*
G54D22*
D03*
X457200Y-574675D02*
G54D22*
D03*
X409576Y-573088D02*
G54D22*
D03*
X182563Y-120650D02*
G54D22*
D03*
X508000Y-120650D02*
G54D22*
D03*
X830263Y-120650D02*
G54D22*
D03*
M02*
