%FSLAX34Y34*%
%MOMM*%
%LNCOPPER_TOP*%
G71*
G01*
%ADD10C, 4.000*%
%ADD11C, 4.300*%
%ADD12C, 4.800*%
%ADD13C, 5.000*%
%ADD14C, 3.000*%
%ADD15C, 3.000*%
%ADD16C, 1.100*%
%ADD17C, 5.000*%
%ADD18C, 1.333*%
%ADD19C, 3.000*%
%ADD20C, 1.000*%
%ADD21C, 0.667*%
%ADD22C, 2.200*%
%ADD23C, 2.500*%
%ADD24C, 2.000*%
%ADD25C, 0.300*%
%ADD26C, 4.000*%
%ADD27C, 0.333*%
%LPD*%
G36*
X0Y0D02*
X970000Y0D01*
X970000Y-700000D01*
X0Y-700000D01*
X0Y0D01*
G37*
%LPC*%
X679450Y-82551D02*
G54D10*
D03*
X679450Y-158751D02*
G54D10*
D03*
X831850Y-82551D02*
G54D11*
D03*
X882650Y-82551D02*
G54D11*
D03*
X933450Y-82551D02*
G54D11*
D03*
X831850Y-158751D02*
G54D11*
D03*
X882650Y-158751D02*
G54D11*
D03*
X933450Y-158751D02*
G54D11*
D03*
X882650Y-25400D02*
G54D12*
D03*
X558800Y-25400D02*
G54D12*
D03*
X234950Y-25400D02*
G54D12*
D03*
X31750Y-234951D02*
G54D10*
D03*
X31750Y-311151D02*
G54D10*
D03*
X184150Y-234951D02*
G54D11*
D03*
X234950Y-234951D02*
G54D11*
D03*
X285750Y-234951D02*
G54D11*
D03*
X184150Y-311151D02*
G54D11*
D03*
X234950Y-311151D02*
G54D11*
D03*
X285750Y-311151D02*
G54D11*
D03*
X31750Y-82551D02*
G54D10*
D03*
X31750Y-158751D02*
G54D10*
D03*
X184150Y-82551D02*
G54D11*
D03*
X234950Y-82551D02*
G54D11*
D03*
X285750Y-82551D02*
G54D11*
D03*
X184150Y-158751D02*
G54D11*
D03*
X234950Y-158751D02*
G54D11*
D03*
X285750Y-158751D02*
G54D11*
D03*
X355600Y-82551D02*
G54D10*
D03*
X355600Y-158751D02*
G54D10*
D03*
X508000Y-82551D02*
G54D11*
D03*
X558800Y-82551D02*
G54D11*
D03*
X609600Y-82551D02*
G54D11*
D03*
X508000Y-158751D02*
G54D11*
D03*
X558800Y-158751D02*
G54D11*
D03*
X609600Y-158751D02*
G54D11*
D03*
X355601Y-234952D02*
G54D10*
D03*
X355601Y-311152D02*
G54D10*
D03*
X508001Y-234952D02*
G54D11*
D03*
X558801Y-234952D02*
G54D11*
D03*
X609601Y-234952D02*
G54D11*
D03*
X508001Y-311152D02*
G54D11*
D03*
X558801Y-311152D02*
G54D11*
D03*
X609601Y-311152D02*
G54D11*
D03*
X679450Y-234951D02*
G54D10*
D03*
X679450Y-311151D02*
G54D10*
D03*
X831850Y-234951D02*
G54D11*
D03*
X882650Y-234951D02*
G54D11*
D03*
X933450Y-234951D02*
G54D11*
D03*
X831850Y-311151D02*
G54D11*
D03*
X882650Y-311151D02*
G54D11*
D03*
X933450Y-311151D02*
G54D11*
D03*
X354012Y-490539D02*
G54D10*
D03*
X354012Y-566739D02*
G54D10*
D03*
X506412Y-490539D02*
G54D11*
D03*
X557212Y-490539D02*
G54D11*
D03*
X608012Y-490539D02*
G54D11*
D03*
X506412Y-566739D02*
G54D11*
D03*
X557212Y-566739D02*
G54D11*
D03*
X608012Y-566739D02*
G54D11*
D03*
X38100Y-488951D02*
G54D11*
D03*
X38100Y-565151D02*
G54D11*
D03*
X190500Y-488951D02*
G54D11*
D03*
X241300Y-488951D02*
G54D11*
D03*
X292100Y-488951D02*
G54D11*
D03*
X190500Y-565151D02*
G54D11*
D03*
X241300Y-565151D02*
G54D11*
D03*
X292100Y-565151D02*
G54D11*
D03*
G54D13*
X285750Y-311150D02*
X285750Y-374650D01*
X374650Y-431800D01*
X863600Y-431800D01*
X933450Y-374650D01*
X933450Y-311150D01*
G54D13*
X609600Y-311150D02*
X609600Y-330200D01*
X692150Y-400050D01*
X692150Y-431800D01*
X95250Y-673100D02*
G54D12*
D03*
X479425Y-673100D02*
G54D12*
D03*
X704850Y-673100D02*
G54D12*
D03*
X871538Y-673100D02*
G54D12*
D03*
X127000Y-25400D02*
G54D14*
D03*
X444500Y-25400D02*
G54D14*
D03*
X774700Y-25400D02*
G54D14*
D03*
X158750Y-673100D02*
G54D14*
D03*
X549275Y-673100D02*
G54D14*
D03*
X635000Y-673100D02*
G54D14*
D03*
X811212Y-673100D02*
G54D14*
D03*
X128492Y-390098D02*
G54D15*
D03*
X128492Y-415498D02*
G54D15*
D03*
X103092Y-390098D02*
G54D15*
D03*
X103092Y-415498D02*
G54D15*
D03*
X77692Y-390098D02*
G54D15*
D03*
X77692Y-415498D02*
G54D15*
D03*
X52292Y-390098D02*
G54D15*
D03*
X52292Y-415498D02*
G54D15*
D03*
X26892Y-390098D02*
G54D15*
D03*
X26892Y-415498D02*
G54D15*
D03*
G54D16*
X31750Y-311150D02*
X31750Y-355600D01*
X25400Y-361950D01*
X25400Y-387350D01*
G54D16*
X31750Y-158750D02*
X31750Y-177800D01*
X57150Y-203200D01*
X57150Y-349250D01*
X50800Y-355600D01*
X50800Y-387350D01*
G54D16*
X679450Y-311150D02*
X679450Y-292100D01*
X647700Y-260350D01*
X139700Y-260350D01*
X133350Y-266700D01*
X133350Y-387350D01*
X127000Y-393700D01*
G54D16*
X355600Y-158750D02*
X342900Y-158750D01*
X311150Y-190500D01*
X88900Y-190500D01*
X76200Y-203200D01*
X76200Y-393700D01*
G54D16*
X679450Y-158750D02*
X679450Y-165100D01*
X641350Y-203200D01*
X114300Y-203200D01*
X101600Y-215900D01*
X101600Y-387350D01*
G54D16*
X355600Y-311150D02*
X317500Y-273050D01*
X152400Y-273050D01*
X152400Y-393700D01*
X127000Y-419100D01*
X946150Y-25400D02*
G54D17*
D03*
X25400Y-25400D02*
G54D17*
D03*
X25400Y-673100D02*
G54D17*
D03*
X946150Y-673100D02*
G54D17*
D03*
G54D18*
X223838Y-633412D02*
X233838Y-606746D01*
X243838Y-633412D01*
G54D18*
X227838Y-623412D02*
X239838Y-623412D01*
G54D18*
X251170Y-633412D02*
X251170Y-618412D01*
G54D18*
X251170Y-621746D02*
X253170Y-619412D01*
X257170Y-618412D01*
X261170Y-619412D01*
X263170Y-621746D01*
X263170Y-633412D01*
G54D18*
X274504Y-606746D02*
X274504Y-631746D01*
X276504Y-633412D01*
X278504Y-632746D01*
G54D18*
X270504Y-618412D02*
X278504Y-618412D01*
G54D18*
X287436Y-633412D02*
X285836Y-633412D01*
X285836Y-632079D01*
X287436Y-632079D01*
X287436Y-633412D01*
X285836Y-633412D01*
G54D18*
X294770Y-631746D02*
X298770Y-633412D01*
X302770Y-633412D01*
X306770Y-631746D01*
X306770Y-628412D01*
X304770Y-626746D01*
X296770Y-625079D01*
X294770Y-623412D01*
X294770Y-620079D01*
X298770Y-618412D01*
X302770Y-618412D01*
X306770Y-620079D01*
G54D18*
X314102Y-618412D02*
X320102Y-633412D01*
X326102Y-618412D01*
X332102Y-633412D01*
X336102Y-618412D01*
G54D18*
X343436Y-633412D02*
X343436Y-618412D01*
G54D18*
X343436Y-613412D02*
X343436Y-613412D01*
G54D18*
X354768Y-606746D02*
X354768Y-631746D01*
X356768Y-633412D01*
X358768Y-632746D01*
G54D18*
X350768Y-618412D02*
X358768Y-618412D01*
G54D18*
X376102Y-619412D02*
X372102Y-618412D01*
X368102Y-619412D01*
X366102Y-622746D01*
X366102Y-629412D01*
X368102Y-632746D01*
X372102Y-633412D01*
X376102Y-632746D01*
G54D18*
X383434Y-633412D02*
X383434Y-606746D01*
G54D18*
X383434Y-622746D02*
X385434Y-619412D01*
X389434Y-618412D01*
X393434Y-619412D01*
X395434Y-622746D01*
X395434Y-633412D01*
G54D18*
X196912Y-669292D02*
X202912Y-672625D01*
X204912Y-675958D01*
X204912Y-682625D01*
G54D18*
X188912Y-682625D02*
X188912Y-655958D01*
X198912Y-655958D01*
X202912Y-657625D01*
X204912Y-660958D01*
X204912Y-664292D01*
X202912Y-667625D01*
X198912Y-669292D01*
X188912Y-669292D01*
G54D18*
X212246Y-660958D02*
X214246Y-657625D01*
X218246Y-655958D01*
X222246Y-655958D01*
X226246Y-657625D01*
X228246Y-660958D01*
X228246Y-664292D01*
X226246Y-667625D01*
X222246Y-669292D01*
X226246Y-670958D01*
X228246Y-674292D01*
X228246Y-677625D01*
X226246Y-680958D01*
X222246Y-682625D01*
X218246Y-682625D01*
X214246Y-680958D01*
X212246Y-677625D01*
G54D18*
X243578Y-682625D02*
X243578Y-655958D01*
G54D18*
X235578Y-655958D02*
X251578Y-655958D01*
G54D18*
X274912Y-655958D02*
X274912Y-677625D01*
X272912Y-680958D01*
X268912Y-682625D01*
X264912Y-682625D01*
X260912Y-680958D01*
X258912Y-677625D01*
G54D18*
X282244Y-655958D02*
X282244Y-682625D01*
X296244Y-682625D01*
G54D18*
X317310Y-655958D02*
X313310Y-657625D01*
X311310Y-660958D01*
X311310Y-677625D01*
X313310Y-680958D01*
X317310Y-682625D01*
G54D18*
X340644Y-677625D02*
X338644Y-680958D01*
X334644Y-682625D01*
X330644Y-682625D01*
X326644Y-680958D01*
X324644Y-677625D01*
X324644Y-660958D01*
X326644Y-657625D01*
X330644Y-655958D01*
X334644Y-655958D01*
X338644Y-657625D01*
X340644Y-660958D01*
G54D18*
X347976Y-655958D02*
X351976Y-657625D01*
X353976Y-660958D01*
X353976Y-677625D01*
X351976Y-680958D01*
X347976Y-682625D01*
G54D18*
X369042Y-667625D02*
X377042Y-682625D01*
X385042Y-667625D01*
G54D18*
X392376Y-660958D02*
X394376Y-657625D01*
X398376Y-655958D01*
X402376Y-655958D01*
X406376Y-657625D01*
X408376Y-660958D01*
X408376Y-664292D01*
X406376Y-667625D01*
X402376Y-669292D01*
X406376Y-670958D01*
X408376Y-674292D01*
X408376Y-677625D01*
X406376Y-680958D01*
X402376Y-682625D01*
X398376Y-682625D01*
X394376Y-680958D01*
X392376Y-677625D01*
G54D18*
X417308Y-682625D02*
X415708Y-682625D01*
X415708Y-681292D01*
X417308Y-681292D01*
X417308Y-682625D01*
X415708Y-682625D01*
G54D18*
X440642Y-660958D02*
X440642Y-677625D01*
X438642Y-680958D01*
X434642Y-682625D01*
X430642Y-682625D01*
X426642Y-680958D01*
X424642Y-677625D01*
X424642Y-660958D01*
X426642Y-657625D01*
X430642Y-655958D01*
X434642Y-655958D01*
X438642Y-657625D01*
X440642Y-660958D01*
G54D19*
X184150Y-84138D02*
X184150Y-157162D01*
G54D19*
X508000Y-84138D02*
X508000Y-157162D01*
G54D19*
X831850Y-84138D02*
X831850Y-157162D01*
X962026Y-520700D02*
G54D20*
D03*
X808038Y-528638D02*
G54D20*
D03*
X962026Y-631825D02*
G54D20*
D03*
X431800Y-485775D02*
G54D20*
D03*
X644526Y-525462D02*
G54D20*
D03*
X379413Y-647700D02*
G54D20*
D03*
X131763Y-484188D02*
G54D20*
D03*
X444500Y-300038D02*
G54D20*
D03*
X176213Y-400050D02*
G54D20*
D03*
X127000Y-230188D02*
G54D20*
D03*
X782638Y-300038D02*
G54D20*
D03*
X452438Y-227012D02*
G54D20*
D03*
X782638Y-195262D02*
G54D20*
D03*
X88900Y-214312D02*
G54D20*
D03*
X22226Y-195262D02*
G54D20*
D03*
X39688Y-447675D02*
G54D20*
D03*
X125413Y-152400D02*
G54D20*
D03*
X320676Y-104775D02*
G54D20*
D03*
X465138Y-119062D02*
G54D20*
D03*
X644526Y-117475D02*
G54D20*
D03*
X785813Y-95250D02*
G54D20*
D03*
X874713Y-344488D02*
G54D20*
D03*
X544513Y-403225D02*
G54D20*
D03*
X249238Y-415925D02*
G54D20*
D03*
X236538Y-346075D02*
G54D20*
D03*
X322263Y-544512D02*
G54D20*
D03*
X109538Y-563562D02*
G54D20*
D03*
X950913Y-198438D02*
G54D20*
D03*
X679450Y-490539D02*
G54D10*
D03*
X679450Y-566739D02*
G54D10*
D03*
X831850Y-490539D02*
G54D11*
D03*
X882650Y-490539D02*
G54D11*
D03*
X933450Y-490539D02*
G54D11*
D03*
X831850Y-566739D02*
G54D11*
D03*
X882650Y-566739D02*
G54D11*
D03*
X933450Y-566739D02*
G54D11*
D03*
G54D13*
X704850Y-673100D02*
X768350Y-625475D01*
X768350Y-431800D01*
G54D13*
X871538Y-673100D02*
X874712Y-673100D01*
X933450Y-614362D01*
X933450Y-566738D01*
G54D13*
X933450Y-566738D02*
X933450Y-549275D01*
X912812Y-528638D01*
X852488Y-528638D01*
X831850Y-508000D01*
X831850Y-490538D01*
G54D16*
X103188Y-415925D02*
X103188Y-425450D01*
X120650Y-442912D01*
X312738Y-442912D01*
X328612Y-458788D01*
X328612Y-512762D01*
X354012Y-538162D01*
X354012Y-566738D01*
G54D16*
X52388Y-415925D02*
X52388Y-452438D01*
X38100Y-488950D01*
G54D16*
X679450Y-566738D02*
X674688Y-566738D01*
X646112Y-595312D01*
X93662Y-595312D01*
X93662Y-442912D01*
X77788Y-415925D01*
X12700Y-433388D02*
G54D20*
D03*
X42863Y-617538D02*
G54D20*
D03*
X588963Y-644525D02*
G54D20*
D03*
X446088Y-619125D02*
G54D20*
D03*
X779463Y-403225D02*
G54D20*
D03*
X723900Y-474662D02*
G54D20*
D03*
X728663Y-579438D02*
G54D20*
D03*
X533400Y-339725D02*
G54D20*
D03*
G54D13*
X190500Y-490538D02*
X190500Y-563562D01*
G54D13*
X506412Y-490538D02*
X506412Y-563562D01*
X511176Y-528638D02*
G54D20*
D03*
X195263Y-527050D02*
G54D20*
D03*
X141288Y-514350D02*
G54D20*
D03*
X142876Y-539750D02*
G54D20*
D03*
X458788Y-515938D02*
G54D20*
D03*
X458788Y-541338D02*
G54D20*
D03*
X457200Y-574675D02*
G54D20*
D03*
X409576Y-573088D02*
G54D20*
D03*
X182563Y-120650D02*
G54D20*
D03*
X508000Y-120650D02*
G54D20*
D03*
X830263Y-120650D02*
G54D20*
D03*
%LPD*%
G54D21*
G36*
X30225Y-415498D02*
X30225Y-430998D01*
X23559Y-430998D01*
X23559Y-415498D01*
X30225Y-415498D01*
G37*
G36*
X29249Y-417855D02*
X18289Y-428815D01*
X13575Y-424101D01*
X24535Y-413141D01*
X29249Y-417855D01*
G37*
G36*
X26892Y-418831D02*
X11392Y-418831D01*
X11392Y-412165D01*
X26892Y-412165D01*
X26892Y-418831D01*
G37*
G36*
X24535Y-417855D02*
X13575Y-406895D01*
X18289Y-402181D01*
X29249Y-413141D01*
X24535Y-417855D01*
G37*
G54D18*
G36*
X939483Y-25400D02*
X939483Y100D01*
X952817Y100D01*
X952817Y-25400D01*
X939483Y-25400D01*
G37*
G36*
X946150Y-18733D02*
X971650Y-18733D01*
X971650Y-32067D01*
X946150Y-32067D01*
X946150Y-18733D01*
G37*
G36*
X952817Y-25400D02*
X952817Y-50900D01*
X939483Y-50900D01*
X939483Y-25400D01*
X952817Y-25400D01*
G37*
G36*
X946150Y-32067D02*
X920650Y-32067D01*
X920650Y-18733D01*
X946150Y-18733D01*
X946150Y-32067D01*
G37*
G54D18*
G36*
X18733Y-25400D02*
X18733Y100D01*
X32067Y100D01*
X32067Y-25400D01*
X18733Y-25400D01*
G37*
G36*
X25400Y-18733D02*
X50900Y-18733D01*
X50900Y-32067D01*
X25400Y-32067D01*
X25400Y-18733D01*
G37*
G36*
X32067Y-25400D02*
X32067Y-50900D01*
X18733Y-50900D01*
X18733Y-25400D01*
X32067Y-25400D01*
G37*
G36*
X25400Y-32067D02*
X-100Y-32067D01*
X-100Y-18733D01*
X25400Y-18733D01*
X25400Y-32067D01*
G37*
G54D18*
G36*
X18733Y-673100D02*
X18733Y-647600D01*
X32067Y-647600D01*
X32067Y-673100D01*
X18733Y-673100D01*
G37*
G36*
X25400Y-666433D02*
X50900Y-666433D01*
X50900Y-679767D01*
X25400Y-679767D01*
X25400Y-666433D01*
G37*
G36*
X32067Y-673100D02*
X32067Y-698600D01*
X18733Y-698600D01*
X18733Y-673100D01*
X32067Y-673100D01*
G37*
G36*
X25400Y-679767D02*
X-100Y-679767D01*
X-100Y-666433D01*
X25400Y-666433D01*
X25400Y-679767D01*
G37*
G54D18*
G36*
X939483Y-673100D02*
X939483Y-647600D01*
X952817Y-647600D01*
X952817Y-673100D01*
X939483Y-673100D01*
G37*
G36*
X946150Y-666433D02*
X971650Y-666433D01*
X971650Y-679767D01*
X946150Y-679767D01*
X946150Y-666433D01*
G37*
G36*
X952817Y-673100D02*
X952817Y-698600D01*
X939483Y-698600D01*
X939483Y-673100D01*
X952817Y-673100D01*
G37*
G36*
X946150Y-679767D02*
X920650Y-679767D01*
X920650Y-666433D01*
X946150Y-666433D01*
X946150Y-679767D01*
G37*
X679450Y-82551D02*
G54D22*
D03*
X679450Y-158751D02*
G54D22*
D03*
X831850Y-82551D02*
G54D23*
D03*
X882650Y-82551D02*
G54D23*
D03*
X933450Y-82551D02*
G54D23*
D03*
X831850Y-158751D02*
G54D23*
D03*
X882650Y-158751D02*
G54D23*
D03*
X933450Y-158751D02*
G54D23*
D03*
X882650Y-25400D02*
G54D14*
D03*
X558800Y-25400D02*
G54D14*
D03*
X234950Y-25400D02*
G54D14*
D03*
X31750Y-234951D02*
G54D22*
D03*
X31750Y-311151D02*
G54D22*
D03*
X184150Y-234951D02*
G54D23*
D03*
X234950Y-234951D02*
G54D23*
D03*
X285750Y-234951D02*
G54D23*
D03*
X184150Y-311151D02*
G54D23*
D03*
X234950Y-311151D02*
G54D23*
D03*
X285750Y-311151D02*
G54D23*
D03*
X31750Y-82551D02*
G54D22*
D03*
X31750Y-158751D02*
G54D22*
D03*
X184150Y-82551D02*
G54D23*
D03*
X234950Y-82551D02*
G54D23*
D03*
X285750Y-82551D02*
G54D23*
D03*
X184150Y-158751D02*
G54D23*
D03*
X234950Y-158751D02*
G54D23*
D03*
X285750Y-158751D02*
G54D23*
D03*
X355600Y-82551D02*
G54D22*
D03*
X355600Y-158751D02*
G54D22*
D03*
X508000Y-82551D02*
G54D23*
D03*
X558800Y-82551D02*
G54D23*
D03*
X609600Y-82551D02*
G54D23*
D03*
X508000Y-158751D02*
G54D23*
D03*
X558800Y-158751D02*
G54D23*
D03*
X609600Y-158751D02*
G54D23*
D03*
X355601Y-234952D02*
G54D22*
D03*
X355601Y-311152D02*
G54D22*
D03*
X508001Y-234952D02*
G54D23*
D03*
X558801Y-234952D02*
G54D23*
D03*
X609601Y-234952D02*
G54D23*
D03*
X508001Y-311152D02*
G54D23*
D03*
X558801Y-311152D02*
G54D23*
D03*
X609601Y-311152D02*
G54D23*
D03*
X679450Y-234951D02*
G54D22*
D03*
X679450Y-311151D02*
G54D22*
D03*
X831850Y-234951D02*
G54D23*
D03*
X882650Y-234951D02*
G54D23*
D03*
X933450Y-234951D02*
G54D23*
D03*
X831850Y-311151D02*
G54D23*
D03*
X882650Y-311151D02*
G54D23*
D03*
X933450Y-311151D02*
G54D23*
D03*
X354012Y-490539D02*
G54D22*
D03*
X354012Y-566739D02*
G54D22*
D03*
X506412Y-490539D02*
G54D23*
D03*
X557212Y-490539D02*
G54D23*
D03*
X608012Y-490539D02*
G54D23*
D03*
X506412Y-566739D02*
G54D23*
D03*
X557212Y-566739D02*
G54D23*
D03*
X608012Y-566739D02*
G54D23*
D03*
X38100Y-488951D02*
G54D23*
D03*
X38100Y-565151D02*
G54D23*
D03*
X190500Y-488951D02*
G54D23*
D03*
X241300Y-488951D02*
G54D23*
D03*
X292100Y-488951D02*
G54D23*
D03*
X190500Y-565151D02*
G54D23*
D03*
X241300Y-565151D02*
G54D23*
D03*
X292100Y-565151D02*
G54D23*
D03*
G54D19*
X285750Y-311150D02*
X285750Y-374650D01*
X374650Y-431800D01*
X863600Y-431800D01*
X933450Y-374650D01*
X933450Y-311150D01*
G54D19*
X609600Y-311150D02*
X609600Y-330200D01*
X692150Y-400050D01*
X692150Y-431800D01*
X95250Y-673100D02*
G54D14*
D03*
X479425Y-673100D02*
G54D14*
D03*
X704850Y-673100D02*
G54D14*
D03*
X871538Y-673100D02*
G54D14*
D03*
X127000Y-25400D02*
G54D14*
D03*
X444500Y-25400D02*
G54D14*
D03*
X774700Y-25400D02*
G54D14*
D03*
X158750Y-673100D02*
G54D14*
D03*
X549275Y-673100D02*
G54D14*
D03*
X635000Y-673100D02*
G54D14*
D03*
X811212Y-673100D02*
G54D14*
D03*
X128492Y-390098D02*
G54D24*
D03*
X128492Y-415498D02*
G54D24*
D03*
X103092Y-390098D02*
G54D24*
D03*
X103092Y-415498D02*
G54D24*
D03*
X77692Y-390098D02*
G54D24*
D03*
X77692Y-415498D02*
G54D24*
D03*
X52292Y-390098D02*
G54D24*
D03*
X52292Y-415498D02*
G54D24*
D03*
X26892Y-390098D02*
G54D24*
D03*
X26892Y-415498D02*
G54D24*
D03*
G54D25*
X31750Y-311150D02*
X31750Y-355600D01*
X25400Y-361950D01*
X25400Y-387350D01*
G54D25*
X31750Y-158750D02*
X31750Y-177800D01*
X57150Y-203200D01*
X57150Y-349250D01*
X50800Y-355600D01*
X50800Y-387350D01*
G54D25*
X679450Y-311150D02*
X679450Y-292100D01*
X647700Y-260350D01*
X139700Y-260350D01*
X133350Y-266700D01*
X133350Y-387350D01*
X127000Y-393700D01*
G54D25*
X355600Y-158750D02*
X342900Y-158750D01*
X311150Y-190500D01*
X88900Y-190500D01*
X76200Y-203200D01*
X76200Y-393700D01*
G54D25*
X679450Y-158750D02*
X679450Y-165100D01*
X641350Y-203200D01*
X114300Y-203200D01*
X101600Y-215900D01*
X101600Y-387350D01*
G54D25*
X355600Y-311150D02*
X317500Y-273050D01*
X152400Y-273050D01*
X152400Y-393700D01*
X127000Y-419100D01*
X946150Y-25400D02*
G54D26*
D03*
X25400Y-25400D02*
G54D26*
D03*
X25400Y-673100D02*
G54D26*
D03*
X946150Y-673100D02*
G54D26*
D03*
G54D27*
X223838Y-633412D02*
X233838Y-606746D01*
X243838Y-633412D01*
G54D27*
X227838Y-623412D02*
X239838Y-623412D01*
G54D27*
X251170Y-633412D02*
X251170Y-618412D01*
G54D27*
X251170Y-621746D02*
X253170Y-619412D01*
X257170Y-618412D01*
X261170Y-619412D01*
X263170Y-621746D01*
X263170Y-633412D01*
G54D27*
X274504Y-606746D02*
X274504Y-631746D01*
X276504Y-633412D01*
X278504Y-632746D01*
G54D27*
X270504Y-618412D02*
X278504Y-618412D01*
G54D27*
X287436Y-633412D02*
X285836Y-633412D01*
X285836Y-632079D01*
X287436Y-632079D01*
X287436Y-633412D01*
X285836Y-633412D01*
G54D27*
X294770Y-631746D02*
X298770Y-633412D01*
X302770Y-633412D01*
X306770Y-631746D01*
X306770Y-628412D01*
X304770Y-626746D01*
X296770Y-625079D01*
X294770Y-623412D01*
X294770Y-620079D01*
X298770Y-618412D01*
X302770Y-618412D01*
X306770Y-620079D01*
G54D27*
X314102Y-618412D02*
X320102Y-633412D01*
X326102Y-618412D01*
X332102Y-633412D01*
X336102Y-618412D01*
G54D27*
X343436Y-633412D02*
X343436Y-618412D01*
G54D27*
X343436Y-613412D02*
X343436Y-613412D01*
G54D27*
X354768Y-606746D02*
X354768Y-631746D01*
X356768Y-633412D01*
X358768Y-632746D01*
G54D27*
X350768Y-618412D02*
X358768Y-618412D01*
G54D27*
X376102Y-619412D02*
X372102Y-618412D01*
X368102Y-619412D01*
X366102Y-622746D01*
X366102Y-629412D01*
X368102Y-632746D01*
X372102Y-633412D01*
X376102Y-632746D01*
G54D27*
X383434Y-633412D02*
X383434Y-606746D01*
G54D27*
X383434Y-622746D02*
X385434Y-619412D01*
X389434Y-618412D01*
X393434Y-619412D01*
X395434Y-622746D01*
X395434Y-633412D01*
G54D27*
X196912Y-669292D02*
X202912Y-672625D01*
X204912Y-675958D01*
X204912Y-682625D01*
G54D27*
X188912Y-682625D02*
X188912Y-655958D01*
X198912Y-655958D01*
X202912Y-657625D01*
X204912Y-660958D01*
X204912Y-664292D01*
X202912Y-667625D01*
X198912Y-669292D01*
X188912Y-669292D01*
G54D27*
X212246Y-660958D02*
X214246Y-657625D01*
X218246Y-655958D01*
X222246Y-655958D01*
X226246Y-657625D01*
X228246Y-660958D01*
X228246Y-664292D01*
X226246Y-667625D01*
X222246Y-669292D01*
X226246Y-670958D01*
X228246Y-674292D01*
X228246Y-677625D01*
X226246Y-680958D01*
X222246Y-682625D01*
X218246Y-682625D01*
X214246Y-680958D01*
X212246Y-677625D01*
G54D27*
X243578Y-682625D02*
X243578Y-655958D01*
G54D27*
X235578Y-655958D02*
X251578Y-655958D01*
G54D27*
X274912Y-655958D02*
X274912Y-677625D01*
X272912Y-680958D01*
X268912Y-682625D01*
X264912Y-682625D01*
X260912Y-680958D01*
X258912Y-677625D01*
G54D27*
X282244Y-655958D02*
X282244Y-682625D01*
X296244Y-682625D01*
G54D27*
X317310Y-655958D02*
X313310Y-657625D01*
X311310Y-660958D01*
X311310Y-677625D01*
X313310Y-680958D01*
X317310Y-682625D01*
G54D27*
X340644Y-677625D02*
X338644Y-680958D01*
X334644Y-682625D01*
X330644Y-682625D01*
X326644Y-680958D01*
X324644Y-677625D01*
X324644Y-660958D01*
X326644Y-657625D01*
X330644Y-655958D01*
X334644Y-655958D01*
X338644Y-657625D01*
X340644Y-660958D01*
G54D27*
X347976Y-655958D02*
X351976Y-657625D01*
X353976Y-660958D01*
X353976Y-677625D01*
X351976Y-680958D01*
X347976Y-682625D01*
G54D27*
X369042Y-667625D02*
X377042Y-682625D01*
X385042Y-667625D01*
G54D27*
X392376Y-660958D02*
X394376Y-657625D01*
X398376Y-655958D01*
X402376Y-655958D01*
X406376Y-657625D01*
X408376Y-660958D01*
X408376Y-664292D01*
X406376Y-667625D01*
X402376Y-669292D01*
X406376Y-670958D01*
X408376Y-674292D01*
X408376Y-677625D01*
X406376Y-680958D01*
X402376Y-682625D01*
X398376Y-682625D01*
X394376Y-680958D01*
X392376Y-677625D01*
G54D27*
X417308Y-682625D02*
X415708Y-682625D01*
X415708Y-681292D01*
X417308Y-681292D01*
X417308Y-682625D01*
X415708Y-682625D01*
G54D27*
X440642Y-660958D02*
X440642Y-677625D01*
X438642Y-680958D01*
X434642Y-682625D01*
X430642Y-682625D01*
X426642Y-680958D01*
X424642Y-677625D01*
X424642Y-660958D01*
X426642Y-657625D01*
X430642Y-655958D01*
X434642Y-655958D01*
X438642Y-657625D01*
X440642Y-660958D01*
G54D19*
X184150Y-84138D02*
X184150Y-157162D01*
G54D19*
X508000Y-84138D02*
X508000Y-157162D01*
G54D19*
X831850Y-84138D02*
X831850Y-157162D01*
X962026Y-520700D02*
G54D20*
D03*
X808038Y-528638D02*
G54D20*
D03*
X962026Y-631825D02*
G54D20*
D03*
X431800Y-485775D02*
G54D20*
D03*
X644526Y-525462D02*
G54D20*
D03*
X379413Y-647700D02*
G54D20*
D03*
X131763Y-484188D02*
G54D20*
D03*
X444500Y-300038D02*
G54D20*
D03*
X176213Y-400050D02*
G54D20*
D03*
X127000Y-230188D02*
G54D20*
D03*
X782638Y-300038D02*
G54D20*
D03*
X452438Y-227012D02*
G54D20*
D03*
X782638Y-195262D02*
G54D20*
D03*
X88900Y-214312D02*
G54D20*
D03*
X22226Y-195262D02*
G54D20*
D03*
X39688Y-447675D02*
G54D20*
D03*
X125413Y-152400D02*
G54D20*
D03*
X320676Y-104775D02*
G54D20*
D03*
X465138Y-119062D02*
G54D20*
D03*
X644526Y-117475D02*
G54D20*
D03*
X785813Y-95250D02*
G54D20*
D03*
X874713Y-344488D02*
G54D20*
D03*
X544513Y-403225D02*
G54D20*
D03*
X249238Y-415925D02*
G54D20*
D03*
X236538Y-346075D02*
G54D20*
D03*
X322263Y-544512D02*
G54D20*
D03*
X109538Y-563562D02*
G54D20*
D03*
X950913Y-198438D02*
G54D20*
D03*
X679450Y-490539D02*
G54D22*
D03*
X679450Y-566739D02*
G54D22*
D03*
X831850Y-490539D02*
G54D23*
D03*
X882650Y-490539D02*
G54D23*
D03*
X933450Y-490539D02*
G54D23*
D03*
X831850Y-566739D02*
G54D23*
D03*
X882650Y-566739D02*
G54D23*
D03*
X933450Y-566739D02*
G54D23*
D03*
G54D19*
X704850Y-673100D02*
X768350Y-625475D01*
X768350Y-431800D01*
G54D19*
X871538Y-673100D02*
X874712Y-673100D01*
X933450Y-614362D01*
X933450Y-566738D01*
G54D19*
X933450Y-566738D02*
X933450Y-549275D01*
X912812Y-528638D01*
X852488Y-528638D01*
X831850Y-508000D01*
X831850Y-490538D01*
G54D25*
X103188Y-415925D02*
X103188Y-425450D01*
X120650Y-442912D01*
X312738Y-442912D01*
X328612Y-458788D01*
X328612Y-512762D01*
X354012Y-538162D01*
X354012Y-566738D01*
G54D25*
X52388Y-415925D02*
X52388Y-452438D01*
X38100Y-488950D01*
G54D25*
X679450Y-566738D02*
X674688Y-566738D01*
X646112Y-595312D01*
X93662Y-595312D01*
X93662Y-442912D01*
X77788Y-415925D01*
X12700Y-433388D02*
G54D20*
D03*
X42863Y-617538D02*
G54D20*
D03*
X588963Y-644525D02*
G54D20*
D03*
X446088Y-619125D02*
G54D20*
D03*
X779463Y-403225D02*
G54D20*
D03*
X723900Y-474662D02*
G54D20*
D03*
X728663Y-579438D02*
G54D20*
D03*
X533400Y-339725D02*
G54D20*
D03*
G54D19*
X190500Y-490538D02*
X190500Y-563562D01*
G54D19*
X506412Y-490538D02*
X506412Y-563562D01*
X511176Y-528638D02*
G54D20*
D03*
X195263Y-527050D02*
G54D20*
D03*
X141288Y-514350D02*
G54D20*
D03*
X142876Y-539750D02*
G54D20*
D03*
X458788Y-515938D02*
G54D20*
D03*
X458788Y-541338D02*
G54D20*
D03*
X457200Y-574675D02*
G54D20*
D03*
X409576Y-573088D02*
G54D20*
D03*
X182563Y-120650D02*
G54D20*
D03*
X508000Y-120650D02*
G54D20*
D03*
X830263Y-120650D02*
G54D20*
D03*
M02*
