; Drill file
; Format: 2.4 (00.0000)
M48
INCH
T01C0.0118
T02C0.0394
T03C0.0512
T04C0.0591
T05C0.1181
%
G05
G90
T01
X001690Y-024310
X004310Y-022190
X005630Y-021250
X005560Y-020250
X005190Y-019060
X007690Y-020750
X009810Y-016370
X009310Y-013630
X006940Y-015750
X001560Y-017620
X000500Y-017060
X003500Y-008440
X005000Y-009060
X004940Y-006000
X007190Y-004750
X012630Y-004120
X018310Y-004690
X020000Y-004750
X017810Y-008940
X017500Y-011810
X021000Y-013370
X021440Y-015870
X020130Y-020810
X018060Y-020310
X018060Y-021310
X018000Y-022630
X017560Y-024380
X016130Y-022560
X014940Y-025500
X012690Y-021440
X017000Y-019130
X025380Y-020690
X028500Y-018690
X030690Y-015870
X030810Y-011810
X034440Y-013560
X037440Y-007810
X032690Y-004750
X030940Y-003750
X030810Y-007690
X025380Y-004630
X031810Y-020810
X028690Y-022810
X023190Y-025380
X037880Y-024870
X037880Y-020500
X000880Y-007690
T02
X001060Y-016360
X001060Y-015360
X002060Y-015360
X002060Y-016360
X003060Y-016360
X004060Y-016360
X005060Y-016360
X005060Y-015360
X004060Y-015360
X003060Y-015360
T03
X001500Y-022250
X001500Y-019250
X007500Y-019250
X009500Y-019250
X011500Y-019250
X013940Y-019310
X013940Y-022310
X011500Y-022250
X009500Y-022250
X007500Y-022250
X007250Y-012250
X009250Y-012250
X011250Y-012250
X014000Y-012250
X014000Y-009250
X011250Y-009250
X009250Y-009250
X007250Y-009250
X007250Y-006250
X009250Y-006250
X011250Y-006250
X014000Y-006250
X014000Y-003250
X011250Y-003250
X009250Y-003250
X007250Y-003250
X001250Y-003250
X001250Y-006250
X001250Y-009250
X001250Y-012250
X020000Y-012250
X022000Y-012250
X024000Y-012250
X026750Y-012250
X026750Y-009250
X024000Y-009250
X022000Y-009250
X020000Y-009250
X020000Y-006250
X022000Y-006250
X024000Y-006250
X026750Y-006250
X026750Y-003250
X024000Y-003250
X022000Y-003250
X020000Y-003250
X032750Y-003250
X034750Y-003250
X036750Y-003250
X036750Y-006250
X034750Y-006250
X032750Y-006250
X032750Y-009250
X034750Y-009250
X036750Y-009250
X036750Y-012250
X034750Y-012250
X032750Y-012250
X032750Y-019310
X034750Y-019310
X036750Y-019310
X036750Y-022310
X034750Y-022310
X032750Y-022310
X026750Y-022310
X023940Y-022310
X021940Y-022310
X019940Y-022310
X019940Y-019310
X021940Y-019310
X023940Y-019310
X026750Y-019310
T04
X003750Y-026500
X006250Y-026500
X018870Y-026500
X021630Y-026500
X025000Y-026500
X027750Y-026500
X031940Y-026500
X034310Y-026500
X034750Y-001000
X030500Y-001000
X022000Y-001000
X017500Y-001000
X009250Y-001000
X005000Y-001000
T05
X001000Y-026500
X001000Y-001000
X037250Y-001000
X037250Y-026500
M30
