%FSLAX34Y34*%
%MOMM*%
%LNSOLDERMASK_BOTTOM*%
G71*
G01*
%ADD10C, 2.400*%
%ADD11C, 2.700*%
%ADD12C, 3.200*%
%ADD13R, 2.200X2.200*%
%ADD14C, 2.200*%
%ADD15C, 4.200*%
%ADD16R, 1.900X2.000*%
%LPD*%
X679450Y-82551D02*
G54D10*
D03*
X679450Y-158751D02*
G54D10*
D03*
X831850Y-82551D02*
G54D11*
D03*
X882650Y-82551D02*
G54D11*
D03*
X933450Y-82551D02*
G54D11*
D03*
X831850Y-158751D02*
G54D11*
D03*
X882650Y-158751D02*
G54D11*
D03*
X933450Y-158751D02*
G54D11*
D03*
X882650Y-25400D02*
G54D12*
D03*
X558800Y-25400D02*
G54D12*
D03*
X234950Y-25400D02*
G54D12*
D03*
X31750Y-234951D02*
G54D10*
D03*
X31750Y-311151D02*
G54D10*
D03*
X184150Y-234951D02*
G54D11*
D03*
X234950Y-234951D02*
G54D11*
D03*
X285750Y-234951D02*
G54D11*
D03*
X184150Y-311151D02*
G54D11*
D03*
X234950Y-311151D02*
G54D11*
D03*
X285750Y-311151D02*
G54D11*
D03*
X31750Y-82551D02*
G54D10*
D03*
X31750Y-158751D02*
G54D10*
D03*
X184150Y-82551D02*
G54D11*
D03*
X234950Y-82551D02*
G54D11*
D03*
X285750Y-82551D02*
G54D11*
D03*
X184150Y-158751D02*
G54D11*
D03*
X234950Y-158751D02*
G54D11*
D03*
X285750Y-158751D02*
G54D11*
D03*
X355600Y-82551D02*
G54D10*
D03*
X355600Y-158751D02*
G54D10*
D03*
X508000Y-82551D02*
G54D11*
D03*
X558800Y-82551D02*
G54D11*
D03*
X609600Y-82551D02*
G54D11*
D03*
X508000Y-158751D02*
G54D11*
D03*
X558800Y-158751D02*
G54D11*
D03*
X609600Y-158751D02*
G54D11*
D03*
X355601Y-234952D02*
G54D10*
D03*
X355601Y-311152D02*
G54D10*
D03*
X508001Y-234952D02*
G54D11*
D03*
X558801Y-234952D02*
G54D11*
D03*
X609601Y-234952D02*
G54D11*
D03*
X508001Y-311152D02*
G54D11*
D03*
X558801Y-311152D02*
G54D11*
D03*
X609601Y-311152D02*
G54D11*
D03*
X679450Y-234951D02*
G54D10*
D03*
X679450Y-311151D02*
G54D10*
D03*
X831850Y-234951D02*
G54D11*
D03*
X882650Y-234951D02*
G54D11*
D03*
X933450Y-234951D02*
G54D11*
D03*
X831850Y-311151D02*
G54D11*
D03*
X882650Y-311151D02*
G54D11*
D03*
X933450Y-311151D02*
G54D11*
D03*
X354012Y-490539D02*
G54D10*
D03*
X354012Y-566739D02*
G54D10*
D03*
X506412Y-490539D02*
G54D11*
D03*
X557212Y-490539D02*
G54D11*
D03*
X608012Y-490539D02*
G54D11*
D03*
X506412Y-566739D02*
G54D11*
D03*
X557212Y-566739D02*
G54D11*
D03*
X608012Y-566739D02*
G54D11*
D03*
X38100Y-488951D02*
G54D11*
D03*
X38100Y-565151D02*
G54D11*
D03*
X190500Y-488951D02*
G54D11*
D03*
X241300Y-488951D02*
G54D11*
D03*
X292100Y-488951D02*
G54D11*
D03*
X190500Y-565151D02*
G54D11*
D03*
X241300Y-565151D02*
G54D11*
D03*
X292100Y-565151D02*
G54D11*
D03*
X95250Y-673100D02*
G54D12*
D03*
X479425Y-673100D02*
G54D12*
D03*
X704850Y-673100D02*
G54D12*
D03*
X871538Y-673100D02*
G54D12*
D03*
X127000Y-25400D02*
G54D12*
D03*
X444500Y-25400D02*
G54D12*
D03*
X774700Y-25400D02*
G54D12*
D03*
X158750Y-673100D02*
G54D12*
D03*
X549275Y-673100D02*
G54D12*
D03*
X635000Y-673100D02*
G54D12*
D03*
X811212Y-673100D02*
G54D12*
D03*
X78449Y-139724D02*
G54D13*
D03*
X78449Y-100024D02*
G54D13*
D03*
X128492Y-390098D02*
G54D14*
D03*
X128492Y-415498D02*
G54D14*
D03*
X103092Y-390098D02*
G54D14*
D03*
X103092Y-415498D02*
G54D14*
D03*
X77692Y-390098D02*
G54D14*
D03*
X77692Y-415498D02*
G54D14*
D03*
X52292Y-390098D02*
G54D14*
D03*
X52292Y-415498D02*
G54D14*
D03*
X26892Y-390098D02*
G54D14*
D03*
X26892Y-415498D02*
G54D14*
D03*
X408649Y-139724D02*
G54D13*
D03*
X408649Y-100024D02*
G54D13*
D03*
X732499Y-139724D02*
G54D13*
D03*
X732499Y-100024D02*
G54D13*
D03*
X78449Y-292124D02*
G54D13*
D03*
X78449Y-252424D02*
G54D13*
D03*
X408649Y-292124D02*
G54D13*
D03*
X408649Y-252424D02*
G54D13*
D03*
X732499Y-292124D02*
G54D13*
D03*
X732499Y-252424D02*
G54D13*
D03*
X400712Y-547712D02*
G54D13*
D03*
X400712Y-508012D02*
G54D13*
D03*
X78449Y-527074D02*
G54D13*
D03*
X78449Y-487374D02*
G54D13*
D03*
X946150Y-25400D02*
G54D15*
D03*
X25400Y-25400D02*
G54D15*
D03*
X25400Y-673100D02*
G54D15*
D03*
X946150Y-673100D02*
G54D15*
D03*
X679450Y-490539D02*
G54D10*
D03*
X679450Y-566739D02*
G54D10*
D03*
X831850Y-490539D02*
G54D11*
D03*
X882650Y-490539D02*
G54D11*
D03*
X933450Y-490539D02*
G54D11*
D03*
X831850Y-566739D02*
G54D11*
D03*
X882650Y-566739D02*
G54D11*
D03*
X933450Y-566739D02*
G54D11*
D03*
X726149Y-547712D02*
G54D13*
D03*
X726150Y-508012D02*
G54D13*
D03*
X160338Y-514350D02*
G54D16*
D03*
X179338Y-514350D02*
G54D16*
D03*
X160338Y-539750D02*
G54D16*
D03*
X179338Y-539750D02*
G54D16*
D03*
X476250Y-515938D02*
G54D16*
D03*
X495250Y-515938D02*
G54D16*
D03*
X476250Y-541338D02*
G54D16*
D03*
X495250Y-541338D02*
G54D16*
D03*
M02*
