%FSLAX34Y34*%
%MOMM*%
%LNSILK_TOP*%
G71*
G01*
%ADD10C, 0.100*%
%ADD11C, 0.144*%
%ADD12C, 0.333*%
%ADD13C, 0.167*%
%ADD14C, 0.000*%
%ADD15C, 0.200*%
%LPD*%
G54D10*
X679450Y-158751D02*
X679450Y-126951D01*
G54D10*
X679450Y-82451D02*
X679450Y-115851D01*
G54D10*
X671550Y-115751D02*
X687350Y-115751D01*
X687350Y-126751D01*
X671550Y-126751D01*
X671550Y-115751D01*
G54D10*
X936650Y-82351D02*
X936650Y-114151D01*
X895350Y-114051D01*
G54D10*
X936650Y-158551D02*
X936650Y-126751D01*
X895350Y-126851D01*
G54D10*
X887450Y-114051D02*
X828750Y-114051D01*
X828750Y-88651D01*
G54D10*
X887450Y-126851D02*
X828750Y-126851D01*
X828750Y-158551D01*
G54D10*
X660450Y-57151D02*
X952550Y-57151D01*
X952550Y-184151D01*
X660450Y-184151D01*
X660450Y-57151D01*
G54D10*
X884250Y-158751D02*
X884250Y-123851D01*
G54D10*
X884250Y-117551D02*
X884250Y-82551D01*
G54D11*
X660643Y-30650D02*
X659950Y-30650D01*
X659950Y-30072D01*
X660643Y-30072D01*
X660643Y-30650D01*
X659950Y-30650D01*
G54D11*
X660643Y-50150D02*
X659950Y-50150D01*
X659950Y-49572D01*
X660643Y-49572D01*
X660643Y-50150D01*
X659950Y-50150D01*
G54D10*
X31750Y-311151D02*
X31750Y-279351D01*
G54D10*
X31750Y-234851D02*
X31750Y-268251D01*
G54D10*
X23850Y-268151D02*
X39650Y-268151D01*
X39650Y-279151D01*
X23850Y-279151D01*
X23850Y-268151D01*
G54D10*
X288950Y-234751D02*
X288950Y-266551D01*
X247650Y-266451D01*
G54D10*
X288950Y-310951D02*
X288950Y-279151D01*
X247650Y-279251D01*
G54D10*
X239750Y-266451D02*
X181050Y-266451D01*
X181050Y-241051D01*
G54D10*
X239750Y-279251D02*
X181050Y-279251D01*
X181050Y-310951D01*
G54D10*
X12750Y-209551D02*
X304850Y-209551D01*
X304850Y-336551D01*
X12750Y-336551D01*
X12750Y-209551D01*
G54D10*
X236550Y-311151D02*
X236550Y-276251D01*
G54D10*
X236550Y-269951D02*
X236550Y-234951D01*
G54D11*
X12944Y-183051D02*
X12250Y-183051D01*
X12250Y-182474D01*
X12944Y-182474D01*
X12944Y-183051D01*
X12250Y-183051D01*
G54D11*
X12944Y-202551D02*
X12250Y-202551D01*
X12250Y-201973D01*
X12944Y-201973D01*
X12944Y-202551D01*
X12250Y-202551D01*
G54D10*
X31750Y-158751D02*
X31750Y-126951D01*
G54D10*
X31750Y-82451D02*
X31750Y-115851D01*
G54D10*
X23850Y-115751D02*
X39650Y-115751D01*
X39650Y-126751D01*
X23850Y-126751D01*
X23850Y-115751D01*
G54D10*
X288950Y-82351D02*
X288950Y-114151D01*
X247650Y-114051D01*
G54D10*
X288950Y-158551D02*
X288950Y-126751D01*
X247650Y-126851D01*
G54D10*
X239750Y-114051D02*
X181050Y-114051D01*
X181050Y-88651D01*
G54D10*
X239750Y-126851D02*
X181050Y-126851D01*
X181050Y-158551D01*
G54D10*
X12750Y-57151D02*
X304850Y-57151D01*
X304850Y-184151D01*
X12750Y-184151D01*
X12750Y-57151D01*
G54D10*
X236550Y-158751D02*
X236550Y-123851D01*
G54D10*
X236550Y-117551D02*
X236550Y-82551D01*
G54D11*
X12943Y-50151D02*
X12250Y-50151D01*
X12250Y-49573D01*
X12943Y-49573D01*
X12943Y-50151D01*
X12250Y-50151D01*
G54D10*
X355600Y-158751D02*
X355600Y-126951D01*
G54D10*
X355600Y-82451D02*
X355600Y-115851D01*
G54D10*
X347700Y-115751D02*
X363500Y-115751D01*
X363500Y-126751D01*
X347700Y-126751D01*
X347700Y-115751D01*
G54D10*
X612800Y-82351D02*
X612800Y-114151D01*
X571500Y-114051D01*
G54D10*
X612800Y-158551D02*
X612800Y-126751D01*
X571500Y-126851D01*
G54D10*
X563600Y-114051D02*
X504900Y-114051D01*
X504900Y-88651D01*
G54D10*
X563600Y-126851D02*
X504900Y-126851D01*
X504900Y-158551D01*
G54D10*
X336600Y-57151D02*
X628700Y-57151D01*
X628700Y-184151D01*
X336600Y-184151D01*
X336600Y-57151D01*
G54D10*
X560400Y-158751D02*
X560400Y-123851D01*
G54D10*
X560400Y-117551D02*
X560400Y-82551D01*
G54D11*
X336793Y-30650D02*
X336100Y-30650D01*
X336100Y-30072D01*
X336793Y-30072D01*
X336793Y-30650D01*
X336100Y-30650D01*
G54D11*
X336793Y-50150D02*
X336100Y-50150D01*
X336100Y-49572D01*
X336793Y-49572D01*
X336793Y-50150D01*
X336100Y-50150D01*
G54D10*
X355601Y-311152D02*
X355601Y-279352D01*
G54D10*
X355601Y-234852D02*
X355601Y-268252D01*
G54D10*
X347701Y-268152D02*
X363501Y-268152D01*
X363501Y-279152D01*
X347701Y-279152D01*
X347701Y-268152D01*
G54D10*
X612801Y-234752D02*
X612801Y-266552D01*
X571501Y-266452D01*
G54D10*
X612801Y-310952D02*
X612801Y-279152D01*
X571501Y-279252D01*
G54D10*
X563601Y-266452D02*
X504901Y-266452D01*
X504901Y-241052D01*
G54D10*
X563601Y-279252D02*
X504901Y-279252D01*
X504901Y-310952D01*
G54D10*
X336601Y-209552D02*
X628701Y-209552D01*
X628701Y-336552D01*
X336601Y-336551D01*
X336601Y-209552D01*
G54D10*
X560401Y-311152D02*
X560401Y-276251D01*
G54D10*
X560401Y-269952D02*
X560401Y-234952D01*
G54D11*
X336794Y-183052D02*
X336101Y-183052D01*
X336101Y-182474D01*
X336794Y-182474D01*
X336794Y-183052D01*
X336101Y-183052D01*
G54D11*
X336794Y-202551D02*
X336101Y-202551D01*
X336101Y-201973D01*
X336794Y-201973D01*
X336794Y-202551D01*
X336101Y-202551D01*
G54D10*
X679450Y-311151D02*
X679450Y-279351D01*
G54D10*
X679450Y-234851D02*
X679450Y-268251D01*
G54D10*
X671550Y-268151D02*
X687350Y-268151D01*
X687350Y-279151D01*
X671550Y-279151D01*
X671550Y-268151D01*
G54D10*
X936650Y-234751D02*
X936650Y-266551D01*
X895350Y-266451D01*
G54D10*
X936650Y-310951D02*
X936650Y-279151D01*
X895350Y-279251D01*
G54D10*
X887450Y-266451D02*
X828750Y-266451D01*
X828750Y-241051D01*
G54D10*
X887450Y-279251D02*
X828750Y-279251D01*
X828750Y-310951D01*
G54D10*
X660450Y-209551D02*
X952550Y-209551D01*
X952550Y-336551D01*
X660450Y-336551D01*
X660450Y-209551D01*
G54D10*
X884250Y-311151D02*
X884250Y-276251D01*
G54D10*
X884250Y-269951D02*
X884250Y-234951D01*
G54D11*
X660644Y-183051D02*
X659950Y-183051D01*
X659950Y-182474D01*
X660644Y-182474D01*
X660644Y-183051D01*
X659950Y-183051D01*
G54D11*
X660644Y-202551D02*
X659950Y-202551D01*
X659950Y-201973D01*
X660644Y-201973D01*
X660644Y-202551D01*
X659950Y-202551D01*
G54D10*
X354012Y-566739D02*
X354012Y-534939D01*
G54D10*
X354012Y-490439D02*
X354012Y-523839D01*
G54D10*
X346112Y-523739D02*
X361912Y-523739D01*
X361912Y-534739D01*
X346112Y-534739D01*
X346112Y-523739D01*
G54D10*
X611212Y-490339D02*
X611212Y-522139D01*
X569912Y-522039D01*
G54D10*
X611212Y-566539D02*
X611212Y-534739D01*
X569912Y-534839D01*
G54D10*
X562012Y-522039D02*
X503312Y-522039D01*
X503312Y-496639D01*
G54D10*
X562012Y-534839D02*
X503312Y-534839D01*
X503312Y-566539D01*
G54D10*
X335012Y-465139D02*
X627112Y-465139D01*
X627112Y-592139D01*
X335012Y-592139D01*
X335012Y-465139D01*
G54D10*
X558812Y-566739D02*
X558812Y-531839D01*
G54D10*
X558812Y-525539D02*
X558812Y-490539D01*
G54D11*
X335206Y-438639D02*
X334512Y-438639D01*
X334512Y-438062D01*
X335206Y-438062D01*
X335206Y-438639D01*
X334512Y-438639D01*
G54D11*
X335206Y-458139D02*
X334512Y-458139D01*
X334512Y-457562D01*
X335206Y-457562D01*
X335206Y-458139D01*
X334512Y-458139D01*
G54D10*
X38100Y-565151D02*
X38100Y-533351D01*
G54D10*
X38100Y-488851D02*
X38100Y-522251D01*
G54D10*
X30200Y-522151D02*
X46000Y-522151D01*
X46000Y-533151D01*
X30200Y-533151D01*
X30200Y-522151D01*
G54D10*
X295300Y-488751D02*
X295300Y-520551D01*
X254000Y-520451D01*
G54D10*
X295300Y-564951D02*
X295300Y-533151D01*
X254000Y-533251D01*
G54D10*
X246100Y-520451D02*
X187400Y-520451D01*
X187400Y-495051D01*
G54D10*
X246100Y-533251D02*
X187400Y-533251D01*
X187400Y-564951D01*
G54D10*
X19100Y-463551D02*
X311200Y-463551D01*
X311200Y-590551D01*
X19100Y-590551D01*
X19100Y-463551D01*
G54D10*
X242900Y-565151D02*
X242900Y-530251D01*
G54D10*
X242900Y-523951D02*
X242900Y-488951D01*
G54D11*
X19294Y-437051D02*
X18600Y-437051D01*
X18600Y-436474D01*
X19294Y-436474D01*
X19294Y-437051D01*
X18600Y-437051D01*
G54D11*
X19294Y-456551D02*
X18600Y-456551D01*
X18600Y-455973D01*
X19294Y-455973D01*
X19294Y-456551D01*
X18600Y-456551D01*
G54D10*
X141192Y-383698D02*
X134892Y-377398D01*
X122092Y-377398D01*
X115792Y-383698D01*
X115792Y-396498D01*
X122092Y-402798D01*
X134892Y-402798D01*
X141192Y-396498D01*
X141192Y-383698D01*
G54D10*
X141192Y-409098D02*
X134892Y-402798D01*
X122092Y-402798D01*
X115792Y-409098D01*
X115792Y-421898D01*
X122092Y-428198D01*
X134892Y-428198D01*
X141192Y-421898D01*
X141192Y-409098D01*
G54D10*
X115792Y-383698D02*
X109492Y-377398D01*
X96692Y-377398D01*
X90392Y-383698D01*
X90392Y-396498D01*
X96692Y-402798D01*
X109492Y-402798D01*
X115792Y-396498D01*
X115792Y-383698D01*
G54D10*
X115792Y-409098D02*
X109492Y-402798D01*
X96692Y-402798D01*
X90392Y-409098D01*
X90392Y-421898D01*
X96692Y-428198D01*
X109492Y-428198D01*
X115792Y-421898D01*
X115792Y-409098D01*
G54D10*
X90392Y-383698D02*
X84092Y-377398D01*
X71292Y-377398D01*
X64992Y-383698D01*
X64992Y-396498D01*
X71292Y-402798D01*
X84092Y-402798D01*
X90392Y-396498D01*
X90392Y-383698D01*
G54D10*
X90392Y-409098D02*
X84092Y-402798D01*
X71292Y-402798D01*
X64992Y-409098D01*
X64992Y-421898D01*
X71292Y-428198D01*
X84092Y-428198D01*
X90392Y-421898D01*
X90392Y-409098D01*
G54D10*
X64992Y-383698D02*
X58692Y-377398D01*
X45892Y-377398D01*
X39592Y-383698D01*
X39592Y-396498D01*
X45892Y-402798D01*
X58692Y-402798D01*
X64992Y-396498D01*
X64992Y-383698D01*
G54D10*
X64992Y-409098D02*
X58692Y-402798D01*
X45892Y-402798D01*
X39592Y-409098D01*
X39592Y-421898D01*
X45892Y-428198D01*
X58692Y-428198D01*
X64992Y-421898D01*
X64992Y-409098D01*
G54D10*
X39592Y-383698D02*
X33292Y-377398D01*
X20492Y-377398D01*
X14192Y-383698D01*
X14192Y-396498D01*
X20492Y-402798D01*
X33292Y-402798D01*
X39592Y-396498D01*
X39592Y-383698D01*
G54D10*
X39592Y-409098D02*
X33292Y-402798D01*
X20492Y-402798D01*
X14192Y-409098D01*
X14192Y-421898D01*
X20492Y-428198D01*
X33292Y-428198D01*
X39592Y-421898D01*
X39592Y-409098D01*
G54D12*
X481710Y-36194D02*
X491710Y-9528D01*
X501710Y-36194D01*
G54D12*
X485710Y-26194D02*
X497710Y-26194D01*
G54D12*
X525044Y-36194D02*
X509044Y-36194D01*
X509044Y-34528D01*
X511044Y-31194D01*
X523044Y-21194D01*
X525044Y-17861D01*
X525044Y-14528D01*
X523044Y-11194D01*
X519044Y-9528D01*
X515044Y-9528D01*
X511044Y-11194D01*
X509044Y-14528D01*
G54D12*
X158860Y-36194D02*
X168860Y-9528D01*
X178860Y-36194D01*
G54D12*
X162860Y-26194D02*
X174860Y-26194D01*
G54D12*
X186194Y-19528D02*
X196194Y-9528D01*
X196194Y-36194D01*
G54D12*
X811910Y-36194D02*
X821910Y-9528D01*
X831910Y-36194D01*
G54D12*
X815910Y-26194D02*
X827910Y-26194D01*
G54D12*
X839244Y-14528D02*
X841244Y-11194D01*
X845244Y-9528D01*
X849244Y-9528D01*
X853244Y-11194D01*
X855244Y-14528D01*
X855244Y-17861D01*
X853244Y-21194D01*
X849244Y-22861D01*
X853244Y-24528D01*
X855244Y-27861D01*
X855244Y-31194D01*
X853244Y-34528D01*
X849244Y-36194D01*
X845244Y-36194D01*
X841244Y-34528D01*
X839244Y-31194D01*
G54D12*
X466788Y-636588D02*
X466788Y-609921D01*
G54D12*
X458788Y-609921D02*
X474788Y-609921D01*
G54D12*
X482120Y-636588D02*
X482120Y-621588D01*
G54D12*
X482120Y-624921D02*
X486120Y-621588D01*
X490120Y-621588D01*
G54D12*
X497454Y-619921D02*
X507454Y-609921D01*
X507454Y-636588D01*
G54D12*
X77850Y-633412D02*
X77850Y-606746D01*
G54D12*
X69850Y-606746D02*
X85850Y-606746D01*
G54D12*
X93183Y-633412D02*
X93183Y-618412D01*
G54D12*
X93183Y-621746D02*
X97183Y-618412D01*
X101183Y-618412D01*
G54D12*
X124516Y-633412D02*
X108516Y-633412D01*
X108516Y-631746D01*
X110516Y-628412D01*
X122516Y-618412D01*
X124516Y-615079D01*
X124516Y-611746D01*
X122516Y-608412D01*
X118516Y-606746D01*
X114516Y-606746D01*
X110516Y-608412D01*
X108516Y-611746D01*
G54D12*
X828675Y-636588D02*
X828675Y-609921D01*
X838675Y-609921D01*
X842675Y-611588D01*
X844675Y-614921D01*
X844675Y-618254D01*
X842675Y-621588D01*
X838675Y-623254D01*
X828675Y-623254D01*
G54D12*
X852008Y-636588D02*
X862008Y-609921D01*
X872008Y-636588D01*
G54D12*
X856008Y-626588D02*
X868008Y-626588D01*
G54D12*
X879341Y-624921D02*
X895341Y-624921D01*
G54D12*
X906674Y-609921D02*
X906674Y-634921D01*
X908674Y-636588D01*
X910674Y-635921D01*
G54D12*
X902674Y-621588D02*
X910674Y-621588D01*
G54D12*
X918007Y-636588D02*
X918007Y-621588D01*
G54D12*
X918007Y-624921D02*
X922007Y-621588D01*
X926007Y-621588D01*
G54D12*
X933340Y-621588D02*
X949340Y-636588D01*
G54D12*
X933340Y-636588D02*
X949340Y-621588D01*
G54D12*
X606425Y-636588D02*
X606425Y-609921D01*
X616425Y-609921D01*
X620425Y-611588D01*
X622425Y-614921D01*
X622425Y-618254D01*
X620425Y-621588D01*
X616425Y-623254D01*
X606425Y-623254D01*
G54D12*
X629758Y-636588D02*
X639758Y-609921D01*
X649758Y-636588D01*
G54D12*
X633758Y-626588D02*
X645758Y-626588D01*
G54D12*
X657091Y-624921D02*
X673091Y-624921D01*
G54D12*
X680424Y-623254D02*
X684424Y-621588D01*
X689224Y-621588D01*
X692424Y-624921D01*
X692424Y-636588D01*
G54D12*
X692424Y-631588D02*
X690424Y-628254D01*
X686424Y-627588D01*
X682424Y-628254D01*
X680424Y-631588D01*
X681224Y-634921D01*
X684424Y-636588D01*
X686424Y-636588D01*
X687224Y-636588D01*
X690424Y-634921D01*
X692424Y-631588D01*
G54D12*
X699757Y-636588D02*
X699757Y-621588D01*
G54D12*
X699757Y-624921D02*
X701757Y-622588D01*
X705757Y-621588D01*
X709757Y-622588D01*
X711757Y-624921D01*
X711757Y-636588D01*
G54D12*
X723090Y-609921D02*
X723090Y-634921D01*
X725090Y-636588D01*
X727090Y-635921D01*
G54D12*
X719090Y-621588D02*
X727090Y-621588D01*
G54D13*
X50800Y-359967D02*
X55800Y-354967D01*
X55800Y-368300D01*
G54D13*
X84200Y-368300D02*
X76200Y-368300D01*
X76200Y-367467D01*
X77200Y-365800D01*
X83200Y-360800D01*
X84200Y-359133D01*
X84200Y-357467D01*
X83200Y-355800D01*
X81200Y-354967D01*
X79200Y-354967D01*
X77200Y-355800D01*
X76200Y-357467D01*
G54D13*
X101600Y-357467D02*
X102600Y-355800D01*
X104600Y-354967D01*
X106600Y-354967D01*
X108600Y-355800D01*
X109600Y-357467D01*
X109600Y-359133D01*
X108600Y-360800D01*
X106600Y-361633D01*
X108600Y-362467D01*
X109600Y-364133D01*
X109600Y-365800D01*
X108600Y-367467D01*
X106600Y-368300D01*
X104600Y-368300D01*
X102600Y-367467D01*
X101600Y-365800D01*
G54D13*
X25050Y-368300D02*
X25050Y-354967D01*
X19050Y-363300D01*
X19050Y-364967D01*
X27050Y-364967D01*
G54D13*
X135000Y-437517D02*
X127000Y-437517D01*
X127000Y-443350D01*
X128000Y-443350D01*
X130000Y-442517D01*
X132000Y-442517D01*
X134000Y-443350D01*
X135000Y-445017D01*
X135000Y-448350D01*
X134000Y-450017D01*
X132000Y-450850D01*
X130000Y-450850D01*
X128000Y-450017D01*
X127000Y-448350D01*
G54D13*
X135000Y-357467D02*
X134000Y-355800D01*
X132000Y-354967D01*
X130000Y-354967D01*
X128000Y-355800D01*
X127000Y-357467D01*
X127000Y-361633D01*
X127000Y-362467D01*
X130000Y-360800D01*
X132000Y-360800D01*
X134000Y-361633D01*
X135000Y-363300D01*
X135000Y-365800D01*
X134000Y-367467D01*
X132000Y-368300D01*
X130000Y-368300D01*
X128000Y-367467D01*
X127000Y-365800D01*
X127000Y-361633D01*
G54D13*
X49212Y-435929D02*
X57212Y-435929D01*
X56212Y-437596D01*
X54212Y-440096D01*
X52212Y-443429D01*
X51212Y-445929D01*
X51212Y-449262D01*
G54D13*
X106600Y-444183D02*
X104600Y-444183D01*
X102600Y-443350D01*
X101600Y-441683D01*
X101600Y-440017D01*
X102600Y-438350D01*
X104600Y-437517D01*
X106600Y-437517D01*
X108600Y-438350D01*
X109600Y-440017D01*
X109600Y-441683D01*
X108600Y-443350D01*
X106600Y-444183D01*
X108600Y-445017D01*
X109600Y-446683D01*
X109600Y-448350D01*
X108600Y-450017D01*
X106600Y-450850D01*
X104600Y-450850D01*
X102600Y-450017D01*
X101600Y-448350D01*
X101600Y-446683D01*
X102600Y-445017D01*
X104600Y-444183D01*
G54D14*
X25400Y-444500D02*
X25400Y-444500D01*
G54D14*
X25600Y-438200D02*
X25600Y-438200D01*
G54D14*
X25600Y-445200D02*
X25600Y-445200D01*
G54D15*
X19300Y-445200D02*
X25600Y-445200D01*
G54D15*
X25600Y-445200D02*
X31900Y-445200D01*
G54D15*
X25600Y-438900D02*
X25600Y-445200D01*
G54D15*
X21300Y-448900D02*
X29300Y-448900D01*
G54D15*
X24500Y-452400D02*
X26500Y-452400D01*
G54D13*
X73025Y-446762D02*
X74025Y-448429D01*
X76025Y-449262D01*
X78025Y-449262D01*
X80025Y-448429D01*
X81025Y-446762D01*
X81025Y-442596D01*
X81025Y-441762D01*
X78025Y-443429D01*
X76025Y-443429D01*
X74025Y-442596D01*
X73025Y-440929D01*
X73025Y-438429D01*
X74025Y-436762D01*
X76025Y-435929D01*
X78025Y-435929D01*
X80025Y-436762D01*
X81025Y-438429D01*
X81025Y-442596D01*
G54D10*
X679450Y-566739D02*
X679450Y-534939D01*
G54D10*
X679450Y-490439D02*
X679450Y-523839D01*
G54D10*
X671550Y-523739D02*
X687350Y-523739D01*
X687350Y-534739D01*
X671550Y-534739D01*
X671550Y-523739D01*
G54D10*
X936650Y-490339D02*
X936650Y-522139D01*
X895350Y-522039D01*
G54D10*
X936650Y-566539D02*
X936650Y-534739D01*
X895350Y-534839D01*
G54D10*
X887450Y-522039D02*
X828750Y-522039D01*
X828750Y-496639D01*
G54D10*
X887450Y-534839D02*
X828750Y-534839D01*
X828750Y-566539D01*
G54D10*
X660450Y-465139D02*
X952550Y-465139D01*
X952550Y-592139D01*
X660450Y-592139D01*
X660450Y-465139D01*
G54D10*
X884250Y-566739D02*
X884250Y-531839D01*
G54D10*
X884250Y-525539D02*
X884250Y-490539D01*
G54D11*
X660643Y-438639D02*
X659950Y-438639D01*
X659950Y-438062D01*
X660643Y-438062D01*
X660643Y-438639D01*
X659950Y-438639D01*
G54D11*
X660643Y-458139D02*
X659950Y-458139D01*
X659950Y-457562D01*
X660643Y-457562D01*
X660643Y-458139D01*
X659950Y-458139D01*
M02*
