%FSLAX34Y34*%
%MOMM*%
%LNCOPPER_BOTTOM*%
G71*
G01*
%ADD10C, 1.800*%
%ADD11C, 2.000*%
%ADD12C, 6.000*%
%ADD13C, 1.000*%
%ADD14C, 0.700*%
%ADD15C, 1.800*%
%ADD16C, 2.000*%
%ADD17R, 1.600X1.600*%
%ADD18C, 1.500*%
%ADD19R, 0.800X0.600*%
%ADD20R, 1.400X1.300*%
%ADD21R, 1.600X1.300*%
%ADD22C, 0.400*%
%ADD23R, 1.300X1.600*%
%ADD24C, 0.600*%
%ADD25R, 1.300X1.400*%
%ADD26C, 0.800*%
%ADD27C, 0.154*%
%ADD28C, 0.136*%
%ADD29C, 2.200*%
%ADD30C, 0.500*%
%LPD*%
X449262Y-391988D02*
G54D10*
D03*
X449262Y-366588D02*
G54D10*
D03*
X449262Y-341188D02*
G54D10*
D03*
X449262Y-315788D02*
G54D10*
D03*
X449262Y-290388D02*
G54D10*
D03*
X449262Y-264988D02*
G54D10*
D03*
X449262Y-239588D02*
G54D10*
D03*
X449262Y-214188D02*
G54D10*
D03*
X449262Y-188788D02*
G54D10*
D03*
X449262Y-163388D02*
G54D10*
D03*
X449262Y-137988D02*
G54D10*
D03*
X449262Y-112588D02*
G54D10*
D03*
X449262Y-87188D02*
G54D10*
D03*
X449262Y-61788D02*
G54D10*
D03*
X449262Y-36388D02*
G54D10*
D03*
X296862Y-391988D02*
G54D10*
D03*
X296862Y-391988D02*
G54D10*
D03*
X296862Y-366588D02*
G54D10*
D03*
X296862Y-341188D02*
G54D10*
D03*
X296862Y-315788D02*
G54D10*
D03*
X296862Y-290388D02*
G54D10*
D03*
X296862Y-264988D02*
G54D10*
D03*
X296862Y-239588D02*
G54D10*
D03*
X296862Y-214188D02*
G54D10*
D03*
X296862Y-188788D02*
G54D10*
D03*
X296862Y-163388D02*
G54D10*
D03*
X296862Y-137988D02*
G54D10*
D03*
X296862Y-112588D02*
G54D10*
D03*
X296862Y-87188D02*
G54D10*
D03*
X296862Y-61788D02*
G54D10*
D03*
X296862Y-36388D02*
G54D10*
D03*
G54D11*
X9128Y-10591D02*
X733028Y-10591D01*
X733028Y-420166D01*
X9128Y-420166D01*
X9128Y-10591D01*
X703262Y-41150D02*
G54D12*
D03*
X703262Y-390400D02*
G54D12*
D03*
X39688Y-390400D02*
G54D12*
D03*
X39688Y-41150D02*
G54D12*
D03*
G54D13*
X449262Y-61788D02*
X423862Y-61788D01*
X423862Y-23688D01*
X411162Y-10988D01*
G54D13*
X296862Y-112588D02*
X322262Y-112588D01*
X376238Y-61788D01*
X423862Y-61788D01*
X573107Y-131649D02*
G54D14*
D03*
X608059Y-42869D02*
G54D15*
D03*
X633459Y-42869D02*
G54D15*
D03*
G54D13*
X608060Y-42870D02*
X608060Y-17385D01*
X601663Y-10988D01*
X573107Y-87162D02*
G54D14*
D03*
X149573Y-41280D02*
G54D16*
D03*
X124173Y-41280D02*
G54D16*
D03*
X98773Y-41280D02*
G54D16*
D03*
X591899Y-85203D02*
G54D17*
D03*
X631599Y-85203D02*
G54D17*
D03*
G54D13*
X633460Y-42869D02*
X633412Y-60325D01*
X633412Y-85328D01*
G54D13*
X592296Y-84806D02*
X585833Y-87188D01*
X573107Y-87162D01*
X510214Y-45364D02*
G54D14*
D03*
X542925Y-39688D02*
G54D18*
D03*
X568325Y-39688D02*
G54D18*
D03*
G54D13*
X568325Y-39688D02*
X568325Y-12700D01*
X588334Y-283612D02*
G54D19*
D03*
X588333Y-296612D02*
G54D19*
D03*
X609333Y-290111D02*
G54D19*
D03*
X259568Y-119091D02*
G54D20*
D03*
X259568Y-100091D02*
G54D20*
D03*
X687843Y-181630D02*
G54D16*
D03*
X687842Y-156230D02*
G54D16*
D03*
X687842Y-130830D02*
G54D16*
D03*
X243244Y-389279D02*
G54D16*
D03*
X243244Y-363879D02*
G54D16*
D03*
X217817Y-410615D02*
G54D21*
D03*
X217816Y-391615D02*
G54D21*
D03*
X584284Y-172064D02*
G54D16*
D03*
X558884Y-172064D02*
G54D16*
D03*
X533484Y-172064D02*
G54D16*
D03*
X508084Y-172064D02*
G54D16*
D03*
G54D13*
X509588Y-44450D02*
X509588Y-14288D01*
G54D13*
X573088Y-131762D02*
X550862Y-123825D01*
X550862Y-71438D01*
X568325Y-39688D01*
X92075Y-98426D02*
G54D15*
D03*
X66675Y-98426D02*
G54D15*
D03*
X41275Y-98426D02*
G54D15*
D03*
X192088Y-363538D02*
G54D16*
D03*
X192088Y-388938D02*
G54D16*
D03*
X166688Y-363538D02*
G54D16*
D03*
X166688Y-388938D02*
G54D16*
D03*
X141288Y-363538D02*
G54D16*
D03*
X141288Y-388938D02*
G54D16*
D03*
X115888Y-363538D02*
G54D16*
D03*
X115888Y-388937D02*
G54D16*
D03*
X90488Y-363538D02*
G54D16*
D03*
X90488Y-388937D02*
G54D16*
D03*
X200025Y-100013D02*
G54D15*
D03*
X174625Y-100013D02*
G54D15*
D03*
X149225Y-100013D02*
G54D15*
D03*
X92075Y-163513D02*
G54D15*
D03*
X66675Y-163513D02*
G54D15*
D03*
X41275Y-163513D02*
G54D15*
D03*
X200025Y-165101D02*
G54D15*
D03*
X174625Y-165101D02*
G54D15*
D03*
X149225Y-165101D02*
G54D15*
D03*
X92075Y-230188D02*
G54D15*
D03*
X66675Y-230188D02*
G54D15*
D03*
X41275Y-230188D02*
G54D15*
D03*
X200025Y-230188D02*
G54D15*
D03*
X174625Y-230188D02*
G54D15*
D03*
X149225Y-230188D02*
G54D15*
D03*
X92075Y-293688D02*
G54D15*
D03*
X66675Y-293688D02*
G54D15*
D03*
X41275Y-293688D02*
G54D15*
D03*
X200025Y-295276D02*
G54D15*
D03*
X174625Y-295276D02*
G54D15*
D03*
X149225Y-295276D02*
G54D15*
D03*
G54D22*
X242888Y-388938D02*
X242888Y-417512D01*
X246062Y-423862D01*
G54D22*
X260350Y-100012D02*
X257175Y-85725D01*
X109538Y-85725D01*
X95250Y-100012D01*
G54D22*
X260350Y-119062D02*
X282575Y-133350D01*
X282575Y-173038D01*
X296862Y-188912D01*
X234168Y-119091D02*
G54D20*
D03*
X234168Y-100091D02*
G54D20*
D03*
G54D22*
X298450Y-214312D02*
X295275Y-214312D01*
X274638Y-195262D01*
X274638Y-138112D01*
X241300Y-134938D01*
X234950Y-119062D01*
G54D22*
X234950Y-100012D02*
X200025Y-100012D01*
X259568Y-177829D02*
G54D20*
D03*
X259568Y-158829D02*
G54D20*
D03*
X234168Y-177829D02*
G54D20*
D03*
X234168Y-158829D02*
G54D20*
D03*
G54D22*
X296862Y-239712D02*
X295275Y-239712D01*
X280988Y-225425D01*
X280988Y-212725D01*
X266700Y-198438D01*
X266700Y-184150D01*
X260350Y-177800D01*
G54D22*
X296862Y-265112D02*
X293688Y-265112D01*
X274638Y-246062D01*
X274638Y-215900D01*
X254000Y-195262D01*
X250825Y-195262D01*
X233362Y-177800D01*
G54D22*
X234950Y-158750D02*
X206375Y-158750D01*
X200025Y-165100D01*
G54D22*
X260350Y-158750D02*
X260350Y-152400D01*
X252412Y-144462D01*
X115888Y-144462D01*
X95250Y-165100D01*
X259568Y-246091D02*
G54D20*
D03*
X259568Y-227091D02*
G54D20*
D03*
X234168Y-246091D02*
G54D20*
D03*
X234168Y-227091D02*
G54D20*
D03*
G54D22*
X296862Y-290512D02*
X285750Y-290512D01*
X260350Y-265112D01*
X260350Y-247650D01*
G54D22*
X296862Y-315912D02*
X287338Y-315912D01*
X276225Y-304800D01*
X276225Y-290512D01*
X233362Y-247650D01*
G54D22*
X234950Y-227012D02*
X204788Y-227012D01*
X200025Y-231775D01*
G54D22*
X258762Y-227012D02*
X258762Y-214312D01*
X255588Y-211138D01*
X115888Y-211138D01*
X95250Y-231775D01*
X259568Y-319116D02*
G54D20*
D03*
X259568Y-300116D02*
G54D20*
D03*
X234168Y-319116D02*
G54D20*
D03*
X234168Y-300116D02*
G54D20*
D03*
G54D22*
X296862Y-341312D02*
X280988Y-341312D01*
X260350Y-320675D01*
G54D22*
X200025Y-293688D02*
X227012Y-293688D01*
X233362Y-300038D01*
G54D22*
X260350Y-301625D02*
X260350Y-293688D01*
X241300Y-274638D01*
X114300Y-274638D01*
X95250Y-293688D01*
G54D22*
X296862Y-392112D02*
X287338Y-392112D01*
X265112Y-369888D01*
X265112Y-350838D01*
X234950Y-320675D01*
X215920Y-393549D02*
G54D14*
D03*
G36*
X87404Y-119048D02*
X100404Y-119048D01*
X100404Y-135048D01*
X87404Y-135048D01*
X87404Y-119048D01*
G37*
X112904Y-127048D02*
G54D23*
D03*
G36*
X15966Y-119048D02*
X28966Y-119048D01*
X28966Y-135048D01*
X15966Y-135048D01*
X15966Y-119048D01*
G37*
X41466Y-127048D02*
G54D23*
D03*
G54D24*
X14288Y-144462D02*
X76200Y-144462D01*
X93662Y-127000D01*
X112732Y-125262D02*
G54D14*
D03*
G54D24*
X41275Y-98425D02*
X41275Y-125412D01*
X42862Y-127000D01*
G36*
X95341Y-185723D02*
X108341Y-185723D01*
X108341Y-201723D01*
X95341Y-201723D01*
X95341Y-185723D01*
G37*
X120841Y-193723D02*
G54D23*
D03*
G36*
X15966Y-185723D02*
X28966Y-185723D01*
X28966Y-201723D01*
X15966Y-201723D01*
X15966Y-185723D01*
G37*
X41466Y-193723D02*
G54D23*
D03*
G54D24*
X41275Y-163512D02*
X41275Y-193675D01*
X42862Y-195262D01*
G54D24*
X15875Y-211138D02*
X85725Y-211138D01*
X101600Y-195262D01*
X122257Y-193524D02*
G54D14*
D03*
G36*
X15966Y-249223D02*
X28966Y-249223D01*
X28966Y-265223D01*
X15966Y-265223D01*
X15966Y-249223D01*
G37*
X41466Y-257223D02*
G54D23*
D03*
G36*
X104866Y-250810D02*
X117866Y-250810D01*
X117866Y-266810D01*
X104866Y-266810D01*
X104866Y-250810D01*
G37*
X130366Y-258810D02*
G54D23*
D03*
X133370Y-258612D02*
G54D14*
D03*
G54D24*
X41275Y-230188D02*
X41275Y-257175D01*
X42862Y-258762D01*
G54D24*
X15875Y-273050D02*
X95250Y-273050D01*
X109538Y-258762D01*
G36*
X15966Y-319073D02*
X28966Y-319073D01*
X28966Y-335073D01*
X15966Y-335073D01*
X15966Y-319073D01*
G37*
X41466Y-327073D02*
G54D23*
D03*
G54D24*
X41275Y-293688D02*
X41275Y-327025D01*
X39688Y-328612D01*
G54D22*
X98425Y-41275D02*
X98425Y-30162D01*
X82550Y-14288D01*
G54D22*
X149225Y-41275D02*
X234950Y-41275D01*
X280988Y-87312D01*
X280988Y-122238D01*
X296862Y-138112D01*
X220682Y-63349D02*
G54D14*
D03*
G54D22*
X123825Y-41275D02*
X123825Y-60325D01*
X127000Y-63500D01*
X220662Y-63500D01*
X333694Y-137546D02*
G54D25*
D03*
X352694Y-137546D02*
G54D25*
D03*
X333694Y-164534D02*
G54D25*
D03*
X352694Y-164534D02*
G54D25*
D03*
G54D22*
X298450Y-138112D02*
X333375Y-138112D01*
G54D22*
X298450Y-163512D02*
X333375Y-163512D01*
G54D22*
X352425Y-166688D02*
X352425Y-139700D01*
X352425Y-136525D01*
X373062Y-115888D01*
X436562Y-115888D01*
X449262Y-112712D01*
G54D22*
X449262Y-61912D02*
X457200Y-61912D01*
X485775Y-90488D01*
X485775Y-155575D01*
X508000Y-173038D01*
G54D22*
X584200Y-173038D02*
X584200Y-185738D01*
X573088Y-196850D01*
X457200Y-196850D01*
X449262Y-188912D01*
G54D26*
X90488Y-388938D02*
X90488Y-417512D01*
X87312Y-420688D01*
G54D26*
X115888Y-388938D02*
X115888Y-417512D01*
X119062Y-420688D01*
G54D27*
X345906Y-388876D02*
X343128Y-389987D01*
X341739Y-392209D01*
X341739Y-394431D01*
X343128Y-396653D01*
X345906Y-397764D01*
X359795Y-397764D01*
X362572Y-396653D01*
X363961Y-394431D01*
X363961Y-392209D01*
X362572Y-389987D01*
X359795Y-388876D01*
G54D27*
X345072Y-377765D02*
X350628Y-377765D01*
X353406Y-378876D01*
X354239Y-381098D01*
X353406Y-383320D01*
X350628Y-384432D01*
X345072Y-384432D01*
X342295Y-383320D01*
X341739Y-381098D01*
X342295Y-378876D01*
X345072Y-377765D01*
G54D27*
X341739Y-373320D02*
X354239Y-373320D01*
G54D27*
X352017Y-373320D02*
X354239Y-371098D01*
X353406Y-368876D01*
X351461Y-367765D01*
X341739Y-367765D01*
G54D27*
X352017Y-367765D02*
X354239Y-365543D01*
X353406Y-363320D01*
X351461Y-362209D01*
X341739Y-362209D01*
G54D27*
X341739Y-357766D02*
X354239Y-357766D01*
G54D27*
X352017Y-357766D02*
X354239Y-355543D01*
X353406Y-353321D01*
X351461Y-352210D01*
X341739Y-352210D01*
G54D27*
X352017Y-352210D02*
X354239Y-349988D01*
X353406Y-347766D01*
X351461Y-346654D01*
X341739Y-346654D01*
G54D27*
X354239Y-335544D02*
X341739Y-335544D01*
G54D27*
X344517Y-335544D02*
X342295Y-336655D01*
X341739Y-338877D01*
X342295Y-341099D01*
X344517Y-342210D01*
X354239Y-342210D01*
G54D27*
X363961Y-328877D02*
X343128Y-328877D01*
X341739Y-327766D01*
X342295Y-326655D01*
G54D27*
X354239Y-331100D02*
X354239Y-326655D01*
G54D27*
X352850Y-322212D02*
X354239Y-319989D01*
X354239Y-317323D01*
X351461Y-315545D01*
X341739Y-315545D01*
G54D27*
X345906Y-315545D02*
X348683Y-316656D01*
X349239Y-318878D01*
X348683Y-321100D01*
X345906Y-322212D01*
X343128Y-321767D01*
X341739Y-319989D01*
X341739Y-318878D01*
X341739Y-318434D01*
X343128Y-316656D01*
X345906Y-315545D01*
G54D27*
X363961Y-308878D02*
X343128Y-308878D01*
X341739Y-307767D01*
X342295Y-306656D01*
G54D27*
X354239Y-311100D02*
X354239Y-306656D01*
G54D27*
X345072Y-295546D02*
X350628Y-295546D01*
X353406Y-296657D01*
X354239Y-298879D01*
X353406Y-301101D01*
X350628Y-302212D01*
X345072Y-302212D01*
X342295Y-301101D01*
X341739Y-298879D01*
X342295Y-296657D01*
X345072Y-295546D01*
G54D27*
X341739Y-291102D02*
X354239Y-291102D01*
G54D27*
X351461Y-291102D02*
X354239Y-288879D01*
X354239Y-286657D01*
G54D27*
X345906Y-268659D02*
X343128Y-269770D01*
X341739Y-271992D01*
X341739Y-274214D01*
X343128Y-276436D01*
X345906Y-277548D01*
X359795Y-277548D01*
X362572Y-276436D01*
X363961Y-274214D01*
X363961Y-271992D01*
X362572Y-269770D01*
X359795Y-268659D01*
G54D27*
X345072Y-257548D02*
X350628Y-257548D01*
X353406Y-258659D01*
X354239Y-260881D01*
X353406Y-263103D01*
X350628Y-264214D01*
X345072Y-264214D01*
X342295Y-263103D01*
X341739Y-260881D01*
X342295Y-258659D01*
X345072Y-257548D01*
G54D27*
X341739Y-253104D02*
X354239Y-253104D01*
G54D27*
X351461Y-253104D02*
X353406Y-251992D01*
X354239Y-249770D01*
X353406Y-247548D01*
X351461Y-246437D01*
X341739Y-246437D01*
G54D27*
X363961Y-239770D02*
X343128Y-239770D01*
X341739Y-238659D01*
X342295Y-237548D01*
G54D27*
X354239Y-241992D02*
X354239Y-237548D01*
G54D27*
X341739Y-233104D02*
X354239Y-233104D01*
G54D27*
X351461Y-233104D02*
X354239Y-230882D01*
X354239Y-228660D01*
G54D27*
X345072Y-217550D02*
X350628Y-217550D01*
X353406Y-218661D01*
X354239Y-220883D01*
X353406Y-223105D01*
X350628Y-224216D01*
X345072Y-224216D01*
X342295Y-223105D01*
X341739Y-220883D01*
X342295Y-218661D01*
X345072Y-217550D01*
G54D27*
X341739Y-213106D02*
X363961Y-213106D01*
G54D27*
X341739Y-208662D02*
X363961Y-208662D01*
G54D27*
X343128Y-197551D02*
X341739Y-199329D01*
X341739Y-201551D01*
X343128Y-203773D01*
X345906Y-204218D01*
X350628Y-204218D01*
X353406Y-203106D01*
X354239Y-200884D01*
X353406Y-198662D01*
X351461Y-197551D01*
X348683Y-197551D01*
X348683Y-204218D01*
G54D27*
X341739Y-193106D02*
X354239Y-193106D01*
G54D27*
X351461Y-193106D02*
X354239Y-190884D01*
X354239Y-188662D01*
G54D28*
X328926Y-396177D02*
X317926Y-392266D01*
X328926Y-388355D01*
G54D28*
X330149Y-384444D02*
X337482Y-379555D01*
X317926Y-379555D01*
G54D28*
X317926Y-374862D02*
X317926Y-375644D01*
X318904Y-375644D01*
X318904Y-374862D01*
X317926Y-374862D01*
X317926Y-375644D01*
G54D28*
X333815Y-363129D02*
X321593Y-363129D01*
X319149Y-364107D01*
X317926Y-366062D01*
X317926Y-368018D01*
X319149Y-369973D01*
X321593Y-370951D01*
X333815Y-370951D01*
X336260Y-369973D01*
X337482Y-368018D01*
X337482Y-366062D01*
X336260Y-364107D01*
X333815Y-363129D01*
G54D28*
X317926Y-355111D02*
X337482Y-355111D01*
G54D28*
X325749Y-355111D02*
X328193Y-354133D01*
X328926Y-352178D01*
X328193Y-350222D01*
X325749Y-349244D01*
X320860Y-349244D01*
X318415Y-350222D01*
X317926Y-352178D01*
X318415Y-354133D01*
X320860Y-355111D01*
G54D28*
X328926Y-345333D02*
X317926Y-341422D01*
X328926Y-337511D01*
G54D28*
X317926Y-341422D02*
X314260Y-342400D01*
X313038Y-343377D01*
X313038Y-344355D01*
G54D28*
X327704Y-325582D02*
X325260Y-322649D01*
X322815Y-321671D01*
X317926Y-321671D01*
G54D28*
X317926Y-329493D02*
X337482Y-329493D01*
X337482Y-324604D01*
X336260Y-322649D01*
X333815Y-321671D01*
X331371Y-321671D01*
X328926Y-322649D01*
X327704Y-324604D01*
X327704Y-329493D01*
G54D28*
X333815Y-317760D02*
X336260Y-316782D01*
X337482Y-314827D01*
X337482Y-312871D01*
X336260Y-310916D01*
X333815Y-309938D01*
X331371Y-309938D01*
X328926Y-310916D01*
X327704Y-312871D01*
X326482Y-310916D01*
X324038Y-309938D01*
X321593Y-309938D01*
X319149Y-310916D01*
X317926Y-312871D01*
X317926Y-314827D01*
X319149Y-316782D01*
X321593Y-317760D01*
G54D28*
X317926Y-302116D02*
X337482Y-302116D01*
G54D28*
X337482Y-306027D02*
X337482Y-298205D01*
G54D28*
X337482Y-286472D02*
X321593Y-286472D01*
X319149Y-287450D01*
X317926Y-289405D01*
X317926Y-291361D01*
X319149Y-293316D01*
X321593Y-294294D01*
G54D28*
X337482Y-282561D02*
X317926Y-282561D01*
X317926Y-275717D01*
G54D28*
X337482Y-264766D02*
X336260Y-266721D01*
X333815Y-267699D01*
X321593Y-267699D01*
X319149Y-266721D01*
X317926Y-264766D01*
G54D28*
X321593Y-253033D02*
X319149Y-254011D01*
X317926Y-255966D01*
X317926Y-257922D01*
X319149Y-259877D01*
X321593Y-260855D01*
X333815Y-260855D01*
X336260Y-259877D01*
X337482Y-257922D01*
X337482Y-255966D01*
X336260Y-254011D01*
X333815Y-253033D01*
G54D28*
X337482Y-249122D02*
X336260Y-247166D01*
X333815Y-246189D01*
X321593Y-246189D01*
X319149Y-247166D01*
X317926Y-249122D01*
G54D28*
X317926Y-230349D02*
X317926Y-238171D01*
X319149Y-238171D01*
X321593Y-237193D01*
X328926Y-231327D01*
X331371Y-230349D01*
X333815Y-230349D01*
X336260Y-231327D01*
X337482Y-233282D01*
X337482Y-235238D01*
X336260Y-237193D01*
X333815Y-238171D01*
G54D28*
X333815Y-218616D02*
X321593Y-218616D01*
X319149Y-219594D01*
X317926Y-221549D01*
X317926Y-223505D01*
X319149Y-225460D01*
X321593Y-226438D01*
X333815Y-226438D01*
X336260Y-225460D01*
X337482Y-223505D01*
X337482Y-221549D01*
X336260Y-219594D01*
X333815Y-218616D01*
G54D28*
X317926Y-206883D02*
X317926Y-214705D01*
X319149Y-214705D01*
X321593Y-213727D01*
X328926Y-207861D01*
X331371Y-206883D01*
X333815Y-206883D01*
X336260Y-207861D01*
X337482Y-209816D01*
X337482Y-211772D01*
X336260Y-213727D01*
X333815Y-214705D01*
G54D28*
X317926Y-195150D02*
X317926Y-202972D01*
X319149Y-202972D01*
X321593Y-201994D01*
X328926Y-196128D01*
X331371Y-195150D01*
X333815Y-195150D01*
X336260Y-196128D01*
X337482Y-198083D01*
X337482Y-200039D01*
X336260Y-201994D01*
X333815Y-202972D01*
X577299Y-217717D02*
G54D29*
D03*
X577299Y-243118D02*
G54D29*
D03*
X577299Y-344718D02*
G54D29*
D03*
X501099Y-217717D02*
G54D29*
D03*
X501099Y-243118D02*
G54D29*
D03*
X501099Y-344717D02*
G54D29*
D03*
X579522Y-386376D02*
G54D16*
D03*
X554122Y-386376D02*
G54D16*
D03*
X528722Y-386376D02*
G54D16*
D03*
X503322Y-386376D02*
G54D16*
D03*
X655722Y-386376D02*
G54D16*
D03*
X630322Y-386376D02*
G54D16*
D03*
X604922Y-386376D02*
G54D16*
D03*
X383393Y-261966D02*
G54D20*
D03*
X383393Y-242966D02*
G54D20*
D03*
X383393Y-312766D02*
G54D20*
D03*
X383393Y-293766D02*
G54D20*
D03*
X383393Y-363566D02*
G54D20*
D03*
X383393Y-344566D02*
G54D20*
D03*
X419906Y-220691D02*
G54D20*
D03*
X419906Y-201691D02*
G54D20*
D03*
X419906Y-271491D02*
G54D20*
D03*
X419906Y-252491D02*
G54D20*
D03*
X419906Y-322291D02*
G54D20*
D03*
X419906Y-303291D02*
G54D20*
D03*
G54D22*
X352425Y-165100D02*
X363538Y-165100D01*
X382588Y-184150D01*
X382588Y-242888D01*
X384175Y-244475D01*
G54D22*
X420688Y-201612D02*
X400050Y-201612D01*
X382588Y-184150D01*
G54D22*
X420688Y-220662D02*
X420688Y-252412D01*
G54D22*
X420688Y-271462D02*
X420688Y-301625D01*
X419100Y-303212D01*
G54D22*
X382588Y-261938D02*
X382588Y-295275D01*
X384175Y-296862D01*
G54D22*
X382588Y-312738D02*
X382588Y-344488D01*
X384175Y-346075D01*
G54D22*
X449262Y-239712D02*
X439738Y-239712D01*
X420688Y-220662D01*
X382607Y-261787D02*
G54D14*
D03*
G54D22*
X382588Y-365125D02*
X400050Y-365125D01*
X439738Y-404812D01*
X485775Y-404812D01*
X503238Y-387350D01*
G54D22*
X382588Y-344488D02*
X400050Y-344488D01*
X434975Y-379412D01*
X485775Y-379412D01*
X492125Y-371475D01*
X515938Y-371475D01*
X528638Y-385762D01*
G54D22*
X420688Y-323850D02*
X420688Y-339725D01*
X434975Y-354012D01*
X479425Y-354012D01*
X488950Y-363538D01*
X557212Y-363538D01*
X579438Y-385762D01*
G54D22*
X420688Y-304800D02*
X427038Y-304800D01*
X433388Y-311150D01*
X433388Y-322262D01*
X439738Y-328612D01*
X533400Y-328612D01*
X568325Y-363538D01*
X582612Y-363538D01*
X604838Y-385762D01*
G54D22*
X655638Y-385762D02*
X655638Y-417512D01*
X658812Y-420688D01*
X690011Y-217717D02*
G54D29*
D03*
X690011Y-243118D02*
G54D29*
D03*
X690011Y-344718D02*
G54D29*
D03*
X613811Y-217717D02*
G54D29*
D03*
X613811Y-243118D02*
G54D29*
D03*
X613811Y-344717D02*
G54D29*
D03*
X635455Y-130830D02*
G54D16*
D03*
X635455Y-156230D02*
G54D16*
D03*
X635455Y-181630D02*
G54D16*
D03*
X573107Y-109424D02*
G54D14*
D03*
X519668Y-264988D02*
G54D17*
D03*
X559368Y-264988D02*
G54D17*
D03*
G54D22*
X573088Y-109538D02*
X577850Y-109538D01*
X598488Y-130175D01*
X598488Y-180975D01*
X576262Y-203200D01*
X541338Y-203200D01*
X501650Y-242888D01*
G54D22*
X595312Y-184150D02*
X595312Y-225425D01*
X614362Y-244475D01*
G54D22*
X501650Y-242888D02*
X501650Y-249238D01*
X517525Y-265112D01*
X494032Y-296296D02*
G54D25*
D03*
X513032Y-296296D02*
G54D25*
D03*
X540069Y-312171D02*
G54D25*
D03*
X559069Y-312171D02*
G54D25*
D03*
G54D22*
X449262Y-290512D02*
X485775Y-290512D01*
X493712Y-298450D01*
G54D22*
X449262Y-315912D02*
X534988Y-315912D01*
X539750Y-311150D01*
X632380Y-264988D02*
G54D17*
D03*
X672080Y-264988D02*
G54D17*
D03*
X637546Y-299487D02*
G54D19*
D03*
X637546Y-312486D02*
G54D19*
D03*
X658546Y-305986D02*
G54D19*
D03*
G54D22*
X514350Y-296862D02*
X587375Y-296862D01*
X588962Y-296862D01*
G54D22*
X611188Y-290512D02*
X611188Y-274638D01*
X577850Y-242888D01*
G54D22*
X577850Y-242888D02*
X577850Y-246062D01*
X560388Y-263525D01*
G54D22*
X560388Y-312738D02*
X638175Y-312738D01*
G54D22*
X658812Y-306388D02*
X658812Y-295275D01*
X673100Y-280988D01*
X673100Y-260350D01*
X690562Y-242888D01*
G54D22*
X614362Y-242888D02*
X614362Y-246062D01*
X630238Y-261938D01*
X638195Y-299887D02*
G54D30*
D03*
X588982Y-284012D02*
G54D30*
D03*
X630280Y-398026D02*
G54D21*
D03*
X630280Y-417026D02*
G54D21*
D03*
X604880Y-398026D02*
G54D21*
D03*
X604880Y-417026D02*
G54D21*
D03*
X579480Y-398026D02*
G54D21*
D03*
X579480Y-417026D02*
G54D21*
D03*
X554080Y-398026D02*
G54D21*
D03*
X554080Y-417026D02*
G54D21*
D03*
X528680Y-398026D02*
G54D21*
D03*
X528680Y-417026D02*
G54D21*
D03*
X503280Y-398026D02*
G54D21*
D03*
X503280Y-417026D02*
G54D21*
D03*
X707848Y-98931D02*
G54D16*
D03*
X682448Y-98931D02*
G54D16*
D03*
X657048Y-98931D02*
G54D16*
D03*
G54D22*
X578644Y-109538D02*
X642938Y-109538D01*
X657225Y-98425D01*
X682944Y-307409D02*
G54D25*
D03*
X701944Y-307409D02*
G54D25*
D03*
G54D22*
X658812Y-306388D02*
X681038Y-306388D01*
X682625Y-307975D01*
G54D22*
X708025Y-95250D02*
X708025Y-301625D01*
X701675Y-307975D01*
X646132Y-233212D02*
G54D30*
D03*
X643257Y-215334D02*
G54D25*
D03*
X662257Y-215334D02*
G54D25*
D03*
G54D22*
X646112Y-233362D02*
X646112Y-219075D01*
X641350Y-214312D01*
G54D22*
X682625Y-96838D02*
X682625Y-101600D01*
X661988Y-122238D01*
X661988Y-215900D01*
M02*
