%FSLAX34Y34*%
%MOMM*%
%LNCOPPER_TOP*%
G71*
G01*
%ADD10C, 1.800*%
%ADD11R, 1.400X1.200*%
%ADD12R, 1.400X3.500*%
%ADD13C, 6.000*%
%ADD14C, 0.700*%
%ADD15C, 1.500*%
%ADD16C, 1.800*%
%ADD17C, 2.000*%
%ADD18R, 1.600X1.300*%
%ADD19C, 1.500*%
%ADD20C, 1.000*%
%ADD21C, 0.400*%
%ADD22C, 0.600*%
%ADD23C, 2.200*%
%ADD24C, 0.500*%
%LPD*%
X449262Y-391988D02*
G54D10*
D03*
X449262Y-366588D02*
G54D10*
D03*
X449262Y-341188D02*
G54D10*
D03*
X449262Y-315788D02*
G54D10*
D03*
X449262Y-290388D02*
G54D10*
D03*
X449262Y-264988D02*
G54D10*
D03*
X449262Y-239588D02*
G54D10*
D03*
X449262Y-214188D02*
G54D10*
D03*
X449262Y-188788D02*
G54D10*
D03*
X449262Y-163388D02*
G54D10*
D03*
X449262Y-137988D02*
G54D10*
D03*
X449262Y-112588D02*
G54D10*
D03*
X449262Y-87188D02*
G54D10*
D03*
X449262Y-61788D02*
G54D10*
D03*
X449262Y-36388D02*
G54D10*
D03*
X296862Y-391988D02*
G54D10*
D03*
X296862Y-391988D02*
G54D10*
D03*
X296862Y-366588D02*
G54D10*
D03*
X296862Y-341188D02*
G54D10*
D03*
X296862Y-315788D02*
G54D10*
D03*
X296862Y-290388D02*
G54D10*
D03*
X296862Y-264988D02*
G54D10*
D03*
X296862Y-239588D02*
G54D10*
D03*
X296862Y-214188D02*
G54D10*
D03*
X296862Y-188788D02*
G54D10*
D03*
X296862Y-163388D02*
G54D10*
D03*
X296862Y-137988D02*
G54D10*
D03*
X296862Y-112588D02*
G54D10*
D03*
X296862Y-87188D02*
G54D10*
D03*
X296862Y-61788D02*
G54D10*
D03*
X296862Y-36388D02*
G54D10*
D03*
X572884Y-132740D02*
G54D11*
D03*
X572884Y-109740D02*
G54D11*
D03*
X572884Y-86740D02*
G54D11*
D03*
X510884Y-109740D02*
G54D12*
D03*
X703262Y-41150D02*
G54D13*
D03*
X703262Y-390400D02*
G54D13*
D03*
X39688Y-390400D02*
G54D13*
D03*
X39688Y-41150D02*
G54D13*
D03*
X573107Y-131649D02*
G54D14*
D03*
G54D15*
X633412Y-42738D02*
X622300Y-10988D01*
X244475Y-10988D01*
X171450Y-63500D01*
X66675Y-76200D01*
X66675Y-293562D01*
X608059Y-42869D02*
G54D16*
D03*
X633459Y-42869D02*
G54D16*
D03*
X573107Y-87162D02*
G54D14*
D03*
X149573Y-41280D02*
G54D17*
D03*
X124173Y-41280D02*
G54D17*
D03*
X98773Y-41280D02*
G54D17*
D03*
X509588Y-46038D02*
G54D18*
D03*
X509588Y-65037D02*
G54D18*
D03*
X510214Y-45364D02*
G54D14*
D03*
X542925Y-39688D02*
G54D19*
D03*
X568325Y-39688D02*
G54D19*
D03*
G54D20*
X449262Y-36388D02*
X482600Y-53850D01*
X493712Y-66550D01*
X530225Y-66550D01*
X542925Y-41150D01*
X687843Y-181630D02*
G54D17*
D03*
X687842Y-156230D02*
G54D17*
D03*
X687842Y-130830D02*
G54D17*
D03*
X243244Y-389279D02*
G54D17*
D03*
X243244Y-363879D02*
G54D17*
D03*
X584284Y-172064D02*
G54D17*
D03*
X558884Y-172064D02*
G54D17*
D03*
X533484Y-172064D02*
G54D17*
D03*
X508084Y-172064D02*
G54D17*
D03*
G54D20*
X512763Y-109412D02*
X573088Y-109412D01*
G54D20*
X511175Y-106237D02*
X511175Y-68137D01*
X92075Y-98426D02*
G54D16*
D03*
X66675Y-98426D02*
G54D16*
D03*
X41275Y-98426D02*
G54D16*
D03*
X192088Y-363538D02*
G54D17*
D03*
X192088Y-388938D02*
G54D17*
D03*
X166688Y-363538D02*
G54D17*
D03*
X166688Y-388938D02*
G54D17*
D03*
X141288Y-363538D02*
G54D17*
D03*
X141288Y-388938D02*
G54D17*
D03*
X115888Y-363538D02*
G54D17*
D03*
X115888Y-388937D02*
G54D17*
D03*
X90488Y-363538D02*
G54D17*
D03*
X90488Y-388937D02*
G54D17*
D03*
X200025Y-100013D02*
G54D16*
D03*
X174625Y-100013D02*
G54D16*
D03*
X149225Y-100013D02*
G54D16*
D03*
X92075Y-163513D02*
G54D16*
D03*
X66675Y-163513D02*
G54D16*
D03*
X41275Y-163513D02*
G54D16*
D03*
X200025Y-165101D02*
G54D16*
D03*
X174625Y-165101D02*
G54D16*
D03*
X149225Y-165101D02*
G54D16*
D03*
X92075Y-230188D02*
G54D16*
D03*
X66675Y-230188D02*
G54D16*
D03*
X41275Y-230188D02*
G54D16*
D03*
X200025Y-230188D02*
G54D16*
D03*
X174625Y-230188D02*
G54D16*
D03*
X149225Y-230188D02*
G54D16*
D03*
X92075Y-293688D02*
G54D16*
D03*
X66675Y-293688D02*
G54D16*
D03*
X41275Y-293688D02*
G54D16*
D03*
X200025Y-295276D02*
G54D16*
D03*
X174625Y-295276D02*
G54D16*
D03*
X149225Y-295276D02*
G54D16*
D03*
G54D15*
X174625Y-63500D02*
X174625Y-293562D01*
G54D21*
X238125Y-363538D02*
X293688Y-363538D01*
X296862Y-366712D01*
G54D22*
X141288Y-388938D02*
X138112Y-392112D01*
X125412Y-404812D01*
X82550Y-404812D01*
X76200Y-396875D01*
X74612Y-373062D01*
X47625Y-346075D01*
X20638Y-346075D01*
X6350Y-331788D01*
X6350Y-133350D01*
X41275Y-98425D01*
G54D22*
X41275Y-163512D02*
X26988Y-163512D01*
X14288Y-176212D01*
X14288Y-327025D01*
X25400Y-336550D01*
X55562Y-336550D01*
X90488Y-363538D01*
G54D22*
X41275Y-230188D02*
X31750Y-230188D01*
X23812Y-238125D01*
X23812Y-322262D01*
X28575Y-327025D01*
X80962Y-327025D01*
X115888Y-363538D01*
G54D22*
X41275Y-292100D02*
X41275Y-303212D01*
X55562Y-317500D01*
X95250Y-317500D01*
X141288Y-363538D01*
G54D22*
X149225Y-100012D02*
X136525Y-100012D01*
X111125Y-125412D01*
X111125Y-312738D01*
X141288Y-342900D01*
X146050Y-342900D01*
X166688Y-363538D01*
G54D22*
X149225Y-165100D02*
X136525Y-165100D01*
X122238Y-179388D01*
X122238Y-307975D01*
X146050Y-331788D01*
X153988Y-331788D01*
X192088Y-363538D01*
G54D22*
X149225Y-231775D02*
X149225Y-233362D01*
X133350Y-249238D01*
X133350Y-301625D01*
X152400Y-320675D01*
X163512Y-320675D01*
X184150Y-341312D01*
X196850Y-341312D01*
X209550Y-354012D01*
X209550Y-371475D01*
X192088Y-388938D01*
G54D22*
X166688Y-388938D02*
X185738Y-407988D01*
X201612Y-407988D01*
X220662Y-388938D01*
X220662Y-349250D01*
X198438Y-327025D01*
X185738Y-327025D01*
X168275Y-309562D01*
X165100Y-309562D01*
X149225Y-293688D01*
X215920Y-393549D02*
G54D14*
D03*
X112732Y-125262D02*
G54D14*
D03*
X122257Y-193524D02*
G54D14*
D03*
X133370Y-258612D02*
G54D14*
D03*
G54D21*
X296862Y-163512D02*
X290512Y-163512D01*
X277812Y-153988D01*
X277812Y-96838D01*
X244475Y-63500D01*
X220662Y-63500D01*
X220682Y-63349D02*
G54D14*
D03*
G54D21*
X509588Y-122238D02*
X509588Y-153988D01*
X533400Y-173038D01*
G54D21*
X560388Y-173038D02*
X560388Y-182562D01*
X547688Y-195262D01*
X468312Y-195262D01*
X449262Y-214312D01*
X577299Y-217717D02*
G54D23*
D03*
X577299Y-243118D02*
G54D23*
D03*
X577299Y-344718D02*
G54D23*
D03*
X501099Y-217717D02*
G54D23*
D03*
X501099Y-243118D02*
G54D23*
D03*
X501099Y-344717D02*
G54D23*
D03*
X579522Y-386376D02*
G54D17*
D03*
X554122Y-386376D02*
G54D17*
D03*
X528722Y-386376D02*
G54D17*
D03*
X503322Y-386376D02*
G54D17*
D03*
X655722Y-386376D02*
G54D17*
D03*
X630322Y-386376D02*
G54D17*
D03*
X604922Y-386376D02*
G54D17*
D03*
G54D21*
X449262Y-265112D02*
X385762Y-265112D01*
X382588Y-261938D01*
X382607Y-261787D02*
G54D14*
D03*
G54D21*
X449262Y-265112D02*
X457200Y-265112D01*
X466725Y-274638D01*
X466725Y-349250D01*
X488950Y-371475D01*
X536575Y-371475D01*
X554038Y-385762D01*
G54D21*
X449262Y-239712D02*
X449262Y-244475D01*
X473075Y-268288D01*
X473075Y-344488D01*
X492125Y-363538D01*
X608012Y-363538D01*
X630238Y-385762D01*
X690011Y-217717D02*
G54D23*
D03*
X690011Y-243118D02*
G54D23*
D03*
X690011Y-344718D02*
G54D23*
D03*
X613811Y-217717D02*
G54D23*
D03*
X613811Y-243118D02*
G54D23*
D03*
X613811Y-344717D02*
G54D23*
D03*
X635455Y-130830D02*
G54D17*
D03*
X635455Y-156230D02*
G54D17*
D03*
X635455Y-181630D02*
G54D17*
D03*
X573107Y-109424D02*
G54D14*
D03*
G54D21*
X690562Y-344488D02*
X690562Y-304800D01*
X661988Y-276225D01*
X661988Y-173038D01*
X687388Y-157162D01*
G54D21*
X690562Y-217488D02*
X690562Y-195262D01*
X687388Y-180975D01*
G54D21*
X614362Y-217488D02*
X638175Y-217488D01*
X655638Y-200025D01*
X655638Y-153988D01*
X688975Y-130175D01*
G54D21*
X577850Y-217488D02*
X587375Y-217488D01*
X617538Y-187325D01*
X630238Y-187325D01*
X636588Y-180975D01*
G54D21*
X577850Y-346075D02*
X577850Y-268288D01*
X561975Y-252412D01*
X561975Y-211138D01*
X571500Y-201612D01*
X593725Y-201612D01*
X614362Y-180975D01*
X614362Y-177800D01*
X635000Y-157162D01*
G54D21*
X501650Y-217488D02*
X544512Y-217488D01*
X566738Y-195262D01*
X590550Y-195262D01*
X590550Y-192088D01*
X619125Y-163512D01*
X619125Y-146050D01*
X635000Y-130175D01*
G54D21*
X588962Y-284162D02*
X604838Y-300038D01*
X638175Y-300038D01*
X655638Y-317500D01*
X655638Y-385762D01*
X657225Y-387350D01*
X638195Y-299887D02*
G54D24*
D03*
X588982Y-284012D02*
G54D24*
D03*
X707848Y-98931D02*
G54D17*
D03*
X682448Y-98931D02*
G54D17*
D03*
X657048Y-98931D02*
G54D17*
D03*
G54D21*
X577850Y-244475D02*
X582612Y-244475D01*
X604838Y-266700D01*
X636588Y-266700D01*
X636588Y-242888D01*
X646112Y-233362D01*
X646132Y-233212D02*
G54D24*
D03*
M02*
