; Drill file
; Format: 2.4 (00.0000)
M48
INCH
T01C0.0079
T02C0.0236
T03C0.0315
T04C0.0394
T05C0.1575
%
G05
G90
T01
X005250Y-010180
X004810Y-007620
X004440Y-004930
X008690Y-002490
X015060Y-010310
X023190Y-011180
X025130Y-011810
X025440Y-009180
X022560Y-005180
X022560Y-004310
X022560Y-003430
X020090Y-001790
X008500Y-015490
T02
X021380Y-001560
X022370Y-001560
T03
X001630Y-011560
X002630Y-011560
X003620Y-011560
X005880Y-011630
X006880Y-011630
X007870Y-011630
X007870Y-009060
X006880Y-009060
X005880Y-009060
X003620Y-009060
X002630Y-009060
X001630Y-009060
X001630Y-006440
X002630Y-006440
X003620Y-006440
X005880Y-006500
X006880Y-006500
X007870Y-006500
X007870Y-003940
X006880Y-003940
X005880Y-003940
X003620Y-003880
X002630Y-003880
X001630Y-003880
X019730Y-008570
X019730Y-009570
X022730Y-009570
X022730Y-008570
X024170Y-008570
X024170Y-009570
X027170Y-009570
X027170Y-008570
X027170Y-013570
X024170Y-013570
X022730Y-013570
X019730Y-013570
X023940Y-001690
X024940Y-001690
T04
X003560Y-015310
X003560Y-014310
X004560Y-014310
X004560Y-015310
X005560Y-015310
X006560Y-015310
X006560Y-014310
X005560Y-014310
X007560Y-014310
X007560Y-015310
X009580Y-015330
X009580Y-014330
X011690Y-014430
X011690Y-015430
X011690Y-013430
X011690Y-012430
X011690Y-011430
X011690Y-010430
X011690Y-009430
X011690Y-008430
X011690Y-007430
X011690Y-006430
X011690Y-005430
X011690Y-004430
X011690Y-003430
X011690Y-002430
X011690Y-001430
X005890Y-001630
X004890Y-001630
X003890Y-001630
X017690Y-001430
X017690Y-002430
X017690Y-003430
X017690Y-004430
X017690Y-005430
X017690Y-006430
X017690Y-007430
X017690Y-008430
X017690Y-009430
X017690Y-010430
X017690Y-011430
X017690Y-012430
X017690Y-013430
X017690Y-014430
X017690Y-015430
X019820Y-015210
X020820Y-015210
X021820Y-015210
X022820Y-015210
X023820Y-015210
X024820Y-015210
X025820Y-015210
X025020Y-007150
X025020Y-006150
X025020Y-005150
X025870Y-003890
X026870Y-003890
X027870Y-003890
X027080Y-005150
X027080Y-006150
X027080Y-007150
X023000Y-006770
X022000Y-006770
X021000Y-006770
X020000Y-006770
T05
X001560Y-015370
X001560Y-001620
X027690Y-001620
X027690Y-015370
M30
