%FSLAX34Y34*%
%MOMM*%
%LNSOLDERMASK_TOP*%
G71*
G01*
%ADD10C, 2.000*%
%ADD11R, 2.000X1.800*%
%ADD12R, 2.000X4.100*%
%ADD13C, 6.200*%
%ADD14C, 2.000*%
%ADD15C, 2.200*%
%ADD16R, 2.200X1.900*%
%ADD17C, 1.700*%
%ADD18C, 2.400*%
%LPD*%
X449262Y-391988D02*
G54D10*
D03*
X449262Y-366588D02*
G54D10*
D03*
X449262Y-341188D02*
G54D10*
D03*
X449262Y-315788D02*
G54D10*
D03*
X449262Y-290388D02*
G54D10*
D03*
X449262Y-264988D02*
G54D10*
D03*
X449262Y-239588D02*
G54D10*
D03*
X449262Y-214188D02*
G54D10*
D03*
X449262Y-188788D02*
G54D10*
D03*
X449262Y-163388D02*
G54D10*
D03*
X449262Y-137988D02*
G54D10*
D03*
X449262Y-112588D02*
G54D10*
D03*
X449262Y-87188D02*
G54D10*
D03*
X449262Y-61788D02*
G54D10*
D03*
X449262Y-36388D02*
G54D10*
D03*
X296862Y-391988D02*
G54D10*
D03*
X296862Y-391988D02*
G54D10*
D03*
X296862Y-366588D02*
G54D10*
D03*
X296862Y-341188D02*
G54D10*
D03*
X296862Y-315788D02*
G54D10*
D03*
X296862Y-290388D02*
G54D10*
D03*
X296862Y-264988D02*
G54D10*
D03*
X296862Y-239588D02*
G54D10*
D03*
X296862Y-214188D02*
G54D10*
D03*
X296862Y-188788D02*
G54D10*
D03*
X296862Y-163388D02*
G54D10*
D03*
X296862Y-137988D02*
G54D10*
D03*
X296862Y-112588D02*
G54D10*
D03*
X296862Y-87188D02*
G54D10*
D03*
X296862Y-61788D02*
G54D10*
D03*
X296862Y-36388D02*
G54D10*
D03*
X572884Y-132740D02*
G54D11*
D03*
X572884Y-109740D02*
G54D11*
D03*
X572884Y-86740D02*
G54D11*
D03*
X510884Y-109740D02*
G54D12*
D03*
X703262Y-41150D02*
G54D13*
D03*
X703262Y-390400D02*
G54D13*
D03*
X39688Y-390400D02*
G54D13*
D03*
X39688Y-41150D02*
G54D13*
D03*
X608059Y-42869D02*
G54D14*
D03*
X633459Y-42869D02*
G54D14*
D03*
X149573Y-41280D02*
G54D15*
D03*
X124173Y-41280D02*
G54D15*
D03*
X98773Y-41280D02*
G54D15*
D03*
X509588Y-46038D02*
G54D16*
D03*
X509588Y-65037D02*
G54D16*
D03*
X542925Y-39688D02*
G54D17*
D03*
X568325Y-39688D02*
G54D17*
D03*
X687843Y-181630D02*
G54D15*
D03*
X687842Y-156230D02*
G54D15*
D03*
X687842Y-130830D02*
G54D15*
D03*
X243244Y-389279D02*
G54D15*
D03*
X243244Y-363879D02*
G54D15*
D03*
X584284Y-172064D02*
G54D15*
D03*
X558884Y-172064D02*
G54D15*
D03*
X533484Y-172064D02*
G54D15*
D03*
X508084Y-172064D02*
G54D15*
D03*
X92075Y-98426D02*
G54D14*
D03*
X66675Y-98426D02*
G54D14*
D03*
X41275Y-98426D02*
G54D14*
D03*
X192088Y-363538D02*
G54D15*
D03*
X192088Y-388938D02*
G54D15*
D03*
X166688Y-363538D02*
G54D15*
D03*
X166688Y-388938D02*
G54D15*
D03*
X141288Y-363538D02*
G54D15*
D03*
X141288Y-388938D02*
G54D15*
D03*
X115888Y-363538D02*
G54D15*
D03*
X115888Y-388937D02*
G54D15*
D03*
X90488Y-363538D02*
G54D15*
D03*
X90488Y-388937D02*
G54D15*
D03*
X200025Y-100013D02*
G54D14*
D03*
X174625Y-100013D02*
G54D14*
D03*
X149225Y-100013D02*
G54D14*
D03*
X92075Y-163513D02*
G54D14*
D03*
X66675Y-163513D02*
G54D14*
D03*
X41275Y-163513D02*
G54D14*
D03*
X200025Y-165101D02*
G54D14*
D03*
X174625Y-165101D02*
G54D14*
D03*
X149225Y-165101D02*
G54D14*
D03*
X92075Y-230188D02*
G54D14*
D03*
X66675Y-230188D02*
G54D14*
D03*
X41275Y-230188D02*
G54D14*
D03*
X200025Y-230188D02*
G54D14*
D03*
X174625Y-230188D02*
G54D14*
D03*
X149225Y-230188D02*
G54D14*
D03*
X92075Y-293688D02*
G54D14*
D03*
X66675Y-293688D02*
G54D14*
D03*
X41275Y-293688D02*
G54D14*
D03*
X200025Y-295276D02*
G54D14*
D03*
X174625Y-295276D02*
G54D14*
D03*
X149225Y-295276D02*
G54D14*
D03*
X577299Y-217717D02*
G54D18*
D03*
X577299Y-243118D02*
G54D18*
D03*
X577299Y-344718D02*
G54D18*
D03*
X501099Y-217717D02*
G54D18*
D03*
X501099Y-243118D02*
G54D18*
D03*
X501099Y-344717D02*
G54D18*
D03*
X579522Y-386376D02*
G54D15*
D03*
X554122Y-386376D02*
G54D15*
D03*
X528722Y-386376D02*
G54D15*
D03*
X503322Y-386376D02*
G54D15*
D03*
X655722Y-386376D02*
G54D15*
D03*
X630322Y-386376D02*
G54D15*
D03*
X604922Y-386376D02*
G54D15*
D03*
X690011Y-217717D02*
G54D18*
D03*
X690011Y-243118D02*
G54D18*
D03*
X690011Y-344718D02*
G54D18*
D03*
X613811Y-217717D02*
G54D18*
D03*
X613811Y-243118D02*
G54D18*
D03*
X613811Y-344717D02*
G54D18*
D03*
X635455Y-130830D02*
G54D15*
D03*
X635455Y-156230D02*
G54D15*
D03*
X635455Y-181630D02*
G54D15*
D03*
X707848Y-98931D02*
G54D15*
D03*
X682448Y-98931D02*
G54D15*
D03*
X657048Y-98931D02*
G54D15*
D03*
M02*
