; Drill file
; Format: 2.4 (00.0000)
M48
INCH
T01C0.0118
T02C0.0394
T03C0.0512
T04C0.0591
T05C0.1181
%
G05
G90
T01
X005750Y-022940
X005190Y-019060
X006940Y-015750
X009810Y-016370
X009310Y-013630
X005000Y-009060
X003500Y-008440
X000880Y-007690
X004940Y-006000
X012630Y-004120
X018310Y-004690
X017810Y-008940
X017500Y-011810
X021440Y-015690
X023060Y-020690
X016940Y-019250
X013310Y-021310
X014940Y-025500
X001560Y-017620
X025380Y-004630
X030940Y-003750
X030810Y-007690
X030810Y-011810
X034500Y-014190
X033810Y-020130
X030690Y-023440
X036500Y-023810
X037440Y-007810
T02
X001060Y-016360
X001060Y-015360
X002060Y-015360
X002060Y-016360
X003060Y-016360
X004060Y-016360
X005060Y-016360
X005060Y-015360
X004060Y-015360
X003060Y-015360
T03
X001500Y-022250
X001500Y-019250
X007500Y-019250
X009500Y-019250
X011500Y-019250
X011500Y-022250
X009500Y-022250
X007500Y-022250
X007250Y-012250
X009250Y-012250
X011250Y-012250
X014000Y-012250
X014000Y-009250
X011250Y-009250
X009250Y-009250
X007250Y-009250
X007250Y-006250
X009250Y-006250
X011250Y-006250
X014000Y-006250
X014000Y-003250
X011250Y-003250
X009250Y-003250
X007250Y-003250
X001250Y-003250
X001250Y-006250
X001250Y-009250
X001250Y-012250
X020000Y-012250
X022000Y-012250
X024000Y-012250
X026750Y-012250
X026750Y-009250
X024000Y-009250
X022000Y-009250
X020000Y-009250
X020000Y-006250
X022000Y-006250
X024000Y-006250
X026750Y-006250
X026750Y-003250
X024000Y-003250
X022000Y-003250
X020000Y-003250
X032750Y-003250
X034750Y-003250
X036750Y-003250
X036750Y-006250
X034750Y-006250
X032750Y-006250
X032750Y-009250
X034750Y-009250
X036750Y-009250
X036750Y-012250
X034750Y-012250
X032750Y-012250
X029250Y-019250
X027250Y-019250
X025250Y-019250
X025250Y-022250
X027250Y-022250
X029250Y-022250
X019250Y-022250
X019250Y-019250
T04
X003750Y-026500
X006250Y-026500
X010500Y-026500
X013250Y-026500
X025000Y-026500
X027750Y-026500
X032000Y-026500
X035000Y-026500
X034750Y-001000
X030500Y-001000
X022000Y-001000
X017500Y-001000
X009250Y-001000
X005000Y-001000
T05
X001000Y-026500
X001000Y-001000
X037250Y-001000
X037250Y-026500
M30
