%FSLAX34Y34*%
%MOMM*%
%LNSILK_BOTTOM*%
G71*
G01*
%ADD10C, 0.000*%
%LPD*%
G54D10*
X93449Y-143224D02*
X93449Y-97224D01*
X63449Y-97224D01*
X63449Y-143224D01*
X93449Y-143224D01*
G36*
X63449Y-140224D02*
X93449Y-140224D01*
X93449Y-135224D01*
X63449Y-135224D01*
X63449Y-140224D01*
G37*
G54D10*
X63449Y-140224D02*
X93449Y-140224D01*
X93449Y-135224D01*
X63449Y-135224D01*
X63449Y-140224D01*
G54D10*
X78449Y-130224D02*
X78449Y-123824D01*
X84749Y-123824D01*
X72049Y-123824D01*
X78449Y-123824D01*
X84749Y-115924D01*
X72049Y-115924D01*
X78449Y-123824D01*
G54D10*
X78449Y-115924D02*
X78449Y-109524D01*
G54D10*
X423649Y-143224D02*
X423649Y-97224D01*
X393649Y-97224D01*
X393649Y-143224D01*
X423649Y-143224D01*
G36*
X393649Y-140224D02*
X423649Y-140224D01*
X423649Y-135224D01*
X393649Y-135224D01*
X393649Y-140224D01*
G37*
G54D10*
X393649Y-140224D02*
X423649Y-140224D01*
X423649Y-135224D01*
X393649Y-135224D01*
X393649Y-140224D01*
G54D10*
X408649Y-130224D02*
X408649Y-123824D01*
X414949Y-123824D01*
X402249Y-123824D01*
X408649Y-123824D01*
X414949Y-115924D01*
X402249Y-115924D01*
X408649Y-123824D01*
G54D10*
X408649Y-115924D02*
X408649Y-109524D01*
G54D10*
X747499Y-143224D02*
X747499Y-97224D01*
X717499Y-97224D01*
X717499Y-143224D01*
X747499Y-143224D01*
G36*
X717499Y-140224D02*
X747499Y-140224D01*
X747499Y-135224D01*
X717499Y-135224D01*
X717499Y-140224D01*
G37*
G54D10*
X717499Y-140224D02*
X747499Y-140224D01*
X747499Y-135224D01*
X717499Y-135224D01*
X717499Y-140224D01*
G54D10*
X732499Y-130224D02*
X732499Y-123824D01*
X738799Y-123824D01*
X726099Y-123824D01*
X732499Y-123824D01*
X738799Y-115924D01*
X726099Y-115924D01*
X732499Y-123824D01*
G54D10*
X732499Y-115924D02*
X732499Y-109524D01*
G54D10*
X93449Y-295624D02*
X93449Y-249624D01*
X63449Y-249624D01*
X63449Y-295624D01*
X93449Y-295624D01*
G36*
X63449Y-292624D02*
X93449Y-292624D01*
X93449Y-287624D01*
X63449Y-287624D01*
X63449Y-292624D01*
G37*
G54D10*
X63449Y-292624D02*
X93449Y-292624D01*
X93449Y-287624D01*
X63449Y-287624D01*
X63449Y-292624D01*
G54D10*
X78449Y-282624D02*
X78449Y-276224D01*
X84749Y-276224D01*
X72049Y-276224D01*
X78449Y-276224D01*
X84749Y-268324D01*
X72049Y-268324D01*
X78449Y-276224D01*
G54D10*
X78449Y-268324D02*
X78449Y-261924D01*
G54D10*
X423649Y-295624D02*
X423649Y-249624D01*
X393649Y-249624D01*
X393649Y-295624D01*
X423649Y-295624D01*
G36*
X393649Y-292624D02*
X423649Y-292624D01*
X423649Y-287624D01*
X393649Y-287624D01*
X393649Y-292624D01*
G37*
G54D10*
X393649Y-292624D02*
X423649Y-292624D01*
X423649Y-287624D01*
X393649Y-287624D01*
X393649Y-292624D01*
G54D10*
X408649Y-282624D02*
X408649Y-276224D01*
X414949Y-276224D01*
X402249Y-276224D01*
X408649Y-276224D01*
X414949Y-268324D01*
X402249Y-268324D01*
X408649Y-276224D01*
G54D10*
X408649Y-268324D02*
X408649Y-261924D01*
G54D10*
X747499Y-295624D02*
X747499Y-249624D01*
X717499Y-249624D01*
X717499Y-295624D01*
X747499Y-295624D01*
G36*
X717499Y-292624D02*
X747499Y-292624D01*
X747499Y-287624D01*
X717499Y-287624D01*
X717499Y-292624D01*
G37*
G54D10*
X717499Y-292624D02*
X747499Y-292624D01*
X747499Y-287624D01*
X717499Y-287624D01*
X717499Y-292624D01*
G54D10*
X732499Y-282624D02*
X732499Y-276224D01*
X738799Y-276224D01*
X726099Y-276224D01*
X732499Y-276224D01*
X738799Y-268324D01*
X726099Y-268324D01*
X732499Y-276224D01*
G54D10*
X732499Y-268324D02*
X732499Y-261924D01*
G54D10*
X550649Y-549624D02*
X550649Y-503624D01*
X520649Y-503624D01*
X520649Y-549624D01*
X550649Y-549624D01*
G36*
X520649Y-546624D02*
X550649Y-546624D01*
X550649Y-541624D01*
X520649Y-541624D01*
X520649Y-546624D01*
G37*
G54D10*
X520649Y-546624D02*
X550649Y-546624D01*
X550649Y-541624D01*
X520649Y-541624D01*
X520649Y-546624D01*
G54D10*
X535649Y-536624D02*
X535649Y-530224D01*
X541949Y-530224D01*
X529249Y-530224D01*
X535649Y-530224D01*
X541949Y-522324D01*
X529249Y-522324D01*
X535649Y-530224D01*
G54D10*
X535649Y-522324D02*
X535649Y-515924D01*
G54D10*
X93449Y-530574D02*
X93449Y-484574D01*
X63449Y-484574D01*
X63449Y-530574D01*
X93449Y-530574D01*
G36*
X63449Y-527574D02*
X93449Y-527574D01*
X93449Y-522574D01*
X63449Y-522574D01*
X63449Y-527574D01*
G37*
G54D10*
X63449Y-527574D02*
X93449Y-527574D01*
X93449Y-522574D01*
X63449Y-522574D01*
X63449Y-527574D01*
G54D10*
X78449Y-517574D02*
X78449Y-511174D01*
X84749Y-511174D01*
X72049Y-511174D01*
X78449Y-511174D01*
X84749Y-503274D01*
X72049Y-503274D01*
X78449Y-511174D01*
G54D10*
X78449Y-503274D02*
X78449Y-496874D01*
M02*
