%FSLAX34Y34*%
%MOMM*%
%LNSMDMASK_BOTTOM*%
G71*
G01*
%ADD10R, 1.600X1.600*%
%ADD11R, 0.800X0.600*%
%ADD12R, 1.400X1.300*%
%ADD13R, 1.600X1.300*%
%ADD14R, 1.300X1.600*%
%ADD15R, 1.300X1.400*%
%LPD*%
X604599Y-83616D02*
G54D10*
D03*
X644299Y-83616D02*
G54D10*
D03*
X601034Y-282024D02*
G54D11*
D03*
X601033Y-295024D02*
G54D11*
D03*
X622033Y-288524D02*
G54D11*
D03*
X272268Y-117504D02*
G54D12*
D03*
X272268Y-98504D02*
G54D12*
D03*
X162254Y-415377D02*
G54D13*
D03*
X162254Y-396377D02*
G54D13*
D03*
X246868Y-117504D02*
G54D12*
D03*
X246868Y-98504D02*
G54D12*
D03*
X272268Y-176241D02*
G54D12*
D03*
X272268Y-157241D02*
G54D12*
D03*
X246868Y-176241D02*
G54D12*
D03*
X246868Y-157241D02*
G54D12*
D03*
X272268Y-244504D02*
G54D12*
D03*
X272268Y-225504D02*
G54D12*
D03*
X246868Y-244504D02*
G54D12*
D03*
X246868Y-225504D02*
G54D12*
D03*
X272268Y-317529D02*
G54D12*
D03*
X272268Y-298529D02*
G54D12*
D03*
X246868Y-317529D02*
G54D12*
D03*
X246868Y-298529D02*
G54D12*
D03*
G36*
X100104Y-117460D02*
X113104Y-117460D01*
X113104Y-133460D01*
X100104Y-133460D01*
X100104Y-117460D01*
G37*
X125604Y-125460D02*
G54D14*
D03*
G36*
X17554Y-117460D02*
X30554Y-117460D01*
X30554Y-133460D01*
X17554Y-133460D01*
X17554Y-117460D01*
G37*
X43054Y-125460D02*
G54D14*
D03*
G36*
X108041Y-184136D02*
X121041Y-184135D01*
X121041Y-200135D01*
X108041Y-200136D01*
X108041Y-184136D01*
G37*
X133541Y-192135D02*
G54D14*
D03*
G36*
X17554Y-184136D02*
X30554Y-184135D01*
X30554Y-200135D01*
X17554Y-200136D01*
X17554Y-184136D01*
G37*
X43054Y-192135D02*
G54D14*
D03*
G36*
X17554Y-247636D02*
X30554Y-247635D01*
X30554Y-263635D01*
X17554Y-263636D01*
X17554Y-247636D01*
G37*
X43054Y-255635D02*
G54D14*
D03*
G36*
X117566Y-249223D02*
X130566Y-249223D01*
X130566Y-265223D01*
X117566Y-265223D01*
X117566Y-249223D01*
G37*
X143066Y-257223D02*
G54D14*
D03*
G36*
X17554Y-317486D02*
X30554Y-317485D01*
X30554Y-333485D01*
X17554Y-333486D01*
X17554Y-317486D01*
G37*
X43054Y-325485D02*
G54D14*
D03*
X346394Y-135959D02*
G54D15*
D03*
X365394Y-135959D02*
G54D15*
D03*
X346394Y-162946D02*
G54D15*
D03*
X365394Y-162946D02*
G54D15*
D03*
X396093Y-260379D02*
G54D12*
D03*
X396093Y-241379D02*
G54D12*
D03*
X396093Y-311179D02*
G54D12*
D03*
X396093Y-292179D02*
G54D12*
D03*
X396093Y-361979D02*
G54D12*
D03*
X396093Y-342979D02*
G54D12*
D03*
X432606Y-219104D02*
G54D12*
D03*
X432606Y-200104D02*
G54D12*
D03*
X432606Y-269904D02*
G54D12*
D03*
X432606Y-250904D02*
G54D12*
D03*
X432606Y-320704D02*
G54D12*
D03*
X432606Y-301704D02*
G54D12*
D03*
X532368Y-263400D02*
G54D10*
D03*
X572068Y-263400D02*
G54D10*
D03*
X506732Y-294709D02*
G54D15*
D03*
X525732Y-294709D02*
G54D15*
D03*
X552769Y-310584D02*
G54D15*
D03*
X571769Y-310584D02*
G54D15*
D03*
X645080Y-263400D02*
G54D10*
D03*
X684780Y-263400D02*
G54D10*
D03*
X650246Y-297899D02*
G54D11*
D03*
X650246Y-310899D02*
G54D11*
D03*
X671246Y-304399D02*
G54D11*
D03*
X642980Y-396438D02*
G54D13*
D03*
X642980Y-415438D02*
G54D13*
D03*
X617580Y-396438D02*
G54D13*
D03*
X617580Y-415438D02*
G54D13*
D03*
X592180Y-396438D02*
G54D13*
D03*
X592180Y-415438D02*
G54D13*
D03*
X566780Y-396438D02*
G54D13*
D03*
X566780Y-415438D02*
G54D13*
D03*
X541380Y-396438D02*
G54D13*
D03*
X541380Y-415438D02*
G54D13*
D03*
X515980Y-396438D02*
G54D13*
D03*
X515980Y-415438D02*
G54D13*
D03*
X695644Y-305821D02*
G54D15*
D03*
X714644Y-305821D02*
G54D15*
D03*
X655957Y-213746D02*
G54D15*
D03*
X674957Y-213746D02*
G54D15*
D03*
X230517Y-415377D02*
G54D13*
D03*
X230516Y-396377D02*
G54D13*
D03*
X392563Y-392625D02*
G54D15*
D03*
X411563Y-392625D02*
G54D15*
D03*
M02*
