%FSLAX34Y34*%
%MOMM*%
%LNCOPPER_BOTTOM*%
G71*
G01*
%ADD10C, 1.800*%
%ADD11C, 2.000*%
%ADD12C, 6.000*%
%ADD13C, 1.000*%
%ADD14C, 0.700*%
%ADD15C, 1.800*%
%ADD16C, 2.000*%
%ADD17R, 1.600X1.600*%
%ADD18C, 1.500*%
%ADD19R, 0.800X0.600*%
%ADD20R, 1.400X1.300*%
%ADD21R, 1.600X1.300*%
%ADD22C, 0.400*%
%ADD23R, 1.300X1.600*%
%ADD24C, 0.600*%
%ADD25R, 1.300X1.400*%
%ADD26C, 0.800*%
%ADD27C, 0.154*%
%ADD28C, 0.136*%
%ADD29C, 2.200*%
%ADD30C, 0.500*%
%LPD*%
X461962Y-390400D02*
G54D10*
D03*
X461962Y-365000D02*
G54D10*
D03*
X461962Y-339600D02*
G54D10*
D03*
X461962Y-314200D02*
G54D10*
D03*
X461962Y-288800D02*
G54D10*
D03*
X461962Y-263400D02*
G54D10*
D03*
X461962Y-238000D02*
G54D10*
D03*
X461962Y-212600D02*
G54D10*
D03*
X461962Y-187200D02*
G54D10*
D03*
X461962Y-161800D02*
G54D10*
D03*
X461962Y-136400D02*
G54D10*
D03*
X461962Y-111000D02*
G54D10*
D03*
X461962Y-85600D02*
G54D10*
D03*
X461962Y-60200D02*
G54D10*
D03*
X461962Y-34800D02*
G54D10*
D03*
X309562Y-390400D02*
G54D10*
D03*
X309562Y-390400D02*
G54D10*
D03*
X309562Y-365000D02*
G54D10*
D03*
X309562Y-339600D02*
G54D10*
D03*
X309562Y-314200D02*
G54D10*
D03*
X309562Y-288800D02*
G54D10*
D03*
X309562Y-263400D02*
G54D10*
D03*
X309562Y-238000D02*
G54D10*
D03*
X309562Y-212600D02*
G54D10*
D03*
X309562Y-187200D02*
G54D10*
D03*
X309562Y-161800D02*
G54D10*
D03*
X309562Y-136400D02*
G54D10*
D03*
X309562Y-111000D02*
G54D10*
D03*
X309562Y-85600D02*
G54D10*
D03*
X309562Y-60200D02*
G54D10*
D03*
X309562Y-34800D02*
G54D10*
D03*
G54D11*
X10716Y-10591D02*
X747316Y-10591D01*
X747316Y-420166D01*
X10716Y-420166D01*
X10716Y-10591D01*
X715962Y-41150D02*
G54D12*
D03*
X715962Y-390400D02*
G54D12*
D03*
X39688Y-39562D02*
G54D12*
D03*
G54D13*
X461962Y-60200D02*
X436562Y-60200D01*
X436562Y-22100D01*
X423862Y-9400D01*
G54D13*
X309562Y-111000D02*
X334962Y-111000D01*
X388938Y-60200D01*
X436562Y-60200D01*
X585807Y-130062D02*
G54D14*
D03*
X620759Y-41282D02*
G54D15*
D03*
X646159Y-41282D02*
G54D15*
D03*
G54D13*
X620760Y-41282D02*
X620760Y-15798D01*
X614363Y-9400D01*
X585807Y-85574D02*
G54D14*
D03*
X162273Y-39693D02*
G54D16*
D03*
X136873Y-39693D02*
G54D16*
D03*
X111473Y-39693D02*
G54D16*
D03*
X604599Y-83616D02*
G54D17*
D03*
X644299Y-83616D02*
G54D17*
D03*
G54D13*
X646160Y-41282D02*
X646112Y-58738D01*
X646112Y-83741D01*
G54D13*
X604996Y-83219D02*
X598533Y-85600D01*
X585807Y-85574D01*
X522914Y-43776D02*
G54D14*
D03*
X555625Y-38100D02*
G54D18*
D03*
X581025Y-38100D02*
G54D18*
D03*
G54D13*
X581025Y-38100D02*
X581025Y-11112D01*
X601034Y-282024D02*
G54D19*
D03*
X601033Y-295024D02*
G54D19*
D03*
X622033Y-288524D02*
G54D19*
D03*
X272268Y-117504D02*
G54D20*
D03*
X272268Y-98504D02*
G54D20*
D03*
X700543Y-180043D02*
G54D16*
D03*
X700542Y-154643D02*
G54D16*
D03*
X700542Y-129243D02*
G54D16*
D03*
X255944Y-387691D02*
G54D16*
D03*
X255944Y-362291D02*
G54D16*
D03*
X162254Y-415377D02*
G54D21*
D03*
X162254Y-396377D02*
G54D21*
D03*
X596984Y-170476D02*
G54D16*
D03*
X571584Y-170476D02*
G54D16*
D03*
X546184Y-170476D02*
G54D16*
D03*
X520784Y-170476D02*
G54D16*
D03*
G54D13*
X522288Y-42862D02*
X522288Y-12700D01*
G54D13*
X585788Y-130175D02*
X563562Y-122238D01*
X563562Y-69850D01*
X581025Y-38100D01*
X104775Y-96838D02*
G54D15*
D03*
X79375Y-96838D02*
G54D15*
D03*
X53975Y-96838D02*
G54D15*
D03*
X136525Y-361950D02*
G54D16*
D03*
X136525Y-387350D02*
G54D16*
D03*
X111125Y-361950D02*
G54D16*
D03*
X111125Y-387350D02*
G54D16*
D03*
X85725Y-361950D02*
G54D16*
D03*
X85725Y-387350D02*
G54D16*
D03*
X60325Y-361950D02*
G54D16*
D03*
X60325Y-387350D02*
G54D16*
D03*
X34925Y-361950D02*
G54D16*
D03*
X34925Y-387350D02*
G54D16*
D03*
X212725Y-98426D02*
G54D15*
D03*
X187325Y-98426D02*
G54D15*
D03*
X161925Y-98426D02*
G54D15*
D03*
X104775Y-161926D02*
G54D15*
D03*
X79375Y-161926D02*
G54D15*
D03*
X53975Y-161926D02*
G54D15*
D03*
X212725Y-163513D02*
G54D15*
D03*
X187325Y-163513D02*
G54D15*
D03*
X161925Y-163513D02*
G54D15*
D03*
X104775Y-228601D02*
G54D15*
D03*
X79375Y-228601D02*
G54D15*
D03*
X53975Y-228601D02*
G54D15*
D03*
X212725Y-228601D02*
G54D15*
D03*
X187325Y-228601D02*
G54D15*
D03*
X161925Y-228601D02*
G54D15*
D03*
X104775Y-292101D02*
G54D15*
D03*
X79375Y-292101D02*
G54D15*
D03*
X53975Y-292101D02*
G54D15*
D03*
X212725Y-293688D02*
G54D15*
D03*
X187325Y-293688D02*
G54D15*
D03*
X161925Y-293688D02*
G54D15*
D03*
G54D22*
X255588Y-387350D02*
X255588Y-415925D01*
X258762Y-422275D01*
G54D22*
X273050Y-98425D02*
X269875Y-84138D01*
X122238Y-84138D01*
X107950Y-98425D01*
G54D22*
X273050Y-117475D02*
X295275Y-131762D01*
X295275Y-171450D01*
X309562Y-187325D01*
X246868Y-117504D02*
G54D20*
D03*
X246868Y-98504D02*
G54D20*
D03*
G54D22*
X311150Y-212725D02*
X307975Y-212725D01*
X287338Y-193675D01*
X287338Y-136525D01*
X254000Y-133350D01*
X247650Y-117475D01*
G54D22*
X247650Y-98425D02*
X212725Y-98425D01*
X272268Y-176241D02*
G54D20*
D03*
X272268Y-157241D02*
G54D20*
D03*
X246868Y-176241D02*
G54D20*
D03*
X246868Y-157241D02*
G54D20*
D03*
G54D22*
X309562Y-238125D02*
X307975Y-238125D01*
X293688Y-223838D01*
X293688Y-211138D01*
X279400Y-196850D01*
X279400Y-182562D01*
X273050Y-176212D01*
G54D22*
X309562Y-263525D02*
X306388Y-263525D01*
X287338Y-244475D01*
X287338Y-214312D01*
X266700Y-193675D01*
X263525Y-193675D01*
X246062Y-176212D01*
G54D22*
X247650Y-157162D02*
X219075Y-157162D01*
X212725Y-163512D01*
G54D22*
X273050Y-157162D02*
X273050Y-150812D01*
X265112Y-142875D01*
X128588Y-142875D01*
X107950Y-163512D01*
X272268Y-244504D02*
G54D20*
D03*
X272268Y-225504D02*
G54D20*
D03*
X246868Y-244504D02*
G54D20*
D03*
X246868Y-225504D02*
G54D20*
D03*
G54D22*
X309562Y-288925D02*
X298450Y-288925D01*
X273050Y-263525D01*
X273050Y-246062D01*
G54D22*
X309562Y-314325D02*
X300038Y-314325D01*
X288925Y-303212D01*
X288925Y-288925D01*
X246062Y-246062D01*
G54D22*
X247650Y-225425D02*
X217488Y-225425D01*
X212725Y-230188D01*
G54D22*
X271462Y-225425D02*
X271462Y-212725D01*
X268288Y-209550D01*
X128588Y-209550D01*
X107950Y-230188D01*
X272268Y-317529D02*
G54D20*
D03*
X272268Y-298529D02*
G54D20*
D03*
X246868Y-317529D02*
G54D20*
D03*
X246868Y-298529D02*
G54D20*
D03*
G54D22*
X309562Y-339725D02*
X293688Y-339725D01*
X273050Y-319088D01*
G54D22*
X212725Y-292100D02*
X239712Y-292100D01*
X246062Y-298450D01*
G54D22*
X273050Y-300038D02*
X273050Y-292100D01*
X254000Y-273050D01*
X127000Y-273050D01*
X107950Y-292100D01*
G54D22*
X309562Y-390525D02*
X300038Y-390525D01*
X277812Y-368300D01*
X277812Y-349250D01*
X247650Y-319088D01*
X161945Y-396724D02*
G54D14*
D03*
G36*
X100104Y-117460D02*
X113104Y-117460D01*
X113104Y-133460D01*
X100104Y-133460D01*
X100104Y-117460D01*
G37*
X125604Y-125460D02*
G54D23*
D03*
G36*
X17554Y-117460D02*
X30554Y-117460D01*
X30554Y-133460D01*
X17554Y-133460D01*
X17554Y-117460D01*
G37*
X43054Y-125460D02*
G54D23*
D03*
G54D24*
X17462Y-142875D02*
X88900Y-142875D01*
X106362Y-125412D01*
X125432Y-123674D02*
G54D14*
D03*
G54D24*
X53975Y-96838D02*
X53975Y-117475D01*
X44450Y-125412D01*
G36*
X108041Y-184136D02*
X121041Y-184135D01*
X121041Y-200135D01*
X108041Y-200136D01*
X108041Y-184136D01*
G37*
X133541Y-192135D02*
G54D23*
D03*
G36*
X17554Y-184136D02*
X30554Y-184135D01*
X30554Y-200135D01*
X17554Y-200136D01*
X17554Y-184136D01*
G37*
X43054Y-192135D02*
G54D23*
D03*
G54D24*
X53975Y-161925D02*
X53975Y-182562D01*
X42862Y-192088D01*
G54D24*
X17462Y-209550D02*
X98425Y-209550D01*
X114300Y-193675D01*
X134957Y-191937D02*
G54D14*
D03*
G36*
X17554Y-247636D02*
X30554Y-247635D01*
X30554Y-263635D01*
X17554Y-263636D01*
X17554Y-247636D01*
G37*
X43054Y-255635D02*
G54D23*
D03*
G36*
X117566Y-249223D02*
X130566Y-249223D01*
X130566Y-265223D01*
X117566Y-265223D01*
X117566Y-249223D01*
G37*
X143066Y-257223D02*
G54D23*
D03*
X146070Y-257024D02*
G54D14*
D03*
G54D24*
X53975Y-228600D02*
X53975Y-246062D01*
X42862Y-255588D01*
G54D24*
X17462Y-271462D02*
X107950Y-271462D01*
X122238Y-257175D01*
G36*
X17554Y-317486D02*
X30554Y-317485D01*
X30554Y-333485D01*
X17554Y-333486D01*
X17554Y-317486D01*
G37*
X43054Y-325485D02*
G54D23*
D03*
G54D24*
X53975Y-292100D02*
X53975Y-314325D01*
X42862Y-325438D01*
G54D22*
X111125Y-39688D02*
X111125Y-28575D01*
X95250Y-12700D01*
G54D22*
X161925Y-39688D02*
X247650Y-39688D01*
X293688Y-85725D01*
X293688Y-120650D01*
X309562Y-136525D01*
X233382Y-61762D02*
G54D14*
D03*
G54D22*
X136525Y-39688D02*
X136525Y-58738D01*
X139700Y-61912D01*
X233362Y-61912D01*
X346394Y-135959D02*
G54D25*
D03*
X365394Y-135959D02*
G54D25*
D03*
X346394Y-162946D02*
G54D25*
D03*
X365394Y-162946D02*
G54D25*
D03*
G54D22*
X311150Y-136525D02*
X346075Y-136525D01*
G54D22*
X311150Y-161925D02*
X346075Y-161925D01*
G54D22*
X365125Y-165100D02*
X365125Y-138112D01*
X365125Y-134938D01*
X385762Y-114300D01*
X449262Y-114300D01*
X461962Y-111125D01*
G54D22*
X461962Y-60325D02*
X469900Y-60325D01*
X498475Y-88900D01*
X498475Y-153988D01*
X520700Y-171450D01*
G54D22*
X596900Y-171450D02*
X596900Y-184150D01*
X585788Y-195262D01*
X469900Y-195262D01*
X461962Y-187325D01*
G54D26*
X34925Y-387350D02*
X34925Y-415925D01*
X31750Y-419100D01*
G54D27*
X358606Y-387288D02*
X355828Y-388399D01*
X354439Y-390621D01*
X354439Y-392844D01*
X355828Y-395066D01*
X358606Y-396177D01*
X372495Y-396177D01*
X375272Y-395066D01*
X376661Y-392844D01*
X376661Y-390621D01*
X375272Y-388399D01*
X372495Y-387288D01*
G54D27*
X357772Y-376177D02*
X363328Y-376177D01*
X366106Y-377288D01*
X366939Y-379511D01*
X366106Y-381733D01*
X363328Y-382844D01*
X357772Y-382844D01*
X354995Y-381733D01*
X354439Y-379511D01*
X354995Y-377288D01*
X357772Y-376177D01*
G54D27*
X354439Y-371733D02*
X366939Y-371733D01*
G54D27*
X364717Y-371733D02*
X366939Y-369511D01*
X366106Y-367289D01*
X364161Y-366177D01*
X354439Y-366177D01*
G54D27*
X364717Y-366177D02*
X366939Y-363955D01*
X366106Y-361733D01*
X364161Y-360622D01*
X354439Y-360622D01*
G54D27*
X354439Y-356178D02*
X366939Y-356178D01*
G54D27*
X364717Y-356178D02*
X366939Y-353956D01*
X366106Y-351734D01*
X364161Y-350622D01*
X354439Y-350622D01*
G54D27*
X364717Y-350622D02*
X366939Y-348400D01*
X366106Y-346178D01*
X364161Y-345067D01*
X354439Y-345067D01*
G54D27*
X366939Y-333956D02*
X354439Y-333956D01*
G54D27*
X357217Y-333956D02*
X354995Y-335067D01*
X354439Y-337290D01*
X354995Y-339512D01*
X357217Y-340623D01*
X366939Y-340623D01*
G54D27*
X376661Y-327290D02*
X355828Y-327290D01*
X354439Y-326179D01*
X354995Y-325068D01*
G54D27*
X366939Y-329512D02*
X366939Y-325068D01*
G54D27*
X365550Y-320624D02*
X366939Y-318402D01*
X366939Y-315735D01*
X364161Y-313957D01*
X354439Y-313957D01*
G54D27*
X358606Y-313957D02*
X361383Y-315068D01*
X361939Y-317291D01*
X361383Y-319513D01*
X358606Y-320624D01*
X355828Y-320180D01*
X354439Y-318402D01*
X354439Y-317291D01*
X354439Y-316846D01*
X355828Y-315068D01*
X358606Y-313957D01*
G54D27*
X376661Y-307291D02*
X355828Y-307291D01*
X354439Y-306180D01*
X354995Y-305069D01*
G54D27*
X366939Y-309513D02*
X366939Y-305069D01*
G54D27*
X357772Y-293958D02*
X363328Y-293958D01*
X366106Y-295069D01*
X366939Y-297292D01*
X366106Y-299514D01*
X363328Y-300625D01*
X357772Y-300625D01*
X354995Y-299514D01*
X354439Y-297292D01*
X354995Y-295069D01*
X357772Y-293958D01*
G54D27*
X354439Y-289514D02*
X366939Y-289514D01*
G54D27*
X364161Y-289514D02*
X366939Y-287292D01*
X366939Y-285070D01*
G54D27*
X358606Y-267071D02*
X355828Y-268182D01*
X354439Y-270404D01*
X354439Y-272627D01*
X355828Y-274849D01*
X358606Y-275960D01*
X372495Y-275960D01*
X375272Y-274849D01*
X376661Y-272627D01*
X376661Y-270404D01*
X375272Y-268182D01*
X372495Y-267071D01*
G54D27*
X357772Y-255960D02*
X363328Y-255960D01*
X366106Y-257071D01*
X366939Y-259294D01*
X366106Y-261516D01*
X363328Y-262627D01*
X357772Y-262627D01*
X354995Y-261516D01*
X354439Y-259294D01*
X354995Y-257071D01*
X357772Y-255960D01*
G54D27*
X354439Y-251516D02*
X366939Y-251516D01*
G54D27*
X364161Y-251516D02*
X366106Y-250405D01*
X366939Y-248183D01*
X366106Y-245960D01*
X364161Y-244849D01*
X354439Y-244849D01*
G54D27*
X376661Y-238183D02*
X355828Y-238183D01*
X354439Y-237072D01*
X354995Y-235961D01*
G54D27*
X366939Y-240405D02*
X366939Y-235961D01*
G54D27*
X354439Y-231517D02*
X366939Y-231517D01*
G54D27*
X364161Y-231517D02*
X366939Y-229295D01*
X366939Y-227073D01*
G54D27*
X357772Y-215962D02*
X363328Y-215962D01*
X366106Y-217073D01*
X366939Y-219296D01*
X366106Y-221518D01*
X363328Y-222629D01*
X357772Y-222629D01*
X354995Y-221518D01*
X354439Y-219296D01*
X354995Y-217073D01*
X357772Y-215962D01*
G54D27*
X354439Y-211518D02*
X376661Y-211518D01*
G54D27*
X354439Y-207074D02*
X376661Y-207074D01*
G54D27*
X355828Y-195963D02*
X354439Y-197741D01*
X354439Y-199963D01*
X355828Y-202186D01*
X358606Y-202630D01*
X363328Y-202630D01*
X366106Y-201519D01*
X366939Y-199297D01*
X366106Y-197074D01*
X364161Y-195963D01*
X361383Y-195963D01*
X361383Y-202630D01*
G54D27*
X354439Y-191519D02*
X366939Y-191519D01*
G54D27*
X364161Y-191519D02*
X366939Y-189297D01*
X366939Y-187075D01*
G54D28*
X341626Y-394590D02*
X330626Y-390678D01*
X341626Y-386767D01*
G54D28*
X346515Y-382856D02*
X348960Y-381879D01*
X350182Y-379923D01*
X350182Y-377968D01*
X348960Y-376012D01*
X346515Y-375034D01*
X344071Y-375034D01*
X341626Y-376012D01*
X340404Y-377968D01*
X339182Y-376012D01*
X336738Y-375034D01*
X334293Y-375034D01*
X331849Y-376012D01*
X330626Y-377968D01*
X330626Y-379923D01*
X331849Y-381879D01*
X334293Y-382856D01*
G54D28*
X330626Y-370341D02*
X330626Y-371124D01*
X331604Y-371124D01*
X331604Y-370341D01*
X330626Y-370341D01*
X330626Y-371124D01*
G54D28*
X346515Y-358608D02*
X334293Y-358608D01*
X331849Y-359586D01*
X330626Y-361542D01*
X330626Y-363497D01*
X331849Y-365453D01*
X334293Y-366430D01*
X346515Y-366430D01*
X348960Y-365453D01*
X350182Y-363497D01*
X350182Y-361542D01*
X348960Y-359586D01*
X346515Y-358608D01*
G54D28*
X330626Y-350590D02*
X350182Y-350590D01*
G54D28*
X338449Y-350590D02*
X340893Y-349613D01*
X341626Y-347657D01*
X340893Y-345702D01*
X338449Y-344724D01*
X333560Y-344724D01*
X331115Y-345702D01*
X330626Y-347657D01*
X331115Y-349613D01*
X333560Y-350590D01*
G54D28*
X341626Y-340812D02*
X330626Y-336901D01*
X341626Y-332990D01*
G54D28*
X330626Y-336901D02*
X326960Y-337879D01*
X325738Y-338857D01*
X325738Y-339835D01*
G54D28*
X340404Y-321061D02*
X337960Y-318128D01*
X335515Y-317150D01*
X330626Y-317150D01*
G54D28*
X330626Y-324972D02*
X350182Y-324972D01*
X350182Y-320084D01*
X348960Y-318128D01*
X346515Y-317150D01*
X344071Y-317150D01*
X341626Y-318128D01*
X340404Y-320084D01*
X340404Y-324972D01*
G54D28*
X346515Y-313240D02*
X348960Y-312262D01*
X350182Y-310306D01*
X350182Y-308351D01*
X348960Y-306395D01*
X346515Y-305417D01*
X344071Y-305417D01*
X341626Y-306395D01*
X340404Y-308351D01*
X339182Y-306395D01*
X336738Y-305417D01*
X334293Y-305417D01*
X331849Y-306395D01*
X330626Y-308351D01*
X330626Y-310306D01*
X331849Y-312262D01*
X334293Y-313240D01*
G54D28*
X330626Y-297595D02*
X350182Y-297595D01*
G54D28*
X350182Y-301506D02*
X350182Y-293684D01*
G54D28*
X350182Y-281951D02*
X334293Y-281951D01*
X331849Y-282929D01*
X330626Y-284885D01*
X330626Y-286840D01*
X331849Y-288796D01*
X334293Y-289774D01*
G54D28*
X350182Y-278040D02*
X330626Y-278040D01*
X330626Y-271196D01*
G54D28*
X350182Y-260245D02*
X348960Y-262201D01*
X346515Y-263178D01*
X334293Y-263178D01*
X331849Y-262201D01*
X330626Y-260245D01*
G54D28*
X334293Y-248512D02*
X331849Y-249490D01*
X330626Y-251446D01*
X330626Y-253401D01*
X331849Y-255357D01*
X334293Y-256334D01*
X346515Y-256334D01*
X348960Y-255357D01*
X350182Y-253401D01*
X350182Y-251446D01*
X348960Y-249490D01*
X346515Y-248512D01*
G54D28*
X350182Y-244602D02*
X348960Y-242646D01*
X346515Y-241668D01*
X334293Y-241668D01*
X331849Y-242646D01*
X330626Y-244602D01*
G54D28*
X330626Y-225828D02*
X330626Y-233650D01*
X331849Y-233650D01*
X334293Y-232673D01*
X341626Y-226806D01*
X344071Y-225828D01*
X346515Y-225828D01*
X348960Y-226806D01*
X350182Y-228762D01*
X350182Y-230717D01*
X348960Y-232673D01*
X346515Y-233650D01*
G54D28*
X346515Y-214095D02*
X334293Y-214095D01*
X331849Y-215073D01*
X330626Y-217029D01*
X330626Y-218984D01*
X331849Y-220940D01*
X334293Y-221918D01*
X346515Y-221918D01*
X348960Y-220940D01*
X350182Y-218984D01*
X350182Y-217029D01*
X348960Y-215073D01*
X346515Y-214095D01*
G54D28*
X330626Y-202362D02*
X330626Y-210184D01*
X331849Y-210184D01*
X334293Y-209207D01*
X341626Y-203340D01*
X344071Y-202362D01*
X346515Y-202362D01*
X348960Y-203340D01*
X350182Y-205296D01*
X350182Y-207251D01*
X348960Y-209207D01*
X346515Y-210184D01*
G54D28*
X330626Y-190629D02*
X330626Y-198452D01*
X331849Y-198452D01*
X334293Y-197474D01*
X341626Y-191607D01*
X344071Y-190629D01*
X346515Y-190629D01*
X348960Y-191607D01*
X350182Y-193563D01*
X350182Y-195518D01*
X348960Y-197474D01*
X346515Y-198452D01*
X589999Y-216130D02*
G54D29*
D03*
X589999Y-241530D02*
G54D29*
D03*
X589999Y-343130D02*
G54D29*
D03*
X513799Y-216130D02*
G54D29*
D03*
X513799Y-241530D02*
G54D29*
D03*
X513799Y-343130D02*
G54D29*
D03*
X592222Y-384789D02*
G54D16*
D03*
X566822Y-384789D02*
G54D16*
D03*
X541422Y-384789D02*
G54D16*
D03*
X516022Y-384788D02*
G54D16*
D03*
X668422Y-384789D02*
G54D16*
D03*
X643022Y-384789D02*
G54D16*
D03*
X617622Y-384789D02*
G54D16*
D03*
X396093Y-260379D02*
G54D20*
D03*
X396093Y-241379D02*
G54D20*
D03*
X396093Y-311179D02*
G54D20*
D03*
X396093Y-292179D02*
G54D20*
D03*
X396093Y-361979D02*
G54D20*
D03*
X396093Y-342979D02*
G54D20*
D03*
X432606Y-219104D02*
G54D20*
D03*
X432606Y-200104D02*
G54D20*
D03*
X432606Y-269904D02*
G54D20*
D03*
X432606Y-250904D02*
G54D20*
D03*
X432606Y-320704D02*
G54D20*
D03*
X432606Y-301704D02*
G54D20*
D03*
G54D22*
X365125Y-163512D02*
X376238Y-163512D01*
X395288Y-182562D01*
X395288Y-241300D01*
X396875Y-242888D01*
G54D22*
X433388Y-200025D02*
X412750Y-200025D01*
X395288Y-182562D01*
G54D22*
X433388Y-219075D02*
X433388Y-250825D01*
G54D22*
X433388Y-269875D02*
X433388Y-300038D01*
X431800Y-301625D01*
G54D22*
X395288Y-260350D02*
X395288Y-293688D01*
X396875Y-295275D01*
G54D22*
X395288Y-311150D02*
X395288Y-342900D01*
X396875Y-344488D01*
G54D22*
X461962Y-238125D02*
X452438Y-238125D01*
X433388Y-219075D01*
X395307Y-260199D02*
G54D14*
D03*
G54D22*
X395288Y-342900D02*
X412750Y-342900D01*
X447675Y-377825D01*
X498475Y-377825D01*
X504825Y-369888D01*
X528638Y-369888D01*
X541338Y-384175D01*
G54D22*
X433388Y-322262D02*
X433388Y-338138D01*
X447675Y-352425D01*
X492125Y-352425D01*
X501650Y-361950D01*
X569912Y-361950D01*
X592138Y-384175D01*
G54D22*
X433388Y-303212D02*
X439738Y-303212D01*
X446088Y-309562D01*
X446088Y-320675D01*
X452438Y-327025D01*
X546100Y-327025D01*
X581025Y-361950D01*
X595312Y-361950D01*
X617538Y-384175D01*
G54D22*
X668338Y-384175D02*
X668338Y-415925D01*
X671512Y-419100D01*
X702711Y-216130D02*
G54D29*
D03*
X702711Y-241530D02*
G54D29*
D03*
X702711Y-343130D02*
G54D29*
D03*
X626511Y-216130D02*
G54D29*
D03*
X626511Y-241530D02*
G54D29*
D03*
X626511Y-343130D02*
G54D29*
D03*
X648155Y-129243D02*
G54D16*
D03*
X648155Y-154642D02*
G54D16*
D03*
X648155Y-180042D02*
G54D16*
D03*
X585807Y-107837D02*
G54D14*
D03*
X532368Y-263400D02*
G54D17*
D03*
X572068Y-263400D02*
G54D17*
D03*
G54D22*
X585788Y-107950D02*
X590550Y-107950D01*
X611188Y-128588D01*
X611188Y-179388D01*
X588962Y-201612D01*
X554038Y-201612D01*
X514350Y-241300D01*
G54D22*
X608012Y-182562D02*
X608012Y-223838D01*
X627062Y-242888D01*
G54D22*
X514350Y-241300D02*
X514350Y-247650D01*
X530225Y-263525D01*
X506732Y-294709D02*
G54D25*
D03*
X525732Y-294709D02*
G54D25*
D03*
X552769Y-310584D02*
G54D25*
D03*
X571769Y-310584D02*
G54D25*
D03*
G54D22*
X461962Y-288925D02*
X498475Y-288925D01*
X506412Y-296862D01*
G54D22*
X461962Y-314325D02*
X547688Y-314325D01*
X552450Y-309562D01*
X645080Y-263400D02*
G54D17*
D03*
X684780Y-263400D02*
G54D17*
D03*
X650246Y-297899D02*
G54D19*
D03*
X650246Y-310899D02*
G54D19*
D03*
X671246Y-304399D02*
G54D19*
D03*
G54D22*
X527050Y-295275D02*
X600075Y-295275D01*
X601662Y-295275D01*
G54D22*
X623888Y-288925D02*
X623888Y-273050D01*
X590550Y-241300D01*
G54D22*
X590550Y-241300D02*
X590550Y-244475D01*
X573088Y-261938D01*
G54D22*
X573088Y-311150D02*
X650875Y-311150D01*
G54D22*
X671512Y-304800D02*
X671512Y-293688D01*
X685800Y-279400D01*
X685800Y-258762D01*
X703262Y-241300D01*
G54D22*
X627062Y-241300D02*
X627062Y-244475D01*
X642938Y-260350D01*
X650895Y-298300D02*
G54D30*
D03*
X601682Y-282424D02*
G54D30*
D03*
X642980Y-396438D02*
G54D21*
D03*
X642980Y-415438D02*
G54D21*
D03*
X617580Y-396438D02*
G54D21*
D03*
X617580Y-415438D02*
G54D21*
D03*
X592180Y-396438D02*
G54D21*
D03*
X592180Y-415438D02*
G54D21*
D03*
X566780Y-396438D02*
G54D21*
D03*
X566780Y-415438D02*
G54D21*
D03*
X541380Y-396438D02*
G54D21*
D03*
X541380Y-415438D02*
G54D21*
D03*
X515980Y-396438D02*
G54D21*
D03*
X515980Y-415438D02*
G54D21*
D03*
X720548Y-97343D02*
G54D16*
D03*
X695148Y-97343D02*
G54D16*
D03*
X669748Y-97343D02*
G54D16*
D03*
G54D22*
X591344Y-107950D02*
X655638Y-107950D01*
X669925Y-96838D01*
X695644Y-305821D02*
G54D25*
D03*
X714644Y-305821D02*
G54D25*
D03*
G54D22*
X671512Y-304800D02*
X693738Y-304800D01*
X695325Y-306388D01*
G54D22*
X720725Y-93662D02*
X720725Y-300038D01*
X714375Y-306388D01*
X658832Y-231624D02*
G54D30*
D03*
X655957Y-213746D02*
G54D25*
D03*
X674957Y-213746D02*
G54D25*
D03*
G54D22*
X658812Y-231775D02*
X658812Y-217488D01*
X654050Y-212725D01*
G54D22*
X695325Y-95250D02*
X695325Y-100012D01*
X674688Y-120650D01*
X674688Y-214312D01*
X198502Y-345166D02*
G54D15*
D03*
X198502Y-370566D02*
G54D15*
D03*
X198502Y-395966D02*
G54D15*
D03*
X230517Y-415377D02*
G54D21*
D03*
X230516Y-396377D02*
G54D21*
D03*
X395307Y-363387D02*
G54D14*
D03*
G54D24*
X198438Y-395288D02*
X225425Y-395288D01*
X230188Y-396875D01*
X392563Y-392625D02*
G54D25*
D03*
X411563Y-392625D02*
G54D25*
D03*
G54D22*
X461962Y-390525D02*
X414338Y-390525D01*
X392132Y-393549D02*
G54D14*
D03*
M02*
