; Drill file
; Format: 2.4 (00.0000)
M48
INCH
T01C0.0079
T02C0.0236
T03C0.0315
T04C0.0394
T05C0.1575
%
G05
G90
T01
X006380Y-015620
X005750Y-010120
X005310Y-007560
X004940Y-004870
X009190Y-002430
X015560Y-010240
X015560Y-014310
X015440Y-015490
X023690Y-011120
X025630Y-011740
X025940Y-009120
X023060Y-005120
X023060Y-004250
X023060Y-003370
X020590Y-001720
T02
X021880Y-001500
X022880Y-001500
T03
X002120Y-011500
X003120Y-011500
X004120Y-011500
X006370Y-011560
X007380Y-011560
X008380Y-011560
X007820Y-013590
X007820Y-014590
X007820Y-015590
X007380Y-009000
X008380Y-009000
X006370Y-009000
X004120Y-009000
X003120Y-009000
X002120Y-009000
X002120Y-006380
X003120Y-006380
X004120Y-006380
X006370Y-006440
X007380Y-006440
X008380Y-006440
X008380Y-003880
X007380Y-003880
X006370Y-003880
X004120Y-003810
X003120Y-003810
X002120Y-003810
X020230Y-008510
X020230Y-009510
X023230Y-009510
X023230Y-008510
X024670Y-008510
X024670Y-009510
X027670Y-009510
X027670Y-008510
X027670Y-013510
X024670Y-013510
X023230Y-013510
X020230Y-013510
X024440Y-001630
X025440Y-001630
T04
X001380Y-015250
X001380Y-014250
X002370Y-014250
X002370Y-015250
X003380Y-015250
X004380Y-015250
X004380Y-014250
X003380Y-014250
X005370Y-014250
X005370Y-015250
X010080Y-015260
X010080Y-014260
X012190Y-014370
X012190Y-015370
X012190Y-013370
X012190Y-012370
X012190Y-011370
X012190Y-010370
X012190Y-009370
X012190Y-008370
X012190Y-007370
X012190Y-006370
X012190Y-005370
X012190Y-004370
X012190Y-003370
X012190Y-002370
X012190Y-001370
X006390Y-001560
X005390Y-001560
X004390Y-001560
X018190Y-001370
X018190Y-002370
X018190Y-003370
X018190Y-004370
X018190Y-005370
X018190Y-006370
X018190Y-007370
X018190Y-008370
X018190Y-009370
X018190Y-010370
X018190Y-011370
X018190Y-012370
X018190Y-013370
X018190Y-014370
X018190Y-015370
X020320Y-015150
X021320Y-015150
X022320Y-015150
X023320Y-015150
X024320Y-015150
X025320Y-015150
X026320Y-015150
X025520Y-007090
X025520Y-006090
X025520Y-005090
X026370Y-003830
X027370Y-003830
X028370Y-003830
X027580Y-005090
X027580Y-006090
X027580Y-007090
X023500Y-006710
X022500Y-006710
X021500Y-006710
X020500Y-006710
T05
X001560Y-001560
X028190Y-001620
X028190Y-015370
M30
