%FSLAX34Y34*%
%MOMM*%
%LNSILK_BOTTOM*%
G71*
G01*
%ADD10C, 0.000*%
%ADD11C, 0.111*%
%ADD12C, 0.150*%
%ADD13C, 0.095*%
%LPD*%
G54D10*
X601099Y-68616D02*
X647099Y-68616D01*
X647099Y-98616D01*
X601099Y-98616D01*
X601099Y-68616D01*
G36*
X604099Y-98616D02*
X604099Y-68616D01*
X609099Y-68616D01*
X609099Y-98616D01*
X604099Y-98616D01*
G37*
G54D10*
X604099Y-98616D02*
X604099Y-68616D01*
X609099Y-68616D01*
X609099Y-98616D01*
X604099Y-98616D01*
G54D10*
X614099Y-83616D02*
X620499Y-83616D01*
X620499Y-77316D01*
X620499Y-90016D01*
X620499Y-83616D01*
X628399Y-77316D01*
X628399Y-90016D01*
X620499Y-83616D01*
G54D10*
X628399Y-83616D02*
X634799Y-83616D01*
G54D11*
X643732Y-64582D02*
X643266Y-65360D01*
X642332Y-65749D01*
X641399Y-65749D01*
X640466Y-65360D01*
X639999Y-64582D01*
X639999Y-63804D01*
X640466Y-63026D01*
X641399Y-62638D01*
X642332Y-62638D01*
X643266Y-62249D01*
X643732Y-61471D01*
X643732Y-60693D01*
X643266Y-59915D01*
X642332Y-59526D01*
X641399Y-59526D01*
X640466Y-59915D01*
X639999Y-60693D01*
G54D11*
X637821Y-64582D02*
X637355Y-65360D01*
X636421Y-65749D01*
X635488Y-65749D01*
X634555Y-65360D01*
X634088Y-64582D01*
X634088Y-63804D01*
X634555Y-63026D01*
X635488Y-62638D01*
X636421Y-62638D01*
X637355Y-62249D01*
X637821Y-61471D01*
X637821Y-60693D01*
X637355Y-59915D01*
X636421Y-59526D01*
X635488Y-59526D01*
X634555Y-59915D01*
X634088Y-60693D01*
G54D11*
X631910Y-61860D02*
X629577Y-59526D01*
X629577Y-65749D01*
G54D11*
X624599Y-65749D02*
X624599Y-59526D01*
X627399Y-63415D01*
X627399Y-64193D01*
X623666Y-64193D01*
G54D12*
X616534Y-278524D02*
X606534Y-278524D01*
X606533Y-298524D01*
X616533Y-298524D01*
X616534Y-278524D01*
G54D13*
X630502Y-323120D02*
X635835Y-323120D01*
X635835Y-321120D01*
X635502Y-320320D01*
X634835Y-319920D01*
X634168Y-319920D01*
X633502Y-320320D01*
X633168Y-321120D01*
X632835Y-320320D01*
X632168Y-319920D01*
X631502Y-319920D01*
X630835Y-320320D01*
X630502Y-321120D01*
X630502Y-323120D01*
G54D13*
X633168Y-323120D02*
X633168Y-321120D01*
G54D13*
X631502Y-314853D02*
X630835Y-315253D01*
X630502Y-316053D01*
X630502Y-316853D01*
X630835Y-317653D01*
X631502Y-318053D01*
X634835Y-318053D01*
X635502Y-317653D01*
X635835Y-316853D01*
X635835Y-316053D01*
X635502Y-315253D01*
X634835Y-314853D01*
G54D13*
X633168Y-310986D02*
X633168Y-311786D01*
X633502Y-312586D01*
X634168Y-312986D01*
X634835Y-312986D01*
X635502Y-312586D01*
X635835Y-311786D01*
X635835Y-310986D01*
X635502Y-310186D01*
X634835Y-309786D01*
X634168Y-309786D01*
X633502Y-310186D01*
X633168Y-310986D01*
X632835Y-310186D01*
X632168Y-309786D01*
X631502Y-309786D01*
X630835Y-310186D01*
X630502Y-310986D01*
X630502Y-311786D01*
X630835Y-312586D01*
X631502Y-312986D01*
X632168Y-312986D01*
X632835Y-312586D01*
X633168Y-311786D01*
G54D13*
X630502Y-305519D02*
X635835Y-305519D01*
X632502Y-307919D01*
X631835Y-307919D01*
X631835Y-304719D01*
G54D13*
X635835Y-302852D02*
X635835Y-299652D01*
X635168Y-300052D01*
X634168Y-300852D01*
X632835Y-301652D01*
X631835Y-302052D01*
X630502Y-302052D01*
G54D12*
X262268Y-127004D02*
X282268Y-127004D01*
X282268Y-89004D01*
X262268Y-89004D01*
X262268Y-127004D01*
G54D11*
X266827Y-82667D02*
X269160Y-80334D01*
X262938Y-80334D01*
G54D11*
X267994Y-74422D02*
X264105Y-74422D01*
X263327Y-74889D01*
X262938Y-75822D01*
X262938Y-76756D01*
X263327Y-77689D01*
X264105Y-78156D01*
X267994Y-78156D01*
X268772Y-77689D01*
X269160Y-76756D01*
X269160Y-75822D01*
X268772Y-74889D01*
X267994Y-74422D01*
G54D11*
X262938Y-72245D02*
X269160Y-72245D01*
G54D11*
X265272Y-70845D02*
X262938Y-69445D01*
G54D11*
X264494Y-72245D02*
X266438Y-69445D01*
G54D12*
X173254Y-424877D02*
X151254Y-424877D01*
X151254Y-386877D01*
X173254Y-386877D01*
X173254Y-424877D01*
G54D11*
X145235Y-403351D02*
X142901Y-401018D01*
X142901Y-407240D01*
G54D11*
X136990Y-402185D02*
X136990Y-406074D01*
X137457Y-406851D01*
X138390Y-407240D01*
X139324Y-407240D01*
X140257Y-406851D01*
X140724Y-406074D01*
X140724Y-402185D01*
X140257Y-401407D01*
X139324Y-401018D01*
X138390Y-401018D01*
X137457Y-401407D01*
X136990Y-402185D01*
G54D11*
X134813Y-407240D02*
X134813Y-403740D01*
G54D11*
X134813Y-404518D02*
X134346Y-403974D01*
X133413Y-403740D01*
X132479Y-403974D01*
X132013Y-404518D01*
X132013Y-407240D01*
G54D12*
X236868Y-127004D02*
X256868Y-127004D01*
X256868Y-89004D01*
X236868Y-89004D01*
X236868Y-127004D01*
G54D11*
X241427Y-82667D02*
X243760Y-80334D01*
X237538Y-80334D01*
G54D11*
X242594Y-74422D02*
X238705Y-74422D01*
X237927Y-74889D01*
X237538Y-75822D01*
X237538Y-76756D01*
X237927Y-77689D01*
X238705Y-78156D01*
X242594Y-78156D01*
X243372Y-77689D01*
X243760Y-76756D01*
X243760Y-75822D01*
X243372Y-74889D01*
X242594Y-74422D01*
G54D11*
X237538Y-72245D02*
X243760Y-72245D01*
G54D11*
X239872Y-70845D02*
X237538Y-69445D01*
G54D11*
X239094Y-72245D02*
X241038Y-69445D01*
G54D12*
X262268Y-185741D02*
X282268Y-185741D01*
X282268Y-147741D01*
X262268Y-147741D01*
X262268Y-185741D01*
G54D11*
X266827Y-144579D02*
X269160Y-142246D01*
X262938Y-142246D01*
G54D11*
X267994Y-136334D02*
X264105Y-136334D01*
X263327Y-136801D01*
X262938Y-137734D01*
X262938Y-138668D01*
X263327Y-139601D01*
X264105Y-140068D01*
X267994Y-140068D01*
X268772Y-139601D01*
X269160Y-138668D01*
X269160Y-137734D01*
X268772Y-136801D01*
X267994Y-136334D01*
G54D11*
X262938Y-134157D02*
X269160Y-134157D01*
G54D11*
X265272Y-132757D02*
X262938Y-131357D01*
G54D11*
X264494Y-134157D02*
X266438Y-131357D01*
G54D12*
X236868Y-185741D02*
X256868Y-185741D01*
X256868Y-147741D01*
X236868Y-147741D01*
X236868Y-185741D01*
G54D11*
X241427Y-144579D02*
X243760Y-142246D01*
X237538Y-142246D01*
G54D11*
X242594Y-136334D02*
X238705Y-136334D01*
X237927Y-136801D01*
X237538Y-137734D01*
X237538Y-138668D01*
X237927Y-139601D01*
X238705Y-140068D01*
X242594Y-140068D01*
X243372Y-139601D01*
X243760Y-138668D01*
X243760Y-137734D01*
X243372Y-136801D01*
X242594Y-136334D01*
G54D11*
X237538Y-134157D02*
X243760Y-134157D01*
G54D11*
X239872Y-132757D02*
X237538Y-131357D01*
G54D11*
X239094Y-134157D02*
X241038Y-131357D01*
G54D12*
X262268Y-254004D02*
X282268Y-254004D01*
X282268Y-216004D01*
X262268Y-216004D01*
X262268Y-254004D01*
G54D11*
X266827Y-212841D02*
X269160Y-210508D01*
X262938Y-210508D01*
G54D11*
X267994Y-204596D02*
X264105Y-204596D01*
X263327Y-205063D01*
X262938Y-205996D01*
X262938Y-206930D01*
X263327Y-207863D01*
X264105Y-208330D01*
X267994Y-208330D01*
X268772Y-207863D01*
X269160Y-206930D01*
X269160Y-205996D01*
X268772Y-205063D01*
X267994Y-204596D01*
G54D11*
X262938Y-202419D02*
X269160Y-202419D01*
G54D11*
X265272Y-201019D02*
X262938Y-199619D01*
G54D11*
X264494Y-202419D02*
X266438Y-199619D01*
G54D12*
X236868Y-254004D02*
X256868Y-254004D01*
X256868Y-216004D01*
X236868Y-216004D01*
X236868Y-254004D01*
G54D11*
X241427Y-212841D02*
X243760Y-210508D01*
X237538Y-210508D01*
G54D11*
X242594Y-204596D02*
X238705Y-204596D01*
X237927Y-205063D01*
X237538Y-205996D01*
X237538Y-206930D01*
X237927Y-207863D01*
X238705Y-208330D01*
X242594Y-208330D01*
X243372Y-207863D01*
X243760Y-206930D01*
X243760Y-205996D01*
X243372Y-205063D01*
X242594Y-204596D01*
G54D11*
X237538Y-202419D02*
X243760Y-202419D01*
G54D11*
X239872Y-201019D02*
X237538Y-199619D01*
G54D11*
X239094Y-202419D02*
X241038Y-199619D01*
G54D12*
X262268Y-327029D02*
X282268Y-327029D01*
X282268Y-289029D01*
X262268Y-289029D01*
X262268Y-327029D01*
G54D11*
X266827Y-285865D02*
X269160Y-283532D01*
X262938Y-283532D01*
G54D11*
X267994Y-277620D02*
X264105Y-277620D01*
X263327Y-278087D01*
X262938Y-279020D01*
X262938Y-279954D01*
X263327Y-280887D01*
X264105Y-281354D01*
X267994Y-281354D01*
X268772Y-280887D01*
X269160Y-279954D01*
X269160Y-279020D01*
X268772Y-278087D01*
X267994Y-277620D01*
G54D11*
X262938Y-275443D02*
X269160Y-275443D01*
G54D11*
X265272Y-274043D02*
X262938Y-272643D01*
G54D11*
X264494Y-275443D02*
X266438Y-272643D01*
G54D12*
X236868Y-327029D02*
X256868Y-327029D01*
X256868Y-289029D01*
X236868Y-289029D01*
X236868Y-327029D01*
G54D11*
X241427Y-285863D02*
X243760Y-283530D01*
X237538Y-283530D01*
G54D11*
X242594Y-277618D02*
X238705Y-277618D01*
X237927Y-278085D01*
X237538Y-279018D01*
X237538Y-279952D01*
X237927Y-280885D01*
X238705Y-281352D01*
X242594Y-281352D01*
X243372Y-280885D01*
X243760Y-279952D01*
X243760Y-279018D01*
X243372Y-278085D01*
X242594Y-277618D01*
G54D11*
X237538Y-275441D02*
X243760Y-275441D01*
G54D11*
X239872Y-274041D02*
X237538Y-272641D01*
G54D11*
X239094Y-275441D02*
X241038Y-272641D01*
G54D12*
X97104Y-136460D02*
X97104Y-114460D01*
X135104Y-114460D01*
X135104Y-136460D01*
X97104Y-136460D01*
G54D11*
X118630Y-108441D02*
X120963Y-106108D01*
X114741Y-106108D01*
G54D11*
X119796Y-100197D02*
X115907Y-100197D01*
X115130Y-100663D01*
X114741Y-101597D01*
X114741Y-102530D01*
X115130Y-103463D01*
X115907Y-103930D01*
X119796Y-103930D01*
X120574Y-103463D01*
X120963Y-102530D01*
X120963Y-101597D01*
X120574Y-100663D01*
X119796Y-100197D01*
G54D11*
X114741Y-98019D02*
X118241Y-98019D01*
G54D11*
X117463Y-98019D02*
X118007Y-97552D01*
X118241Y-96619D01*
X118007Y-95686D01*
X117463Y-95219D01*
X114741Y-95219D01*
G54D12*
X14554Y-136460D02*
X14554Y-114460D01*
X52554Y-114460D01*
X52554Y-136460D01*
X14554Y-136460D01*
G54D11*
X36080Y-108441D02*
X38413Y-106108D01*
X32191Y-106108D01*
G54D11*
X37246Y-100197D02*
X33357Y-100197D01*
X32580Y-100663D01*
X32191Y-101597D01*
X32191Y-102530D01*
X32580Y-103463D01*
X33357Y-103930D01*
X37246Y-103930D01*
X38024Y-103463D01*
X38413Y-102530D01*
X38413Y-101597D01*
X38024Y-100663D01*
X37246Y-100197D01*
G54D11*
X32191Y-98019D02*
X35691Y-98019D01*
G54D11*
X34913Y-98019D02*
X35457Y-97552D01*
X35691Y-96619D01*
X35457Y-95686D01*
X34913Y-95219D01*
X32191Y-95219D01*
G54D12*
X105041Y-203135D02*
X105041Y-181135D01*
X143041Y-181135D01*
X143041Y-203135D01*
X105041Y-203135D01*
G54D11*
X126567Y-175116D02*
X128900Y-172783D01*
X122678Y-172783D01*
G54D11*
X127734Y-166872D02*
X123845Y-166872D01*
X123067Y-167338D01*
X122678Y-168272D01*
X122678Y-169205D01*
X123067Y-170138D01*
X123845Y-170605D01*
X127734Y-170605D01*
X128512Y-170138D01*
X128900Y-169205D01*
X128900Y-168272D01*
X128512Y-167338D01*
X127734Y-166872D01*
G54D11*
X122678Y-164694D02*
X126178Y-164694D01*
G54D11*
X125400Y-164694D02*
X125945Y-164227D01*
X126178Y-163294D01*
X125945Y-162361D01*
X125400Y-161894D01*
X122678Y-161894D01*
G54D12*
X14554Y-203135D02*
X14554Y-181135D01*
X52554Y-181135D01*
X52554Y-203135D01*
X14554Y-203135D01*
G54D11*
X36080Y-175116D02*
X38413Y-172783D01*
X32191Y-172783D01*
G54D11*
X37246Y-166872D02*
X33357Y-166872D01*
X32580Y-167338D01*
X32191Y-168272D01*
X32191Y-169205D01*
X32580Y-170138D01*
X33357Y-170605D01*
X37246Y-170605D01*
X38024Y-170138D01*
X38413Y-169205D01*
X38413Y-168272D01*
X38024Y-167338D01*
X37246Y-166872D01*
G54D11*
X32191Y-164694D02*
X35691Y-164694D01*
G54D11*
X34913Y-164694D02*
X35457Y-164227D01*
X35691Y-163294D01*
X35457Y-162361D01*
X34913Y-161894D01*
X32191Y-161894D01*
G54D12*
X14554Y-266635D02*
X14554Y-244635D01*
X52554Y-244635D01*
X52554Y-266635D01*
X14554Y-266635D01*
G54D11*
X36080Y-238616D02*
X38413Y-236283D01*
X32191Y-236283D01*
G54D11*
X37246Y-230372D02*
X33357Y-230372D01*
X32580Y-230838D01*
X32191Y-231772D01*
X32191Y-232705D01*
X32580Y-233638D01*
X33357Y-234105D01*
X37246Y-234105D01*
X38024Y-233638D01*
X38413Y-232705D01*
X38413Y-231772D01*
X38024Y-230838D01*
X37246Y-230372D01*
G54D11*
X32191Y-228194D02*
X35691Y-228194D01*
G54D11*
X34913Y-228194D02*
X35457Y-227727D01*
X35691Y-226794D01*
X35457Y-225861D01*
X34913Y-225394D01*
X32191Y-225394D01*
G54D12*
X114566Y-268223D02*
X114566Y-246223D01*
X152566Y-246223D01*
X152566Y-268223D01*
X114566Y-268223D01*
G54D11*
X136092Y-240204D02*
X138425Y-237870D01*
X132203Y-237870D01*
G54D11*
X137259Y-231959D02*
X133370Y-231959D01*
X132592Y-232426D01*
X132203Y-233359D01*
X132203Y-234293D01*
X132592Y-235226D01*
X133370Y-235692D01*
X137259Y-235692D01*
X138036Y-235226D01*
X138425Y-234292D01*
X138425Y-233359D01*
X138036Y-232426D01*
X137259Y-231959D01*
G54D11*
X132203Y-229782D02*
X135703Y-229782D01*
G54D11*
X134925Y-229782D02*
X135470Y-229315D01*
X135703Y-228382D01*
X135470Y-227448D01*
X134925Y-226982D01*
X132203Y-226982D01*
G54D12*
X14554Y-336485D02*
X14554Y-314485D01*
X52554Y-314485D01*
X52554Y-336485D01*
X14554Y-336485D01*
G54D11*
X36080Y-308466D02*
X38413Y-306133D01*
X32191Y-306133D01*
G54D11*
X37246Y-300222D02*
X33357Y-300222D01*
X32580Y-300688D01*
X32191Y-301622D01*
X32191Y-302555D01*
X32580Y-303488D01*
X33357Y-303955D01*
X37246Y-303955D01*
X38024Y-303488D01*
X38413Y-302555D01*
X38413Y-301622D01*
X38024Y-300688D01*
X37246Y-300222D01*
G54D11*
X32191Y-298044D02*
X35691Y-298044D01*
G54D11*
X34913Y-298044D02*
X35457Y-297577D01*
X35691Y-296644D01*
X35457Y-295711D01*
X34913Y-295244D01*
X32191Y-295244D01*
G54D12*
X336894Y-125959D02*
X336894Y-145959D01*
X374894Y-145959D01*
X374894Y-125959D01*
X336894Y-125959D01*
G54D11*
X394473Y-128961D02*
X392140Y-126628D01*
X392140Y-132850D01*
G54D11*
X386229Y-127794D02*
X386229Y-131683D01*
X386695Y-132461D01*
X387629Y-132850D01*
X388562Y-132850D01*
X389495Y-132461D01*
X389962Y-131683D01*
X389962Y-127794D01*
X389495Y-127017D01*
X388562Y-126628D01*
X387629Y-126628D01*
X386695Y-127017D01*
X386229Y-127794D01*
G54D11*
X384051Y-132850D02*
X384051Y-126628D01*
G54D11*
X382651Y-130517D02*
X381251Y-132850D01*
G54D11*
X384051Y-131294D02*
X381251Y-129350D01*
G54D12*
X336894Y-152946D02*
X336894Y-172946D01*
X374894Y-172946D01*
X374894Y-152946D01*
X336894Y-152946D01*
G54D11*
X394473Y-155949D02*
X392140Y-153615D01*
X392140Y-159838D01*
G54D11*
X386229Y-154782D02*
X386229Y-158671D01*
X386695Y-159449D01*
X387629Y-159838D01*
X388562Y-159838D01*
X389495Y-159449D01*
X389962Y-158671D01*
X389962Y-154782D01*
X389495Y-154004D01*
X388562Y-153615D01*
X387629Y-153615D01*
X386695Y-154004D01*
X386229Y-154782D01*
G54D11*
X384051Y-159838D02*
X384051Y-153615D01*
G54D11*
X382651Y-157504D02*
X381251Y-159838D01*
G54D11*
X384051Y-158282D02*
X381251Y-156338D01*
G54D12*
X386093Y-269879D02*
X406093Y-269879D01*
X406093Y-231879D01*
X386093Y-231879D01*
X386093Y-269879D01*
G54D11*
X381127Y-257290D02*
X383460Y-254957D01*
X377238Y-254957D01*
G54D11*
X382293Y-249046D02*
X378404Y-249046D01*
X377627Y-249513D01*
X377238Y-250446D01*
X377238Y-251379D01*
X377627Y-252313D01*
X378404Y-252779D01*
X382293Y-252779D01*
X383071Y-252313D01*
X383460Y-251379D01*
X383460Y-250446D01*
X383071Y-249513D01*
X382293Y-249046D01*
G54D11*
X377238Y-246868D02*
X383460Y-246868D01*
G54D11*
X379571Y-245468D02*
X377238Y-244068D01*
G54D11*
X378793Y-246868D02*
X380738Y-244068D01*
G54D12*
X386093Y-320679D02*
X406093Y-320679D01*
X406093Y-282679D01*
X386093Y-282679D01*
X386093Y-320679D01*
G54D11*
X377237Y-298401D02*
X383459Y-298401D01*
X379570Y-301201D01*
X378792Y-301201D01*
X378792Y-297468D01*
G54D11*
X377237Y-294916D02*
X377237Y-295290D01*
X377548Y-295290D01*
X377548Y-294916D01*
X377237Y-294916D01*
X377237Y-295290D01*
G54D11*
X383459Y-292739D02*
X383459Y-289006D01*
X382681Y-289472D01*
X381514Y-290406D01*
X379959Y-291339D01*
X378792Y-291806D01*
X377237Y-291806D01*
G54D11*
X377237Y-286828D02*
X383459Y-286828D01*
G54D11*
X379570Y-285428D02*
X377237Y-284028D01*
G54D11*
X378792Y-286828D02*
X380737Y-284028D01*
G54D12*
X386093Y-371479D02*
X406093Y-371479D01*
X406093Y-333479D01*
X386093Y-333479D01*
X386093Y-371479D01*
G54D11*
X377237Y-354618D02*
X377237Y-358351D01*
X377626Y-358351D01*
X378404Y-357884D01*
X380737Y-355084D01*
X381515Y-354618D01*
X382293Y-354618D01*
X383071Y-355084D01*
X383460Y-356018D01*
X383460Y-356951D01*
X383071Y-357884D01*
X382293Y-358351D01*
G54D11*
X377237Y-348706D02*
X377237Y-352440D01*
X377626Y-352440D01*
X378404Y-351973D01*
X380737Y-349173D01*
X381515Y-348706D01*
X382293Y-348706D01*
X383071Y-349173D01*
X383460Y-350106D01*
X383460Y-351040D01*
X383071Y-351973D01*
X382293Y-352440D01*
G54D11*
X377237Y-346529D02*
X383460Y-346529D01*
G54D11*
X379571Y-345129D02*
X377237Y-343729D01*
G54D11*
X378793Y-346529D02*
X380737Y-343729D01*
G54D12*
X422606Y-228604D02*
X442606Y-228604D01*
X442606Y-190604D01*
X422606Y-190604D01*
X422606Y-228604D01*
G54D11*
X417639Y-220778D02*
X419972Y-218444D01*
X413750Y-218444D01*
G54D11*
X418805Y-212534D02*
X414916Y-212534D01*
X414139Y-213000D01*
X413750Y-213934D01*
X413750Y-214867D01*
X414139Y-215800D01*
X414916Y-216267D01*
X418805Y-216267D01*
X419583Y-215800D01*
X419972Y-214867D01*
X419972Y-213934D01*
X419583Y-213000D01*
X418805Y-212534D01*
G54D11*
X413750Y-210356D02*
X419972Y-210356D01*
G54D11*
X416083Y-208956D02*
X413750Y-207556D01*
G54D11*
X415305Y-210356D02*
X417250Y-207556D01*
G54D12*
X422606Y-279404D02*
X442606Y-279404D01*
X442606Y-241404D01*
X422606Y-241404D01*
X422606Y-279404D01*
G54D11*
X413751Y-268238D02*
X419973Y-268238D01*
X416085Y-271038D01*
X415307Y-271038D01*
X415307Y-267304D01*
G54D11*
X413751Y-264754D02*
X413751Y-265127D01*
X414062Y-265127D01*
X414062Y-264754D01*
X413751Y-264754D01*
X413751Y-265127D01*
G54D11*
X419973Y-262576D02*
X419973Y-258842D01*
X419196Y-259309D01*
X418029Y-260242D01*
X416473Y-261176D01*
X415307Y-261642D01*
X413751Y-261642D01*
G54D11*
X413751Y-256665D02*
X419973Y-256665D01*
G54D11*
X416085Y-255265D02*
X413751Y-253865D01*
G54D11*
X415307Y-256665D02*
X417251Y-253865D01*
G54D12*
X422606Y-330204D02*
X442606Y-330204D01*
X442606Y-292204D01*
X422606Y-292204D01*
X422606Y-330204D01*
G54D11*
X413750Y-313342D02*
X413750Y-317076D01*
X414139Y-317076D01*
X414917Y-316609D01*
X417250Y-313809D01*
X418028Y-313342D01*
X418806Y-313342D01*
X419584Y-313809D01*
X419972Y-314742D01*
X419972Y-315676D01*
X419584Y-316609D01*
X418806Y-317076D01*
G54D11*
X413750Y-307432D02*
X413750Y-311165D01*
X414139Y-311165D01*
X414917Y-310698D01*
X417250Y-307898D01*
X418028Y-307432D01*
X418806Y-307432D01*
X419584Y-307898D01*
X419972Y-308832D01*
X419972Y-309765D01*
X419584Y-310698D01*
X418806Y-311165D01*
G54D11*
X413750Y-305254D02*
X419972Y-305254D01*
G54D11*
X416084Y-303854D02*
X413750Y-302454D01*
G54D11*
X415306Y-305254D02*
X417250Y-302454D01*
G54D10*
X528868Y-248400D02*
X574868Y-248400D01*
X574868Y-278400D01*
X528868Y-278400D01*
X528868Y-248400D01*
G36*
X531868Y-278400D02*
X531868Y-248400D01*
X536868Y-248400D01*
X536868Y-278400D01*
X531868Y-278400D01*
G37*
G54D10*
X531868Y-278400D02*
X531868Y-248400D01*
X536868Y-248400D01*
X536868Y-278400D01*
X531868Y-278400D01*
G54D10*
X541868Y-263400D02*
X548268Y-263400D01*
X548268Y-257100D01*
X548268Y-269800D01*
X548268Y-263400D01*
X556168Y-257100D01*
X556168Y-269800D01*
X548268Y-263400D01*
G54D10*
X556168Y-263400D02*
X562568Y-263400D01*
G54D11*
X568600Y-240264D02*
X566266Y-237931D01*
X566266Y-244153D01*
G54D11*
X564089Y-244153D02*
X564089Y-237931D01*
X560356Y-244153D01*
X560356Y-237931D01*
G54D11*
X555378Y-244153D02*
X555378Y-237931D01*
X558178Y-241820D01*
X558178Y-242597D01*
X554445Y-242597D01*
G54D11*
X552267Y-240264D02*
X549934Y-237931D01*
X549934Y-244153D01*
G54D11*
X544956Y-244153D02*
X544956Y-237931D01*
X547756Y-241820D01*
X547756Y-242597D01*
X544023Y-242597D01*
G54D11*
X539512Y-241042D02*
X540445Y-241042D01*
X541378Y-240653D01*
X541845Y-239875D01*
X541845Y-239097D01*
X541378Y-238320D01*
X540445Y-237931D01*
X539512Y-237931D01*
X538578Y-238320D01*
X538112Y-239097D01*
X538112Y-239875D01*
X538578Y-240653D01*
X539512Y-241042D01*
X538578Y-241431D01*
X538112Y-242208D01*
X538112Y-242986D01*
X538578Y-243764D01*
X539512Y-244153D01*
X540445Y-244153D01*
X541378Y-243764D01*
X541845Y-242986D01*
X541845Y-242208D01*
X541378Y-241431D01*
X540445Y-241042D01*
G54D12*
X497232Y-284709D02*
X497232Y-304709D01*
X535232Y-304709D01*
X535232Y-284709D01*
X497232Y-284709D01*
G54D11*
X521473Y-275011D02*
X519140Y-272678D01*
X519140Y-278900D01*
G54D11*
X513229Y-273844D02*
X513229Y-277733D01*
X513695Y-278511D01*
X514629Y-278900D01*
X515562Y-278900D01*
X516495Y-278511D01*
X516962Y-277733D01*
X516962Y-273844D01*
X516495Y-273067D01*
X515562Y-272678D01*
X514629Y-272678D01*
X513695Y-273067D01*
X513229Y-273844D01*
G54D11*
X511051Y-278900D02*
X511051Y-272678D01*
G54D11*
X509651Y-276567D02*
X508251Y-278900D01*
G54D11*
X511051Y-277344D02*
X508251Y-275400D01*
G54D12*
X543269Y-300584D02*
X543269Y-320584D01*
X581269Y-320584D01*
X581269Y-300584D01*
X543269Y-300584D01*
G54D11*
X567510Y-292474D02*
X565177Y-290140D01*
X565177Y-296362D01*
G54D11*
X559266Y-291307D02*
X559266Y-295196D01*
X559733Y-295974D01*
X560666Y-296362D01*
X561600Y-296362D01*
X562533Y-295974D01*
X563000Y-295196D01*
X563000Y-291307D01*
X562533Y-290529D01*
X561600Y-290140D01*
X560666Y-290140D01*
X559733Y-290529D01*
X559266Y-291307D01*
G54D11*
X557088Y-296362D02*
X557088Y-290140D01*
G54D11*
X555688Y-294029D02*
X554288Y-296362D01*
G54D11*
X557088Y-294807D02*
X554288Y-292862D01*
G54D10*
X641580Y-248400D02*
X687580Y-248400D01*
X687580Y-278400D01*
X641580Y-278400D01*
X641580Y-248400D01*
G36*
X644580Y-278400D02*
X644580Y-248400D01*
X649580Y-248400D01*
X649580Y-278400D01*
X644580Y-278400D01*
G37*
G54D10*
X644580Y-278400D02*
X644580Y-248400D01*
X649580Y-248400D01*
X649580Y-278400D01*
X644580Y-278400D01*
G54D10*
X654580Y-263400D02*
X660980Y-263400D01*
X660980Y-257100D01*
X660980Y-269800D01*
X660980Y-263400D01*
X668880Y-257100D01*
X668880Y-269800D01*
X660980Y-263400D01*
G54D10*
X668880Y-263400D02*
X675280Y-263400D01*
G54D11*
X681312Y-240264D02*
X678979Y-237931D01*
X678979Y-244153D01*
G54D11*
X676801Y-244153D02*
X676801Y-237931D01*
X673068Y-244153D01*
X673068Y-237931D01*
G54D11*
X668090Y-244153D02*
X668090Y-237931D01*
X670890Y-241820D01*
X670890Y-242597D01*
X667157Y-242597D01*
G54D11*
X664979Y-240264D02*
X662646Y-237931D01*
X662646Y-244153D01*
G54D11*
X657668Y-244153D02*
X657668Y-237931D01*
X660468Y-241820D01*
X660468Y-242597D01*
X656735Y-242597D01*
G54D11*
X652224Y-241042D02*
X653157Y-241042D01*
X654091Y-240653D01*
X654557Y-239875D01*
X654557Y-239097D01*
X654091Y-238320D01*
X653157Y-237931D01*
X652224Y-237931D01*
X651291Y-238320D01*
X650824Y-239097D01*
X650824Y-239875D01*
X651291Y-240653D01*
X652224Y-241042D01*
X651291Y-241431D01*
X650824Y-242208D01*
X650824Y-242986D01*
X651291Y-243764D01*
X652224Y-244153D01*
X653157Y-244153D01*
X654091Y-243764D01*
X654557Y-242986D01*
X654557Y-242208D01*
X654091Y-241431D01*
X653157Y-241042D01*
G54D12*
X665746Y-294399D02*
X655746Y-294399D01*
X655746Y-314399D01*
X665746Y-314399D01*
X665746Y-294399D01*
G54D12*
X631980Y-386938D02*
X653980Y-386938D01*
X653980Y-424938D01*
X631980Y-424938D01*
X631980Y-386938D01*
G54D11*
X676224Y-407207D02*
X673890Y-404873D01*
X673890Y-411096D01*
G54D11*
X667979Y-406040D02*
X667979Y-409929D01*
X668446Y-410707D01*
X669379Y-411096D01*
X670313Y-411096D01*
X671246Y-410707D01*
X671713Y-409929D01*
X671713Y-406040D01*
X671246Y-405262D01*
X670313Y-404873D01*
X669379Y-404873D01*
X668446Y-405262D01*
X667979Y-406040D01*
G54D11*
X662068Y-406040D02*
X662068Y-409929D01*
X662535Y-410707D01*
X663468Y-411096D01*
X664402Y-411096D01*
X665335Y-410707D01*
X665802Y-409929D01*
X665802Y-406040D01*
X665335Y-405262D01*
X664402Y-404873D01*
X663468Y-404873D01*
X662535Y-405262D01*
X662068Y-406040D01*
G54D11*
X659891Y-411096D02*
X659891Y-407596D01*
G54D11*
X659891Y-408373D02*
X659424Y-407829D01*
X658491Y-407596D01*
X657557Y-407829D01*
X657091Y-408373D01*
X657091Y-411096D01*
G54D12*
X606580Y-386938D02*
X628580Y-386938D01*
X628580Y-424938D01*
X606580Y-424938D01*
X606580Y-386938D01*
G54D12*
X581180Y-386938D02*
X603180Y-386938D01*
X603180Y-424938D01*
X581180Y-424938D01*
X581180Y-386938D01*
G54D12*
X555780Y-386938D02*
X577780Y-386938D01*
X577780Y-424938D01*
X555780Y-424938D01*
X555780Y-386938D01*
G54D12*
X530380Y-386938D02*
X552380Y-386938D01*
X552380Y-424938D01*
X530380Y-424938D01*
X530380Y-386938D01*
G54D12*
X504980Y-386938D02*
X526980Y-386938D01*
X526980Y-424938D01*
X504980Y-424938D01*
X504980Y-386938D01*
G54D12*
X686144Y-295821D02*
X686144Y-315821D01*
X724144Y-315821D01*
X724144Y-295821D01*
X686144Y-295821D01*
G54D11*
X706652Y-290012D02*
X710386Y-290012D01*
X710386Y-289624D01*
X709919Y-288846D01*
X707119Y-286512D01*
X706652Y-285735D01*
X706652Y-284957D01*
X707119Y-284179D01*
X708052Y-283790D01*
X708986Y-283790D01*
X709919Y-284179D01*
X710386Y-284957D01*
G54D11*
X700741Y-284957D02*
X700741Y-288846D01*
X701208Y-289624D01*
X702141Y-290012D01*
X703074Y-290012D01*
X704008Y-289624D01*
X704474Y-288846D01*
X704474Y-284957D01*
X704008Y-284179D01*
X703074Y-283790D01*
X702141Y-283790D01*
X701208Y-284179D01*
X700741Y-284957D01*
G54D11*
X698564Y-290012D02*
X698564Y-283790D01*
G54D11*
X697164Y-287679D02*
X695764Y-290012D01*
G54D11*
X698564Y-288457D02*
X695764Y-286512D01*
G54D11*
X693586Y-287290D02*
X689852Y-287290D01*
G54D11*
X691719Y-285735D02*
X691719Y-288846D01*
G54D11*
X693119Y-286124D02*
X690319Y-288457D01*
G54D11*
X693119Y-288457D02*
X690319Y-286124D01*
G54D12*
X646457Y-203746D02*
X646457Y-223746D01*
X684457Y-223746D01*
X684457Y-203746D01*
X646457Y-203746D01*
G54D11*
X666965Y-197938D02*
X670698Y-197938D01*
X670698Y-197549D01*
X670231Y-196771D01*
X667431Y-194438D01*
X666965Y-193660D01*
X666965Y-192882D01*
X667431Y-192104D01*
X668365Y-191715D01*
X669298Y-191715D01*
X670231Y-192104D01*
X670698Y-192882D01*
G54D11*
X661054Y-192882D02*
X661054Y-196771D01*
X661520Y-197549D01*
X662454Y-197938D01*
X663387Y-197938D01*
X664320Y-197549D01*
X664787Y-196771D01*
X664787Y-192882D01*
X664320Y-192104D01*
X663387Y-191715D01*
X662454Y-191715D01*
X661520Y-192104D01*
X661054Y-192882D01*
G54D11*
X658876Y-197938D02*
X658876Y-191715D01*
G54D11*
X657476Y-195604D02*
X656076Y-197938D01*
G54D11*
X658876Y-196382D02*
X656076Y-194438D01*
G54D11*
X653898Y-195215D02*
X650165Y-195215D01*
G54D11*
X652031Y-193660D02*
X652031Y-196771D01*
G54D11*
X653431Y-194049D02*
X650631Y-196382D01*
G54D11*
X653431Y-196382D02*
X650631Y-194049D01*
G54D12*
X241516Y-424877D02*
X219516Y-424877D01*
X219516Y-386877D01*
X241516Y-386877D01*
X241516Y-424877D01*
G54D11*
X213497Y-403351D02*
X211164Y-401018D01*
X211164Y-407240D01*
G54D11*
X205253Y-402185D02*
X205253Y-406074D01*
X205720Y-406851D01*
X206653Y-407240D01*
X207586Y-407240D01*
X208520Y-406851D01*
X208986Y-406074D01*
X208986Y-402185D01*
X208520Y-401407D01*
X207586Y-401018D01*
X206653Y-401018D01*
X205720Y-401407D01*
X205253Y-402185D01*
G54D11*
X203075Y-407240D02*
X203075Y-403740D01*
G54D11*
X203075Y-404518D02*
X202608Y-403974D01*
X201675Y-403740D01*
X200742Y-403974D01*
X200275Y-404518D01*
X200275Y-407240D01*
G54D12*
X383063Y-382625D02*
X383063Y-402625D01*
X421063Y-402625D01*
X421063Y-382625D01*
X383063Y-382625D01*
G54D11*
X441568Y-403323D02*
X439235Y-400990D01*
X439235Y-407212D01*
G54D11*
X433324Y-402156D02*
X433324Y-406045D01*
X433791Y-406823D01*
X434724Y-407212D01*
X435657Y-407212D01*
X436591Y-406823D01*
X437057Y-406045D01*
X437057Y-402156D01*
X436591Y-401378D01*
X435657Y-400990D01*
X434724Y-400989D01*
X433791Y-401378D01*
X433324Y-402156D01*
G54D11*
X431146Y-407212D02*
X431146Y-400989D01*
G54D11*
X429746Y-404878D02*
X428346Y-407212D01*
G54D11*
X431146Y-405656D02*
X428346Y-403712D01*
M02*
