%FSLAX34Y34*%
%MOMM*%
%LNSILK_TOP*%
G71*
G01*
%ADD10C, 0.600*%
%ADD11C, 0.440*%
%ADD12C, 0.170*%
%ADD13C, 0.133*%
%ADD14C, 0.150*%
%ADD15C, 0.159*%
%ADD16C, 0.100*%
%ADD17C, 0.206*%
%ADD18C, 0.278*%
%ADD19C, 0.111*%
%ADD20C, 0.200*%
%ADD21C, 0.191*%
%ADD22C, 0.089*%
%ADD23C, 0.144*%
%ADD24C, 0.167*%
%ADD25C, 0.000*%
%LPD*%
G54D10*
X487362Y-415800D02*
X284162Y-415800D01*
X284162Y-9400D01*
X487362Y-9400D01*
X487362Y-415800D01*
G54D11*
X404962Y-374675D02*
X369407Y-361342D01*
X404962Y-348008D01*
G54D11*
X391629Y-369342D02*
X391629Y-353342D01*
G54D11*
X404962Y-338175D02*
X384962Y-338175D01*
G54D11*
X389407Y-338175D02*
X384962Y-332842D01*
X384962Y-327508D01*
G54D11*
X404962Y-301675D02*
X369407Y-301675D01*
G54D11*
X390740Y-301675D02*
X386296Y-304342D01*
X384962Y-309675D01*
X386296Y-315008D01*
X390740Y-317675D01*
X399629Y-317675D01*
X404074Y-315008D01*
X404962Y-309675D01*
X404074Y-304342D01*
X399629Y-301675D01*
G54D11*
X384962Y-275875D02*
X404962Y-275875D01*
G54D11*
X400518Y-275875D02*
X404074Y-278542D01*
X404962Y-283875D01*
X404074Y-289208D01*
X400518Y-291875D01*
X384962Y-291875D01*
G54D11*
X404962Y-266075D02*
X384962Y-266075D01*
G54D11*
X378296Y-266075D02*
X378296Y-266075D01*
G54D11*
X404962Y-256275D02*
X384962Y-256275D01*
G54D11*
X389407Y-256275D02*
X386296Y-253608D01*
X384962Y-248275D01*
X386296Y-242942D01*
X389407Y-240275D01*
X404962Y-240275D01*
G54D11*
X399629Y-214475D02*
X390740Y-214475D01*
X386296Y-217142D01*
X384962Y-222475D01*
X386296Y-227808D01*
X390740Y-230475D01*
X399629Y-230475D01*
X404074Y-227808D01*
X404962Y-222475D01*
X404074Y-217142D01*
X399629Y-214475D01*
G54D11*
X404962Y-194375D02*
X369407Y-194375D01*
X404962Y-173042D01*
X369407Y-173042D01*
G54D11*
X387185Y-163275D02*
X384962Y-157942D01*
X384962Y-151542D01*
X389407Y-147275D01*
X404962Y-147275D01*
G54D11*
X398296Y-147275D02*
X393851Y-149942D01*
X392962Y-155275D01*
X393851Y-160608D01*
X398296Y-163275D01*
X402740Y-162208D01*
X404962Y-157942D01*
X404962Y-155275D01*
X404962Y-154208D01*
X402740Y-149942D01*
X398296Y-147275D01*
G54D11*
X404962Y-137475D02*
X384962Y-137475D01*
G54D11*
X389407Y-137475D02*
X386296Y-134808D01*
X384962Y-129475D01*
X386296Y-124142D01*
X389407Y-121475D01*
X404962Y-121475D01*
G54D11*
X399629Y-95675D02*
X390740Y-95675D01*
X386296Y-98342D01*
X384962Y-103675D01*
X386296Y-109008D01*
X390740Y-111675D01*
X399629Y-111675D01*
X404074Y-109008D01*
X404962Y-103675D01*
X404074Y-98342D01*
X399629Y-95675D01*
G54D11*
X369407Y-75575D02*
X404962Y-62242D01*
X369407Y-48908D01*
G54D11*
X376074Y-39075D02*
X371629Y-36408D01*
X369407Y-31075D01*
X369407Y-25742D01*
X371629Y-20408D01*
X376074Y-17742D01*
X380518Y-17742D01*
X384962Y-20408D01*
X387185Y-25742D01*
X389407Y-20408D01*
X393851Y-17742D01*
X398296Y-17742D01*
X402740Y-20408D01*
X404962Y-25742D01*
X404962Y-31075D01*
X402740Y-36408D01*
X398296Y-39075D01*
G54D12*
X328755Y-41713D02*
X328755Y-28380D01*
G54D12*
X324755Y-28380D02*
X332755Y-28380D01*
G54D12*
X336455Y-28380D02*
X346455Y-41713D01*
G54D12*
X336455Y-41713D02*
X346455Y-28380D01*
G54D12*
X350155Y-33380D02*
X355155Y-28380D01*
X355155Y-41713D01*
G54D13*
X330939Y-61354D02*
X333339Y-62688D01*
X334139Y-64021D01*
X334139Y-66688D01*
G54D13*
X327739Y-66688D02*
X327739Y-56021D01*
X331739Y-56021D01*
X333339Y-56688D01*
X334139Y-58021D01*
X334139Y-59354D01*
X333339Y-60688D01*
X331739Y-61354D01*
X327739Y-61354D01*
G54D13*
X337072Y-56021D02*
X345072Y-66688D01*
G54D13*
X337072Y-66688D02*
X345072Y-56021D01*
G54D13*
X354405Y-58021D02*
X354405Y-64688D01*
X353605Y-66021D01*
X352005Y-66688D01*
X350405Y-66688D01*
X348805Y-66021D01*
X348005Y-64688D01*
X348005Y-58021D01*
X348805Y-56688D01*
X350405Y-56021D01*
X352005Y-56021D01*
X353605Y-56688D01*
X354405Y-58021D01*
G54D12*
X334203Y-109354D02*
X338203Y-109354D01*
X338203Y-113520D01*
X337203Y-115187D01*
X335203Y-116020D01*
X333203Y-116020D01*
X331203Y-115187D01*
X330203Y-113520D01*
X330203Y-105187D01*
X331203Y-103520D01*
X333203Y-102687D01*
X335203Y-102687D01*
X337203Y-103520D01*
X338203Y-105187D01*
G54D12*
X341903Y-116020D02*
X341903Y-108520D01*
G54D12*
X341903Y-110187D02*
X342903Y-109020D01*
X344903Y-108520D01*
X346903Y-109020D01*
X347903Y-110187D01*
X347903Y-116020D01*
G54D12*
X357603Y-116020D02*
X357603Y-102687D01*
G54D12*
X357603Y-110687D02*
X356603Y-109020D01*
X354603Y-108520D01*
X352603Y-109020D01*
X351603Y-110687D01*
X351603Y-114020D01*
X352603Y-115687D01*
X354603Y-116020D01*
X356603Y-115687D01*
X357603Y-114020D01*
G54D12*
X328428Y-142931D02*
X328428Y-129598D01*
X333428Y-129598D01*
X335428Y-130431D01*
X336428Y-132098D01*
X336428Y-140431D01*
X335428Y-142098D01*
X333428Y-142931D01*
X328428Y-142931D01*
G54D12*
X348128Y-142931D02*
X340128Y-142931D01*
X340128Y-142098D01*
X341128Y-140431D01*
X347128Y-135431D01*
X348128Y-133764D01*
X348128Y-132098D01*
X347128Y-130431D01*
X345128Y-129598D01*
X343128Y-129598D01*
X341128Y-130431D01*
X340128Y-132098D01*
G54D12*
X328238Y-168788D02*
X328238Y-155455D01*
X333238Y-155455D01*
X335238Y-156288D01*
X336238Y-157955D01*
X336238Y-166288D01*
X335238Y-167955D01*
X333238Y-168788D01*
X328238Y-168788D01*
G54D12*
X339938Y-157955D02*
X340938Y-156288D01*
X342938Y-155455D01*
X344938Y-155455D01*
X346938Y-156288D01*
X347938Y-157955D01*
X347938Y-159621D01*
X346938Y-161288D01*
X344938Y-162121D01*
X346938Y-162955D01*
X347938Y-164621D01*
X347938Y-166288D01*
X346938Y-167955D01*
X344938Y-168788D01*
X342938Y-168788D01*
X340938Y-167955D01*
X339938Y-166288D01*
G54D12*
X328304Y-194265D02*
X328304Y-180932D01*
X333304Y-180932D01*
X335304Y-181765D01*
X336304Y-183432D01*
X336304Y-191765D01*
X335304Y-193432D01*
X333304Y-194265D01*
X328304Y-194265D01*
G54D12*
X346004Y-194265D02*
X346004Y-180932D01*
X340004Y-189265D01*
X340004Y-190932D01*
X348004Y-190932D01*
G54D12*
X327782Y-219399D02*
X327782Y-206065D01*
X332782Y-206065D01*
X334782Y-206899D01*
X335782Y-208565D01*
X335782Y-216899D01*
X334782Y-218565D01*
X332782Y-219399D01*
X327782Y-219399D01*
G54D12*
X347482Y-206065D02*
X339482Y-206065D01*
X339482Y-211899D01*
X340482Y-211899D01*
X342482Y-211065D01*
X344482Y-211065D01*
X346482Y-211899D01*
X347482Y-213565D01*
X347482Y-216899D01*
X346482Y-218565D01*
X344482Y-219399D01*
X342482Y-219399D01*
X340482Y-218565D01*
X339482Y-216899D01*
G54D12*
X328238Y-244988D02*
X328238Y-231655D01*
X333238Y-231655D01*
X335238Y-232488D01*
X336238Y-234155D01*
X336238Y-242488D01*
X335238Y-244155D01*
X333238Y-244988D01*
X328238Y-244988D01*
G54D12*
X347938Y-234155D02*
X346938Y-232488D01*
X344938Y-231655D01*
X342938Y-231655D01*
X340938Y-232488D01*
X339938Y-234155D01*
X339938Y-238321D01*
X339938Y-239155D01*
X342938Y-237488D01*
X344938Y-237488D01*
X346938Y-238321D01*
X347938Y-239988D01*
X347938Y-242488D01*
X346938Y-244155D01*
X344938Y-244988D01*
X342938Y-244988D01*
X340938Y-244155D01*
X339938Y-242488D01*
X339938Y-238321D01*
G54D12*
X327388Y-271257D02*
X327388Y-257924D01*
X332388Y-257924D01*
X334388Y-258757D01*
X335388Y-260424D01*
X335388Y-268757D01*
X334388Y-270424D01*
X332388Y-271257D01*
X327388Y-271257D01*
G54D12*
X339088Y-257924D02*
X347088Y-257924D01*
X346088Y-259590D01*
X344088Y-262090D01*
X342088Y-265424D01*
X341088Y-267924D01*
X341088Y-271257D01*
G54D12*
X328238Y-295788D02*
X328238Y-282455D01*
X333238Y-282455D01*
X335238Y-283288D01*
X336238Y-284955D01*
X336238Y-293288D01*
X335238Y-294955D01*
X333238Y-295788D01*
X328238Y-295788D01*
G54D12*
X344938Y-289121D02*
X342938Y-289121D01*
X340938Y-288288D01*
X339938Y-286621D01*
X339938Y-284955D01*
X340938Y-283288D01*
X342938Y-282455D01*
X344938Y-282455D01*
X346938Y-283288D01*
X347938Y-284955D01*
X347938Y-286621D01*
X346938Y-288288D01*
X344938Y-289121D01*
X346938Y-289955D01*
X347938Y-291621D01*
X347938Y-293288D01*
X346938Y-294955D01*
X344938Y-295788D01*
X342938Y-295788D01*
X340938Y-294955D01*
X339938Y-293288D01*
X339938Y-291621D01*
X340938Y-289955D01*
X342938Y-289121D01*
G54D12*
X328238Y-321188D02*
X328238Y-307855D01*
X333238Y-307855D01*
X335238Y-308688D01*
X336238Y-310355D01*
X336238Y-318688D01*
X335238Y-320355D01*
X333238Y-321188D01*
X328238Y-321188D01*
G54D12*
X339938Y-318688D02*
X340938Y-320355D01*
X342938Y-321188D01*
X344938Y-321188D01*
X346938Y-320355D01*
X347938Y-318688D01*
X347938Y-314521D01*
X347938Y-313688D01*
X344938Y-315355D01*
X342938Y-315355D01*
X340938Y-314521D01*
X339938Y-312855D01*
X339938Y-310355D01*
X340938Y-308688D01*
X342938Y-307855D01*
X344938Y-307855D01*
X346938Y-308688D01*
X347938Y-310355D01*
X347938Y-314521D01*
G54D12*
X327063Y-348588D02*
X327063Y-335255D01*
X332063Y-335255D01*
X334063Y-336088D01*
X335063Y-337755D01*
X335063Y-346088D01*
X334063Y-347755D01*
X332063Y-348588D01*
X327063Y-348588D01*
G54D12*
X338763Y-340255D02*
X343763Y-335255D01*
X343763Y-348588D01*
G54D12*
X355463Y-337755D02*
X355463Y-346088D01*
X354463Y-347755D01*
X352463Y-348588D01*
X350463Y-348588D01*
X348463Y-347755D01*
X347463Y-346088D01*
X347463Y-337755D01*
X348463Y-336088D01*
X350463Y-335255D01*
X352463Y-335255D01*
X354463Y-336088D01*
X355463Y-337755D01*
G54D12*
X328296Y-371666D02*
X328296Y-358333D01*
X333296Y-358333D01*
X335296Y-359166D01*
X336296Y-360833D01*
X336296Y-369166D01*
X335296Y-370833D01*
X333296Y-371666D01*
X328296Y-371666D01*
G54D12*
X339996Y-363333D02*
X344996Y-358333D01*
X344996Y-371666D01*
G54D12*
X348696Y-363333D02*
X353696Y-358333D01*
X353696Y-371666D01*
G54D12*
X327253Y-395756D02*
X327253Y-382423D01*
X332253Y-382423D01*
X334253Y-383256D01*
X335253Y-384923D01*
X335253Y-393256D01*
X334253Y-394923D01*
X332253Y-395756D01*
X327253Y-395756D01*
G54D12*
X338953Y-387423D02*
X343953Y-382423D01*
X343953Y-395756D01*
G54D12*
X355653Y-395756D02*
X347653Y-395756D01*
X347653Y-394923D01*
X348653Y-393256D01*
X354653Y-388256D01*
X355653Y-386589D01*
X355653Y-384923D01*
X354653Y-383256D01*
X352653Y-382423D01*
X350653Y-382423D01*
X348653Y-383256D01*
X347653Y-384923D01*
G54D12*
X332097Y-86791D02*
X335097Y-88458D01*
X336097Y-90125D01*
X336097Y-93458D01*
G54D12*
X328097Y-93458D02*
X328097Y-80125D01*
X333097Y-80125D01*
X335097Y-80958D01*
X336097Y-82625D01*
X336097Y-84291D01*
X335097Y-85958D01*
X333097Y-86791D01*
X328097Y-86791D01*
G54D12*
X339797Y-90958D02*
X340797Y-92625D01*
X342797Y-93458D01*
X344797Y-93458D01*
X346797Y-92625D01*
X347797Y-90958D01*
X347797Y-89291D01*
X346797Y-87625D01*
X344797Y-86791D01*
X342797Y-86791D01*
X340797Y-85958D01*
X339797Y-84291D01*
X339797Y-82625D01*
X340797Y-80958D01*
X342797Y-80125D01*
X344797Y-80125D01*
X346797Y-80958D01*
X347797Y-82625D01*
G54D12*
X355497Y-93458D02*
X355497Y-80125D01*
G54D12*
X351497Y-80125D02*
X359497Y-80125D01*
G54D12*
X417513Y-394588D02*
X417513Y-381255D01*
X422513Y-381255D01*
X424513Y-382088D01*
X425513Y-383755D01*
X425513Y-392088D01*
X424513Y-393755D01*
X422513Y-394588D01*
X417513Y-394588D01*
G54D12*
X429213Y-386255D02*
X434213Y-381255D01*
X434213Y-394588D01*
G54D12*
X437913Y-383755D02*
X438913Y-382088D01*
X440913Y-381255D01*
X442913Y-381255D01*
X444913Y-382088D01*
X445913Y-383755D01*
X445913Y-385421D01*
X444913Y-387088D01*
X442913Y-387921D01*
X444913Y-388755D01*
X445913Y-390421D01*
X445913Y-392088D01*
X444913Y-393755D01*
X442913Y-394588D01*
X440913Y-394588D01*
X438913Y-393755D01*
X437913Y-392088D01*
G54D12*
X426137Y-358467D02*
X427137Y-356800D01*
X429137Y-355967D01*
X431137Y-355967D01*
X433137Y-356800D01*
X434137Y-358467D01*
X434137Y-360133D01*
X433137Y-361800D01*
X431137Y-362633D01*
X433137Y-363467D01*
X434137Y-365133D01*
X434137Y-366800D01*
X433137Y-368467D01*
X431137Y-369300D01*
X429137Y-369300D01*
X427137Y-368467D01*
X426137Y-366800D01*
G54D12*
X437837Y-355967D02*
X442837Y-369300D01*
X447837Y-355967D01*
G54D13*
X418790Y-342913D02*
X422790Y-332246D01*
X426790Y-342913D01*
G54D13*
X420390Y-338913D02*
X425190Y-338913D01*
G54D13*
X429723Y-342913D02*
X429723Y-336913D01*
G54D13*
X429723Y-338246D02*
X431323Y-336913D01*
X432923Y-336913D01*
G54D13*
X441456Y-342913D02*
X435856Y-342913D01*
X435856Y-332246D01*
X441456Y-332246D01*
G54D13*
X435856Y-337580D02*
X441456Y-337580D01*
G54D13*
X444389Y-342913D02*
X444389Y-332246D01*
X449989Y-332246D01*
G54D13*
X444389Y-337580D02*
X449989Y-337580D01*
G54D12*
X424542Y-320492D02*
X429542Y-307159D01*
X434542Y-320492D01*
G54D12*
X426542Y-315492D02*
X432542Y-315492D01*
G54D12*
X446242Y-309659D02*
X446242Y-317992D01*
X445242Y-319659D01*
X443242Y-320492D01*
X441242Y-320492D01*
X439242Y-319659D01*
X438242Y-317992D01*
X438242Y-309659D01*
X439242Y-307992D01*
X441242Y-307159D01*
X443242Y-307159D01*
X445242Y-307992D01*
X446242Y-309659D01*
G54D12*
X425775Y-292771D02*
X430775Y-279438D01*
X435775Y-292771D01*
G54D12*
X427775Y-287771D02*
X433775Y-287771D01*
G54D12*
X439475Y-284438D02*
X444475Y-279438D01*
X444475Y-292771D01*
G54D12*
X424732Y-269235D02*
X429732Y-255902D01*
X434732Y-269235D01*
G54D12*
X426732Y-264235D02*
X432732Y-264235D01*
G54D12*
X446432Y-269235D02*
X438432Y-269235D01*
X438432Y-268402D01*
X439432Y-266735D01*
X445432Y-261735D01*
X446432Y-260069D01*
X446432Y-258402D01*
X445432Y-256735D01*
X443432Y-255902D01*
X441432Y-255902D01*
X439432Y-256735D01*
X438432Y-258402D01*
G54D12*
X424542Y-241117D02*
X429542Y-227784D01*
X434542Y-241117D01*
G54D12*
X426542Y-236117D02*
X432542Y-236117D01*
G54D12*
X438242Y-230284D02*
X439242Y-228617D01*
X441242Y-227784D01*
X443242Y-227784D01*
X445242Y-228617D01*
X446242Y-230284D01*
X446242Y-231950D01*
X445242Y-233617D01*
X443242Y-234450D01*
X445242Y-235284D01*
X446242Y-236950D01*
X446242Y-238617D01*
X445242Y-240284D01*
X443242Y-241117D01*
X441242Y-241117D01*
X439242Y-240284D01*
X438242Y-238617D01*
G54D12*
X424607Y-218973D02*
X429607Y-205640D01*
X434607Y-218973D01*
G54D12*
X426607Y-213973D02*
X432607Y-213973D01*
G54D12*
X444307Y-218973D02*
X444307Y-205640D01*
X438307Y-213973D01*
X438307Y-215640D01*
X446307Y-215640D01*
G54D12*
X424086Y-193303D02*
X429086Y-179970D01*
X434086Y-193303D01*
G54D12*
X426086Y-188303D02*
X432086Y-188303D01*
G54D12*
X445786Y-179970D02*
X437786Y-179970D01*
X437786Y-185803D01*
X438786Y-185803D01*
X440786Y-184970D01*
X442786Y-184970D01*
X444786Y-185803D01*
X445786Y-187470D01*
X445786Y-190803D01*
X444786Y-192470D01*
X442786Y-193303D01*
X440786Y-193303D01*
X438786Y-192470D01*
X437786Y-190803D01*
G54D12*
X424542Y-168092D02*
X429542Y-154759D01*
X434542Y-168092D01*
G54D12*
X426542Y-163092D02*
X432542Y-163092D01*
G54D12*
X446242Y-157259D02*
X445242Y-155592D01*
X443242Y-154759D01*
X441242Y-154759D01*
X439242Y-155592D01*
X438242Y-157259D01*
X438242Y-161425D01*
X438242Y-162259D01*
X441242Y-160592D01*
X443242Y-160592D01*
X445242Y-161425D01*
X446242Y-163092D01*
X446242Y-165592D01*
X445242Y-167259D01*
X443242Y-168092D01*
X441242Y-168092D01*
X439242Y-167259D01*
X438242Y-165592D01*
X438242Y-161425D01*
G54D12*
X426865Y-143566D02*
X431865Y-130233D01*
X436865Y-143566D01*
G54D12*
X428865Y-138566D02*
X434865Y-138566D01*
G54D12*
X440565Y-130233D02*
X448565Y-130233D01*
X447565Y-131899D01*
X445565Y-134399D01*
X443565Y-137733D01*
X442565Y-140233D01*
X442565Y-143566D01*
G54D12*
X433985Y-102440D02*
X425985Y-102440D01*
X425985Y-108273D01*
X426985Y-108273D01*
X428985Y-107440D01*
X430985Y-107440D01*
X432985Y-108273D01*
X433985Y-109940D01*
X433985Y-113273D01*
X432985Y-114940D01*
X430985Y-115773D01*
X428985Y-115773D01*
X426985Y-114940D01*
X425985Y-113273D01*
G54D12*
X437685Y-102440D02*
X442685Y-115773D01*
X447685Y-102440D01*
G54D13*
X424922Y-83325D02*
X427322Y-84658D01*
X428122Y-85992D01*
X428122Y-88658D01*
G54D13*
X421722Y-88658D02*
X421722Y-77992D01*
X425722Y-77992D01*
X427322Y-78658D01*
X428122Y-79992D01*
X428122Y-81325D01*
X427322Y-82658D01*
X425722Y-83325D01*
X421722Y-83325D01*
G54D13*
X431055Y-86658D02*
X431855Y-87992D01*
X433455Y-88658D01*
X435055Y-88658D01*
X436655Y-87992D01*
X437455Y-86658D01*
X437455Y-85325D01*
X436655Y-83992D01*
X435055Y-83325D01*
X433455Y-83325D01*
X431855Y-82658D01*
X431055Y-81325D01*
X431055Y-79992D01*
X431855Y-78658D01*
X433455Y-77992D01*
X435055Y-77992D01*
X436655Y-78658D01*
X437455Y-79992D01*
G54D13*
X443588Y-88658D02*
X443588Y-77992D01*
G54D13*
X440388Y-77992D02*
X446788Y-77992D01*
G54D12*
X419746Y-58750D02*
X423746Y-58750D01*
X423746Y-62916D01*
X422746Y-64583D01*
X420746Y-65416D01*
X418746Y-65416D01*
X416746Y-64583D01*
X415746Y-62916D01*
X415746Y-54583D01*
X416746Y-52916D01*
X418746Y-52083D01*
X420746Y-52083D01*
X422746Y-52916D01*
X423746Y-54583D01*
G54D12*
X427446Y-65416D02*
X427446Y-52083D01*
X435446Y-65416D01*
X435446Y-52083D01*
G54D12*
X439146Y-65416D02*
X439146Y-52083D01*
X444146Y-52083D01*
X446146Y-52916D01*
X447146Y-54583D01*
X447146Y-62916D01*
X446146Y-64583D01*
X444146Y-65416D01*
X439146Y-65416D01*
G54D12*
X423481Y-24576D02*
X428481Y-37909D01*
X433481Y-24576D01*
G54D12*
X437181Y-37909D02*
X437181Y-30409D01*
G54D12*
X437181Y-27909D02*
X437181Y-27909D01*
G54D12*
X440881Y-37909D02*
X440881Y-30409D01*
G54D12*
X440881Y-32076D02*
X441881Y-30909D01*
X443881Y-30409D01*
X445881Y-30909D01*
X446881Y-32076D01*
X446881Y-37909D01*
G54D14*
X538084Y-140652D02*
X573084Y-140652D01*
X573084Y-75652D01*
X538084Y-75652D01*
X538084Y-140652D01*
G54D15*
X507840Y-161739D02*
X498951Y-158406D01*
X507840Y-155072D01*
G54D15*
X504506Y-160406D02*
X504506Y-156406D01*
G54D15*
X507840Y-151961D02*
X498951Y-151961D01*
X504506Y-148628D01*
X498951Y-145294D01*
X507840Y-145294D01*
G54D15*
X506173Y-142183D02*
X507284Y-141516D01*
X507840Y-140183D01*
X507840Y-138850D01*
X507284Y-137516D01*
X506173Y-136850D01*
X505062Y-136850D01*
X503951Y-137516D01*
X503395Y-138850D01*
X503395Y-140183D01*
X502840Y-141516D01*
X501729Y-142183D01*
X500618Y-142183D01*
X499506Y-141516D01*
X498951Y-140183D01*
X498951Y-138850D01*
X499506Y-137516D01*
X500618Y-136850D01*
G54D15*
X502284Y-133739D02*
X498951Y-130406D01*
X507840Y-130406D01*
G54D15*
X502284Y-127295D02*
X498951Y-123962D01*
X507840Y-123962D01*
G54D15*
X502284Y-120851D02*
X498951Y-117518D01*
X507840Y-117518D01*
G54D15*
X498951Y-114407D02*
X498951Y-109074D01*
X500062Y-109740D01*
X501729Y-111074D01*
X503951Y-112407D01*
X505618Y-113074D01*
X507840Y-113074D01*
G54D15*
X503951Y-105963D02*
X503951Y-100630D01*
G54D15*
X498951Y-92186D02*
X498951Y-97519D01*
X502840Y-97519D01*
X502840Y-96852D01*
X502284Y-95519D01*
X502284Y-94186D01*
X502840Y-92852D01*
X503951Y-92186D01*
X506173Y-92186D01*
X507284Y-92852D01*
X507840Y-94186D01*
X507840Y-95519D01*
X507284Y-96852D01*
X506173Y-97519D01*
G54D15*
X507840Y-88542D02*
X507840Y-89075D01*
X507395Y-89075D01*
X507395Y-88542D01*
X507840Y-88542D01*
X507840Y-89075D01*
G54D15*
X500618Y-80098D02*
X506173Y-80098D01*
X507284Y-80764D01*
X507840Y-82098D01*
X507840Y-83431D01*
X507284Y-84764D01*
X506173Y-85431D01*
X500618Y-85431D01*
X499506Y-84764D01*
X498951Y-83431D01*
X498951Y-82098D01*
X499506Y-80764D01*
X500618Y-80098D01*
G54D16*
X608059Y-34882D02*
X614359Y-28582D01*
X627159Y-28582D01*
X633459Y-34882D01*
X633459Y-47682D01*
X627159Y-53982D01*
X614359Y-53982D01*
X608059Y-47682D01*
X608059Y-34882D01*
G54D16*
X633459Y-34882D02*
X639759Y-28582D01*
X652559Y-28582D01*
X658859Y-34882D01*
X658859Y-47682D01*
X652559Y-53982D01*
X639759Y-53982D01*
X633459Y-47682D01*
X633459Y-34882D01*
G54D17*
X616451Y-7418D02*
X609518Y-7418D01*
X609518Y-12473D01*
X610384Y-12473D01*
X612118Y-11751D01*
X613851Y-11751D01*
X615584Y-12473D01*
X616451Y-13918D01*
X616451Y-16806D01*
X615584Y-18251D01*
X613851Y-18973D01*
X612118Y-18973D01*
X610384Y-18251D01*
X609518Y-16806D01*
G54D17*
X620495Y-13918D02*
X627428Y-13918D01*
G54D17*
X631472Y-11751D02*
X635805Y-7418D01*
X635805Y-18973D01*
G54D17*
X646782Y-18973D02*
X639849Y-18973D01*
X639849Y-18251D01*
X640715Y-16806D01*
X645915Y-12473D01*
X646782Y-11029D01*
X646782Y-9584D01*
X645915Y-8140D01*
X644182Y-7418D01*
X642449Y-7418D01*
X640715Y-8140D01*
X639849Y-9584D01*
G54D17*
X650826Y-12473D02*
X654292Y-18973D01*
X657759Y-12473D01*
G54D18*
X668629Y-18925D02*
X668629Y-32258D01*
G54D18*
X674184Y-25592D02*
X663073Y-25592D01*
G54D16*
X174973Y-33293D02*
X168673Y-26993D01*
X155873Y-26993D01*
X149573Y-33293D01*
X149573Y-46093D01*
X155873Y-52393D01*
X168673Y-52393D01*
X174973Y-46093D01*
X174973Y-33293D01*
G54D16*
X149573Y-33293D02*
X143273Y-26993D01*
X130473Y-26993D01*
X124173Y-33293D01*
X124173Y-46093D01*
X130473Y-52393D01*
X143273Y-52393D01*
X149573Y-46093D01*
X149573Y-33293D01*
G54D16*
X124173Y-33293D02*
X117873Y-26993D01*
X105073Y-26993D01*
X98773Y-33293D01*
X98773Y-46093D01*
X105073Y-52393D01*
X117873Y-52393D01*
X124173Y-46093D01*
X124173Y-33293D01*
G54D15*
X112662Y-13968D02*
X112662Y-19523D01*
X111996Y-20634D01*
X110662Y-21190D01*
X109329Y-21190D01*
X107996Y-20634D01*
X107329Y-19523D01*
X107329Y-13968D01*
X107996Y-12856D01*
X109329Y-12301D01*
X110662Y-12301D01*
X111996Y-12856D01*
X112662Y-13968D01*
G54D15*
X128172Y-21190D02*
X128172Y-12301D01*
G54D15*
X125505Y-12301D02*
X130838Y-12301D01*
G54D15*
X133949Y-21190D02*
X133949Y-16190D01*
G54D15*
X133949Y-17301D02*
X135282Y-16190D01*
X136616Y-16190D01*
G54D15*
X145060Y-21190D02*
X139727Y-21190D01*
X139727Y-20634D01*
X140394Y-19523D01*
X144394Y-16190D01*
X145060Y-15079D01*
X145060Y-13968D01*
X144394Y-12856D01*
X143060Y-12301D01*
X141727Y-12301D01*
X140394Y-12856D01*
X139727Y-13968D01*
G54D15*
X157326Y-21190D02*
X157326Y-12301D01*
G54D15*
X154659Y-12301D02*
X159992Y-12301D01*
G54D15*
X163103Y-21190D02*
X163103Y-16190D01*
G54D15*
X163103Y-17301D02*
X164436Y-16190D01*
X165770Y-16190D01*
G54D15*
X168881Y-15634D02*
X172214Y-12301D01*
X172214Y-21190D01*
G54D17*
X193374Y-43561D02*
X193374Y-32006D01*
X197707Y-32006D01*
X199440Y-32728D01*
X200307Y-34172D01*
X200307Y-35617D01*
X199440Y-37061D01*
X197707Y-37783D01*
X193374Y-37783D01*
G54D17*
X207817Y-43561D02*
X207817Y-32006D01*
G54D17*
X204351Y-32006D02*
X211284Y-32006D01*
G54D17*
X218794Y-43561D02*
X218794Y-32006D01*
G54D17*
X215328Y-32006D02*
X222261Y-32006D01*
G54D17*
X234739Y-43561D02*
X241672Y-43561D01*
G54D17*
X238205Y-43561D02*
X238205Y-32006D01*
G54D17*
X234739Y-32006D02*
X241672Y-32006D01*
G54D17*
X245716Y-43561D02*
X245716Y-37061D01*
G54D17*
X245716Y-38506D02*
X246582Y-37494D01*
X248316Y-37061D01*
X250049Y-37494D01*
X250916Y-38506D01*
X250916Y-43561D01*
G54D14*
X511288Y-34950D02*
X533288Y-34950D01*
X533288Y-72950D01*
X511288Y-72950D01*
X511288Y-34950D01*
G54D19*
X499247Y-21582D02*
X501580Y-19249D01*
X501580Y-25471D01*
G54D19*
X507491Y-20415D02*
X507491Y-24304D01*
X507024Y-25082D01*
X506091Y-25471D01*
X505158Y-25471D01*
X504224Y-25082D01*
X503758Y-24304D01*
X503758Y-20415D01*
X504224Y-19638D01*
X505158Y-19249D01*
X506091Y-19249D01*
X507024Y-19638D01*
X507491Y-20415D01*
G54D19*
X513402Y-20415D02*
X513402Y-24304D01*
X512935Y-25082D01*
X512002Y-25471D01*
X511069Y-25471D01*
X510135Y-25082D01*
X509669Y-24304D01*
X509669Y-20415D01*
X510135Y-19638D01*
X511069Y-19249D01*
X512002Y-19249D01*
X512935Y-19638D01*
X513402Y-20415D01*
G54D19*
X515580Y-25471D02*
X515580Y-21971D01*
G54D19*
X515580Y-22749D02*
X516046Y-22204D01*
X516980Y-21971D01*
X517913Y-22204D01*
X518380Y-22749D01*
X518380Y-25471D01*
G54D16*
X565125Y-25400D02*
X565125Y-50800D01*
G54D16*
X571525Y-25400D02*
X571525Y-50800D01*
G54D16*
X555625Y-38100D02*
X565125Y-38100D01*
G54D16*
X571525Y-38100D02*
X581025Y-38100D01*
G54D16*
X552425Y-25400D02*
X558825Y-25400D01*
G54D16*
X555625Y-22200D02*
X555625Y-28600D01*
G54D20*
G75*
G01X598525Y-38100D02*
G03X598525Y-38100I-30200J0D01*
G01*
G54D16*
X565225Y-25400D02*
X568325Y-25400D01*
X568325Y-50800D01*
X565225Y-50800D01*
G54D19*
X585284Y-68435D02*
X587618Y-66102D01*
X587618Y-72324D01*
G54D19*
X593529Y-67268D02*
X593529Y-71157D01*
X593062Y-71935D01*
X592129Y-72324D01*
X591195Y-72324D01*
X590262Y-71935D01*
X589795Y-71157D01*
X589795Y-67268D01*
X590262Y-66490D01*
X591195Y-66102D01*
X592129Y-66102D01*
X593062Y-66490D01*
X593529Y-67268D01*
G54D19*
X599440Y-67268D02*
X599440Y-71157D01*
X598973Y-71935D01*
X598040Y-72324D01*
X597106Y-72324D01*
X596173Y-71935D01*
X595706Y-71157D01*
X595706Y-67268D01*
X596173Y-66490D01*
X597106Y-66102D01*
X598040Y-66102D01*
X598973Y-66490D01*
X599440Y-67268D01*
G54D19*
X604417Y-68824D02*
X604417Y-72324D01*
G54D19*
X604417Y-71546D02*
X603951Y-72168D01*
X603017Y-72324D01*
X602084Y-72168D01*
X601617Y-71546D01*
X601617Y-68824D01*
G54D19*
X606595Y-72324D02*
X606595Y-66102D01*
X609862Y-66102D01*
G54D19*
X606595Y-69213D02*
X609862Y-69213D01*
G54D16*
X706942Y-192743D02*
X713242Y-186443D01*
X713243Y-173643D01*
X706943Y-167343D01*
X694143Y-167343D01*
X687842Y-173643D01*
X687842Y-186443D01*
X694142Y-192743D01*
X706942Y-192743D01*
G54D16*
X706943Y-167343D02*
X713242Y-161043D01*
X713243Y-148243D01*
X706942Y-141943D01*
X694142Y-141943D01*
X687843Y-148243D01*
X687842Y-161043D01*
X694143Y-167343D01*
X706943Y-167343D01*
G54D16*
X706942Y-141943D02*
X713243Y-135643D01*
X713243Y-122843D01*
X706942Y-116543D01*
X694143Y-116543D01*
X687843Y-122843D01*
X687842Y-135643D01*
X694142Y-141943D01*
X706942Y-141943D01*
G54D21*
X732501Y-187508D02*
X721834Y-187508D01*
X721834Y-181108D01*
X723168Y-181108D01*
G54D21*
X725834Y-187508D02*
X725834Y-182708D01*
X727168Y-181108D01*
X731168Y-181108D01*
X732501Y-182708D01*
X732501Y-187508D01*
G54D21*
X732501Y-177375D02*
X731834Y-176575D01*
X727834Y-176575D01*
X726501Y-174975D01*
X726501Y-172575D01*
X732501Y-172575D01*
G54D21*
X730901Y-164042D02*
X728234Y-164042D01*
X726901Y-164842D01*
X726501Y-166442D01*
X726901Y-168042D01*
X728234Y-168842D01*
X730901Y-168842D01*
X732234Y-168042D01*
X732501Y-166442D01*
X732234Y-164842D01*
X730901Y-164042D01*
G54D21*
X732501Y-160309D02*
X726501Y-160309D01*
G54D21*
X728501Y-157909D02*
X732501Y-155509D01*
G54D21*
X729834Y-160309D02*
X726501Y-155509D01*
G54D21*
X732501Y-151136D02*
X732501Y-151776D01*
X731968Y-151776D01*
X731968Y-151136D01*
X732501Y-151136D01*
X732501Y-151776D01*
G54D21*
X732501Y-140310D02*
X721834Y-140310D01*
G54D21*
X721834Y-143510D02*
X721834Y-137110D01*
G54D21*
X732501Y-133377D02*
X726501Y-133377D01*
G54D21*
X727834Y-133377D02*
X726501Y-131777D01*
X726501Y-130177D01*
G54D21*
X725834Y-126444D02*
X721834Y-122444D01*
X732501Y-122444D01*
G54D21*
X671822Y-176972D02*
X678488Y-176972D01*
X679822Y-177772D01*
X680488Y-179372D01*
X680488Y-180972D01*
X679822Y-182572D01*
X678488Y-183372D01*
X671822Y-183372D01*
X670488Y-182572D01*
X669822Y-180972D01*
X669822Y-179372D01*
X670488Y-177772D01*
X671822Y-176972D01*
G54D21*
X680488Y-157667D02*
X669822Y-157667D01*
X680488Y-151267D01*
X669822Y-151267D01*
G54D21*
X678488Y-125562D02*
X679822Y-126362D01*
X680488Y-127962D01*
X680488Y-129562D01*
X679822Y-131162D01*
X678488Y-131962D01*
X671822Y-131962D01*
X670488Y-131162D01*
X669822Y-129562D01*
X669822Y-127962D01*
X670488Y-126362D01*
X671822Y-125562D01*
G54D16*
X262344Y-400391D02*
X268644Y-394091D01*
X268644Y-381291D01*
X262344Y-374991D01*
X249544Y-374991D01*
X243244Y-381291D01*
X243244Y-394091D01*
X249544Y-400391D01*
X262344Y-400391D01*
G54D16*
X262344Y-374991D02*
X268644Y-368691D01*
X268644Y-355891D01*
X262344Y-349591D01*
X249544Y-349591D01*
X243244Y-355891D01*
X243244Y-368691D01*
X249544Y-374991D01*
X262344Y-374991D01*
G54D15*
X244372Y-340449D02*
X245039Y-341560D01*
X246372Y-342115D01*
X247706Y-342115D01*
X249039Y-341560D01*
X249706Y-340449D01*
X249706Y-339338D01*
X249039Y-338226D01*
X247706Y-337671D01*
X246372Y-337671D01*
X245039Y-337115D01*
X244372Y-336004D01*
X244372Y-334893D01*
X245039Y-333782D01*
X246372Y-333226D01*
X247706Y-333226D01*
X249039Y-333782D01*
X249706Y-334893D01*
G54D15*
X252816Y-337115D02*
X252816Y-344338D01*
G54D15*
X252816Y-340449D02*
X253483Y-341893D01*
X254816Y-342115D01*
X256150Y-341893D01*
X256816Y-340782D01*
X256816Y-338560D01*
X256150Y-337449D01*
X254816Y-337115D01*
X253483Y-337449D01*
X252816Y-338782D01*
G54D15*
X259927Y-342115D02*
X259927Y-333226D01*
G54D15*
X261927Y-338782D02*
X263927Y-342115D01*
G54D15*
X259927Y-339893D02*
X263927Y-337115D01*
G54D15*
X271276Y-363913D02*
X276610Y-363913D01*
G54D15*
X273943Y-361691D02*
X273943Y-366136D01*
G54D16*
X609684Y-164076D02*
X603384Y-157776D01*
X590584Y-157776D01*
X584284Y-164076D01*
X584284Y-176876D01*
X590584Y-183176D01*
X603384Y-183176D01*
X609684Y-176876D01*
X609684Y-164076D01*
G54D16*
X584284Y-164076D02*
X577984Y-157776D01*
X565184Y-157776D01*
X558884Y-164076D01*
X558884Y-176876D01*
X565184Y-183176D01*
X577984Y-183176D01*
X584284Y-176876D01*
X584284Y-164076D01*
G54D16*
X558884Y-164076D02*
X552584Y-157776D01*
X539784Y-157776D01*
X533484Y-164076D01*
X533484Y-176876D01*
X539784Y-183176D01*
X552584Y-183176D01*
X558884Y-176876D01*
X558884Y-164076D01*
G54D16*
X533484Y-164076D02*
X527184Y-157776D01*
X514384Y-157776D01*
X508084Y-164076D01*
X508084Y-176876D01*
X514384Y-183176D01*
X527184Y-183176D01*
X533484Y-176876D01*
X533484Y-164076D01*
G54D19*
X564951Y-152256D02*
X568684Y-152256D01*
G54D19*
X566818Y-152256D02*
X566818Y-146034D01*
G54D19*
X564951Y-146034D02*
X568684Y-146034D01*
G54D19*
X574595Y-152256D02*
X570862Y-152256D01*
X570862Y-151867D01*
X571329Y-151089D01*
X574129Y-148756D01*
X574595Y-147978D01*
X574595Y-147200D01*
X574129Y-146423D01*
X573195Y-146034D01*
X572262Y-146034D01*
X571329Y-146423D01*
X570862Y-147200D01*
G54D19*
X580506Y-151089D02*
X580040Y-151867D01*
X579106Y-152256D01*
X578173Y-152256D01*
X577240Y-151867D01*
X576773Y-151089D01*
X576773Y-147200D01*
X577240Y-146423D01*
X578173Y-146034D01*
X579106Y-146034D01*
X580040Y-146423D01*
X580506Y-147200D01*
G54D19*
X584955Y-146034D02*
X584955Y-152256D01*
X588222Y-152256D01*
G54D19*
X594133Y-151089D02*
X593667Y-151867D01*
X592733Y-152256D01*
X591800Y-152256D01*
X590867Y-151867D01*
X590400Y-151089D01*
X590400Y-147200D01*
X590867Y-146423D01*
X591800Y-146034D01*
X592733Y-146034D01*
X593667Y-146423D01*
X594133Y-147200D01*
G54D19*
X596311Y-152256D02*
X596311Y-146034D01*
X598644Y-146034D01*
X599578Y-146423D01*
X600044Y-147200D01*
X600044Y-151089D01*
X599578Y-151867D01*
X598644Y-152256D01*
X596311Y-152256D01*
G54D19*
X516817Y-190735D02*
X518683Y-190735D01*
X518683Y-192680D01*
X518217Y-193457D01*
X517283Y-193846D01*
X516350Y-193846D01*
X515417Y-193457D01*
X514950Y-192680D01*
X514950Y-188791D01*
X515417Y-188013D01*
X516350Y-187624D01*
X517283Y-187624D01*
X518217Y-188013D01*
X518683Y-188791D01*
G54D19*
X520861Y-193846D02*
X520861Y-190346D01*
G54D19*
X520861Y-191124D02*
X521328Y-190580D01*
X522261Y-190346D01*
X523194Y-190580D01*
X523661Y-191124D01*
X523661Y-193846D01*
G54D19*
X528639Y-193846D02*
X528639Y-187624D01*
G54D19*
X528639Y-191357D02*
X528172Y-190580D01*
X527239Y-190346D01*
X526306Y-190580D01*
X525839Y-191357D01*
X525839Y-192913D01*
X526306Y-193691D01*
X527239Y-193846D01*
X528172Y-193691D01*
X528639Y-192913D01*
G54D19*
X539901Y-187624D02*
X542234Y-193846D01*
X544568Y-187624D01*
G54D19*
X549079Y-190580D02*
X548146Y-190346D01*
X547213Y-190580D01*
X546746Y-191357D01*
X546746Y-192913D01*
X547213Y-193691D01*
X548146Y-193846D01*
X549079Y-193691D01*
G54D19*
X553590Y-190580D02*
X552657Y-190346D01*
X551724Y-190580D01*
X551257Y-191357D01*
X551257Y-192913D01*
X551724Y-193691D01*
X552657Y-193846D01*
X553590Y-193691D01*
G54D19*
X564852Y-192680D02*
X565319Y-193457D01*
X566252Y-193846D01*
X567185Y-193846D01*
X568119Y-193457D01*
X568585Y-192680D01*
X568585Y-191902D01*
X568119Y-191124D01*
X567185Y-190735D01*
X566252Y-190735D01*
X565319Y-190346D01*
X564852Y-189568D01*
X564852Y-188791D01*
X565319Y-188013D01*
X566252Y-187624D01*
X567185Y-187624D01*
X568119Y-188013D01*
X568585Y-188791D01*
G54D19*
X573563Y-193846D02*
X573563Y-187624D01*
G54D19*
X573563Y-191357D02*
X573096Y-190580D01*
X572163Y-190346D01*
X571230Y-190580D01*
X570763Y-191357D01*
X570763Y-192913D01*
X571230Y-193691D01*
X572163Y-193846D01*
X573096Y-193691D01*
X573563Y-192913D01*
G54D19*
X575741Y-190735D02*
X576674Y-190346D01*
X577794Y-190346D01*
X578541Y-191124D01*
X578541Y-193846D01*
G54D19*
X578541Y-192680D02*
X578074Y-191902D01*
X577141Y-191746D01*
X576208Y-191902D01*
X575741Y-192680D01*
X575928Y-193457D01*
X576674Y-193846D01*
X577141Y-193846D01*
X577328Y-193846D01*
X578074Y-193457D01*
X578541Y-192680D01*
G54D19*
X592074Y-192680D02*
X592541Y-193457D01*
X593474Y-193846D01*
X594407Y-193846D01*
X595341Y-193457D01*
X595807Y-192680D01*
X595807Y-191902D01*
X595341Y-191124D01*
X594407Y-190735D01*
X593474Y-190735D01*
X592541Y-190346D01*
X592074Y-189568D01*
X592074Y-188791D01*
X592541Y-188013D01*
X593474Y-187624D01*
X594407Y-187624D01*
X595341Y-188013D01*
X595807Y-188791D01*
G54D19*
X600318Y-190580D02*
X599385Y-190346D01*
X598452Y-190580D01*
X597985Y-191357D01*
X597985Y-192913D01*
X598452Y-193691D01*
X599385Y-193846D01*
X600318Y-193691D01*
G54D19*
X602496Y-193846D02*
X602496Y-187624D01*
G36*
X123875Y-80938D02*
X35075Y-80938D01*
X35075Y-74538D01*
X123875Y-74538D01*
X123875Y-80938D01*
G37*
G54D16*
X123875Y-80938D02*
X35075Y-80938D01*
X35075Y-74538D01*
X123875Y-74538D01*
X123875Y-80938D01*
G54D16*
X123875Y-74538D02*
X123875Y-112538D01*
X34875Y-112538D01*
X34875Y-74538D01*
X123875Y-74538D01*
G54D22*
X102091Y-123844D02*
X102091Y-116733D01*
X104758Y-116733D01*
X105824Y-117177D01*
X106358Y-118066D01*
X106358Y-118955D01*
X105824Y-119844D01*
X104758Y-120288D01*
X105824Y-120733D01*
X106358Y-121622D01*
X106358Y-122510D01*
X105824Y-123399D01*
X104758Y-123844D01*
X102091Y-123844D01*
G54D22*
X102091Y-120288D02*
X104758Y-120288D01*
G54D22*
X81009Y-122510D02*
X80475Y-123399D01*
X79409Y-123844D01*
X78342Y-123844D01*
X77275Y-123399D01*
X76742Y-122510D01*
X76742Y-118066D01*
X77275Y-117177D01*
X78342Y-116733D01*
X79409Y-116733D01*
X80475Y-117177D01*
X81009Y-118066D01*
G54D22*
X55651Y-123844D02*
X51918Y-123844D01*
X51918Y-116733D01*
X55651Y-116733D01*
G54D22*
X51918Y-120288D02*
X55651Y-120288D01*
G54D23*
X95590Y-408903D02*
X94897Y-408903D01*
X94897Y-408325D01*
X95590Y-408325D01*
X95590Y-408903D01*
X94897Y-408903D01*
G54D16*
X149225Y-355550D02*
X142925Y-349250D01*
X130125Y-349250D01*
X123825Y-355550D01*
X123825Y-368350D01*
X130125Y-374650D01*
X142925Y-374650D01*
X149225Y-368350D01*
X149225Y-355550D01*
G54D16*
X149225Y-380950D02*
X142925Y-374650D01*
X130125Y-374650D01*
X123825Y-380950D01*
X123825Y-393750D01*
X130125Y-400050D01*
X142925Y-400050D01*
X149225Y-393750D01*
X149225Y-380950D01*
G54D16*
X123825Y-355550D02*
X117525Y-349250D01*
X104725Y-349250D01*
X98425Y-355550D01*
X98425Y-368350D01*
X104725Y-374650D01*
X117525Y-374650D01*
X123825Y-368350D01*
X123825Y-355550D01*
G54D16*
X123825Y-380950D02*
X117525Y-374650D01*
X104725Y-374650D01*
X98425Y-380950D01*
X98425Y-393750D01*
X104725Y-400050D01*
X117525Y-400050D01*
X123825Y-393750D01*
X123825Y-380950D01*
G54D16*
X98425Y-355550D02*
X92125Y-349250D01*
X79325Y-349250D01*
X73025Y-355550D01*
X73025Y-368350D01*
X79325Y-374650D01*
X92125Y-374650D01*
X98425Y-368350D01*
X98425Y-355550D01*
G54D16*
X98425Y-380950D02*
X92125Y-374650D01*
X79325Y-374650D01*
X73025Y-380950D01*
X73025Y-393750D01*
X79325Y-400050D01*
X92125Y-400050D01*
X98425Y-393750D01*
X98425Y-380950D01*
G54D16*
X73025Y-355550D02*
X66725Y-349250D01*
X53925Y-349250D01*
X47625Y-355550D01*
X47625Y-368350D01*
X53925Y-374650D01*
X66725Y-374650D01*
X73025Y-368350D01*
X73025Y-355550D01*
G54D16*
X73025Y-380950D02*
X66725Y-374650D01*
X53925Y-374650D01*
X47625Y-380950D01*
X47625Y-393750D01*
X53925Y-400050D01*
X66725Y-400050D01*
X73025Y-393750D01*
X73025Y-380950D01*
G54D16*
X47625Y-355550D02*
X41325Y-349250D01*
X28525Y-349250D01*
X22225Y-355550D01*
X22225Y-368350D01*
X28525Y-374650D01*
X41325Y-374650D01*
X47625Y-368350D01*
X47625Y-355550D01*
G54D16*
X47625Y-380950D02*
X41325Y-374650D01*
X28525Y-374650D01*
X22225Y-380950D01*
X22225Y-393750D01*
X28525Y-400050D01*
X41325Y-400050D01*
X47625Y-393750D01*
X47625Y-380950D01*
G54D24*
X58833Y-331818D02*
X63833Y-326818D01*
X63833Y-340152D01*
G54D24*
X92233Y-340152D02*
X84233Y-340152D01*
X84233Y-339318D01*
X85233Y-337652D01*
X91233Y-332652D01*
X92233Y-330985D01*
X92233Y-329318D01*
X91233Y-327652D01*
X89233Y-326818D01*
X87233Y-326818D01*
X85233Y-327652D01*
X84233Y-329318D01*
G54D24*
X109633Y-329318D02*
X110633Y-327652D01*
X112633Y-326818D01*
X114633Y-326818D01*
X116633Y-327652D01*
X117633Y-329318D01*
X117633Y-330985D01*
X116633Y-332652D01*
X114633Y-333485D01*
X116633Y-334318D01*
X117633Y-335985D01*
X117633Y-337652D01*
X116633Y-339318D01*
X114633Y-340152D01*
X112633Y-340152D01*
X110633Y-339318D01*
X109633Y-337652D01*
G54D24*
X33083Y-340152D02*
X33083Y-326818D01*
X27083Y-335152D01*
X27083Y-336818D01*
X35083Y-336818D01*
G54D24*
X143033Y-409368D02*
X135033Y-409368D01*
X135033Y-415202D01*
X136033Y-415202D01*
X138033Y-414368D01*
X140033Y-414368D01*
X142033Y-415202D01*
X143033Y-416868D01*
X143033Y-420202D01*
X142033Y-421868D01*
X140033Y-422702D01*
X138033Y-422702D01*
X136033Y-421868D01*
X135033Y-420202D01*
G54D24*
X143033Y-329318D02*
X142033Y-327652D01*
X140033Y-326818D01*
X138033Y-326818D01*
X136033Y-327652D01*
X135033Y-329318D01*
X135033Y-333485D01*
X135033Y-334318D01*
X138033Y-332652D01*
X140033Y-332652D01*
X142033Y-333485D01*
X143033Y-335152D01*
X143033Y-337652D01*
X142033Y-339318D01*
X140033Y-340152D01*
X138033Y-340152D01*
X136033Y-339318D01*
X135033Y-337652D01*
X135033Y-333485D01*
G54D24*
X55658Y-409368D02*
X63658Y-409368D01*
X62658Y-411035D01*
X60658Y-413535D01*
X58658Y-416868D01*
X57658Y-419368D01*
X57658Y-422702D01*
G54D24*
X114633Y-416035D02*
X112633Y-416035D01*
X110633Y-415202D01*
X109633Y-413535D01*
X109633Y-411868D01*
X110633Y-410202D01*
X112633Y-409368D01*
X114633Y-409368D01*
X116633Y-410202D01*
X117633Y-411868D01*
X117633Y-413535D01*
X116633Y-415202D01*
X114633Y-416035D01*
X116633Y-416868D01*
X117633Y-418535D01*
X117633Y-420202D01*
X116633Y-421868D01*
X114633Y-422702D01*
X112633Y-422702D01*
X110633Y-421868D01*
X109633Y-420202D01*
X109633Y-418535D01*
X110633Y-416868D01*
X112633Y-416035D01*
G54D25*
X33433Y-416352D02*
X33433Y-416352D01*
G54D25*
X33633Y-410052D02*
X33633Y-410052D01*
G54D25*
X33633Y-417052D02*
X33633Y-417052D01*
G54D20*
X27333Y-417052D02*
X33633Y-417052D01*
G54D20*
X33633Y-417052D02*
X39933Y-417052D01*
G54D20*
X33633Y-410752D02*
X33633Y-417052D01*
G54D20*
X29333Y-420752D02*
X37333Y-420752D01*
G54D20*
X32533Y-424252D02*
X34533Y-424252D01*
G36*
X231825Y-82526D02*
X143025Y-82526D01*
X143025Y-76126D01*
X231825Y-76126D01*
X231825Y-82526D01*
G37*
G54D16*
X231825Y-82526D02*
X143025Y-82526D01*
X143025Y-76126D01*
X231825Y-76126D01*
X231825Y-82526D01*
G54D16*
X231825Y-76126D02*
X231825Y-114126D01*
X142825Y-114126D01*
X142825Y-76126D01*
X231825Y-76126D01*
G54D22*
X210041Y-125431D02*
X210041Y-118320D01*
X212708Y-118320D01*
X213774Y-118765D01*
X214308Y-119653D01*
X214308Y-120542D01*
X213774Y-121431D01*
X212708Y-121876D01*
X213774Y-122320D01*
X214308Y-123209D01*
X214308Y-124098D01*
X213774Y-124987D01*
X212708Y-125431D01*
X210041Y-125431D01*
G54D22*
X210041Y-121876D02*
X212708Y-121876D01*
G54D22*
X188959Y-124098D02*
X188425Y-124987D01*
X187359Y-125431D01*
X186292Y-125431D01*
X185225Y-124987D01*
X184692Y-124098D01*
X184692Y-119653D01*
X185225Y-118765D01*
X186292Y-118320D01*
X187359Y-118320D01*
X188425Y-118765D01*
X188959Y-119653D01*
G54D22*
X163601Y-125431D02*
X159868Y-125431D01*
X159868Y-118320D01*
X163601Y-118320D01*
G54D22*
X159868Y-121876D02*
X163601Y-121876D01*
G36*
X123875Y-146026D02*
X35075Y-146026D01*
X35075Y-139626D01*
X123875Y-139626D01*
X123875Y-146026D01*
G37*
G54D16*
X123875Y-146026D02*
X35075Y-146026D01*
X35075Y-139626D01*
X123875Y-139626D01*
X123875Y-146026D01*
G54D16*
X123875Y-139626D02*
X123875Y-177626D01*
X34875Y-177626D01*
X34875Y-139626D01*
X123875Y-139626D01*
G54D22*
X102091Y-188931D02*
X102091Y-181820D01*
X104758Y-181820D01*
X105824Y-182265D01*
X106358Y-183153D01*
X106358Y-184042D01*
X105824Y-184931D01*
X104758Y-185376D01*
X105824Y-185820D01*
X106358Y-186709D01*
X106358Y-187598D01*
X105824Y-188487D01*
X104758Y-188931D01*
X102091Y-188931D01*
G54D22*
X102091Y-185376D02*
X104758Y-185376D01*
G54D22*
X81009Y-187598D02*
X80475Y-188487D01*
X79409Y-188931D01*
X78342Y-188931D01*
X77275Y-188487D01*
X76742Y-187598D01*
X76742Y-183153D01*
X77275Y-182265D01*
X78342Y-181820D01*
X79409Y-181820D01*
X80475Y-182265D01*
X81009Y-183153D01*
G54D22*
X55651Y-188931D02*
X51918Y-188931D01*
X51918Y-181820D01*
X55651Y-181820D01*
G54D22*
X51918Y-185376D02*
X55651Y-185376D01*
G36*
X231825Y-147613D02*
X143025Y-147613D01*
X143025Y-141213D01*
X231825Y-141213D01*
X231825Y-147613D01*
G37*
G54D16*
X231825Y-147613D02*
X143025Y-147613D01*
X143025Y-141213D01*
X231825Y-141213D01*
X231825Y-147613D01*
G54D16*
X231825Y-141213D02*
X231825Y-179213D01*
X142825Y-179213D01*
X142825Y-141213D01*
X231825Y-141213D01*
G54D22*
X210041Y-190519D02*
X210041Y-183408D01*
X212708Y-183408D01*
X213774Y-183852D01*
X214308Y-184741D01*
X214308Y-185630D01*
X213774Y-186519D01*
X212708Y-186963D01*
X213774Y-187408D01*
X214308Y-188296D01*
X214308Y-189185D01*
X213774Y-190074D01*
X212708Y-190519D01*
X210041Y-190519D01*
G54D22*
X210041Y-186963D02*
X212708Y-186963D01*
G54D22*
X188959Y-189185D02*
X188425Y-190074D01*
X187359Y-190519D01*
X186292Y-190519D01*
X185225Y-190074D01*
X184692Y-189185D01*
X184692Y-184741D01*
X185225Y-183852D01*
X186292Y-183408D01*
X187359Y-183408D01*
X188425Y-183852D01*
X188959Y-184741D01*
G54D22*
X163601Y-190519D02*
X159868Y-190519D01*
X159868Y-183408D01*
X163601Y-183408D01*
G54D22*
X159868Y-186963D02*
X163601Y-186963D01*
G54D23*
X111675Y-200888D02*
X111675Y-189332D01*
G54D23*
X111675Y-197277D02*
X118608Y-189332D01*
G54D23*
X114275Y-195110D02*
X118608Y-200888D01*
G54D23*
X125253Y-200888D02*
X125253Y-189332D01*
G54D23*
X121786Y-189332D02*
X128719Y-189332D01*
G54D23*
X136230Y-195110D02*
X134497Y-195110D01*
X132764Y-194388D01*
X131897Y-192943D01*
X131897Y-191499D01*
X132764Y-190054D01*
X134497Y-189332D01*
X136230Y-189332D01*
X137964Y-190054D01*
X138830Y-191499D01*
X138830Y-192943D01*
X137964Y-194388D01*
X136230Y-195110D01*
X137964Y-195832D01*
X138830Y-197277D01*
X138830Y-198721D01*
X137964Y-200166D01*
X136230Y-200888D01*
X134497Y-200888D01*
X132764Y-200166D01*
X131897Y-198721D01*
X131897Y-197277D01*
X132764Y-195832D01*
X134497Y-195110D01*
G54D23*
X142008Y-193666D02*
X146341Y-189332D01*
X146341Y-200888D01*
G54D23*
X156452Y-189332D02*
X149519Y-189332D01*
X149519Y-194388D01*
X150386Y-194388D01*
X152119Y-193666D01*
X153852Y-193666D01*
X155586Y-194388D01*
X156452Y-195832D01*
X156452Y-198721D01*
X155586Y-200166D01*
X153852Y-200888D01*
X152119Y-200888D01*
X150386Y-200166D01*
X149519Y-198721D01*
G36*
X123875Y-212701D02*
X35075Y-212701D01*
X35075Y-206301D01*
X123875Y-206301D01*
X123875Y-212701D01*
G37*
G54D16*
X123875Y-212701D02*
X35075Y-212701D01*
X35075Y-206301D01*
X123875Y-206301D01*
X123875Y-212701D01*
G54D16*
X123875Y-206301D02*
X123875Y-244301D01*
X34875Y-244301D01*
X34875Y-206301D01*
X123875Y-206301D01*
G54D22*
X102091Y-255606D02*
X102091Y-248495D01*
X104758Y-248495D01*
X105824Y-248940D01*
X106358Y-249828D01*
X106358Y-250717D01*
X105824Y-251606D01*
X104758Y-252051D01*
X105824Y-252495D01*
X106358Y-253384D01*
X106358Y-254273D01*
X105824Y-255162D01*
X104758Y-255606D01*
X102091Y-255606D01*
G54D22*
X102091Y-252051D02*
X104758Y-252051D01*
G54D22*
X81009Y-254273D02*
X80475Y-255162D01*
X79409Y-255606D01*
X78342Y-255606D01*
X77275Y-255162D01*
X76742Y-254273D01*
X76742Y-249828D01*
X77275Y-248940D01*
X78342Y-248495D01*
X79409Y-248495D01*
X80475Y-248940D01*
X81009Y-249828D01*
G54D22*
X55651Y-255606D02*
X51918Y-255606D01*
X51918Y-248495D01*
X55651Y-248495D01*
G54D22*
X51918Y-252051D02*
X55651Y-252051D01*
G36*
X231825Y-212701D02*
X143025Y-212701D01*
X143025Y-206301D01*
X231825Y-206301D01*
X231825Y-212701D01*
G37*
G54D16*
X231825Y-212701D02*
X143025Y-212701D01*
X143025Y-206301D01*
X231825Y-206301D01*
X231825Y-212701D01*
G54D16*
X231825Y-206301D02*
X231825Y-244301D01*
X142825Y-244301D01*
X142825Y-206301D01*
X231825Y-206301D01*
G54D22*
X210041Y-255606D02*
X210041Y-248495D01*
X212708Y-248495D01*
X213774Y-248940D01*
X214308Y-249828D01*
X214308Y-250717D01*
X213774Y-251606D01*
X212708Y-252051D01*
X213774Y-252495D01*
X214308Y-253384D01*
X214308Y-254273D01*
X213774Y-255162D01*
X212708Y-255606D01*
X210041Y-255606D01*
G54D22*
X210041Y-252051D02*
X212708Y-252051D01*
G54D22*
X188959Y-254273D02*
X188425Y-255162D01*
X187359Y-255606D01*
X186292Y-255606D01*
X185225Y-255162D01*
X184692Y-254273D01*
X184692Y-249828D01*
X185225Y-248940D01*
X186292Y-248495D01*
X187359Y-248495D01*
X188425Y-248940D01*
X188959Y-249828D01*
G54D22*
X163601Y-255606D02*
X159868Y-255606D01*
X159868Y-248495D01*
X163601Y-248495D01*
G54D22*
X159868Y-252051D02*
X163601Y-252051D01*
G36*
X123875Y-276201D02*
X35075Y-276201D01*
X35075Y-269801D01*
X123875Y-269801D01*
X123875Y-276201D01*
G37*
G54D16*
X123875Y-276201D02*
X35075Y-276201D01*
X35075Y-269801D01*
X123875Y-269801D01*
X123875Y-276201D01*
G54D16*
X123875Y-269801D02*
X123875Y-307801D01*
X34875Y-307801D01*
X34875Y-269801D01*
X123875Y-269801D01*
G54D22*
X102091Y-319106D02*
X102091Y-311995D01*
X104758Y-311995D01*
X105824Y-312440D01*
X106358Y-313328D01*
X106358Y-314217D01*
X105824Y-315106D01*
X104758Y-315551D01*
X105824Y-315995D01*
X106358Y-316884D01*
X106358Y-317773D01*
X105824Y-318662D01*
X104758Y-319106D01*
X102091Y-319106D01*
G54D22*
X102091Y-315551D02*
X104758Y-315551D01*
G54D22*
X81009Y-317773D02*
X80475Y-318662D01*
X79409Y-319106D01*
X78342Y-319106D01*
X77275Y-318662D01*
X76742Y-317773D01*
X76742Y-313328D01*
X77275Y-312440D01*
X78342Y-311995D01*
X79409Y-311995D01*
X80475Y-312440D01*
X81009Y-313328D01*
G54D22*
X55651Y-319106D02*
X51918Y-319106D01*
X51918Y-311995D01*
X55651Y-311995D01*
G54D22*
X51918Y-315551D02*
X55651Y-315551D01*
G36*
X231825Y-277788D02*
X143025Y-277788D01*
X143025Y-271388D01*
X231825Y-271388D01*
X231825Y-277788D01*
G37*
G54D16*
X231825Y-277788D02*
X143025Y-277788D01*
X143025Y-271388D01*
X231825Y-271388D01*
X231825Y-277788D01*
G54D16*
X231825Y-271388D02*
X231825Y-309388D01*
X142825Y-309388D01*
X142825Y-271388D01*
X231825Y-271388D01*
G54D22*
X210041Y-320694D02*
X210041Y-313583D01*
X212708Y-313583D01*
X213774Y-314027D01*
X214308Y-314916D01*
X214308Y-315805D01*
X213774Y-316694D01*
X212708Y-317138D01*
X213774Y-317583D01*
X214308Y-318472D01*
X214308Y-319360D01*
X213774Y-320249D01*
X212708Y-320694D01*
X210041Y-320694D01*
G54D22*
X210041Y-317138D02*
X212708Y-317138D01*
G54D22*
X188959Y-319360D02*
X188425Y-320249D01*
X187359Y-320694D01*
X186292Y-320694D01*
X185225Y-320249D01*
X184692Y-319360D01*
X184692Y-314916D01*
X185225Y-314027D01*
X186292Y-313583D01*
X187359Y-313583D01*
X188425Y-314027D01*
X188959Y-314916D01*
G54D22*
X163601Y-320694D02*
X159868Y-320694D01*
X159868Y-313583D01*
X163601Y-313583D01*
G54D22*
X159868Y-317138D02*
X163601Y-317138D01*
G54D20*
X602699Y-203430D02*
X501099Y-203430D01*
X501099Y-355830D01*
X602699Y-355830D01*
X602699Y-203430D01*
G54D20*
G75*
G01X558199Y-241530D02*
G03X570999Y-241530I6400J0D01*
G01*
G54D20*
G75*
G01X545499Y-241530D02*
G03X558299Y-241530I6400J0D01*
G01*
G54D20*
G75*
G01X532799Y-241530D02*
G03X545599Y-241530I6400J0D01*
G01*
G54D20*
X570949Y-241530D02*
X589999Y-241530D01*
G54D20*
X532849Y-241530D02*
X513799Y-241530D01*
G54D20*
X589999Y-343130D02*
X513799Y-343130D01*
G54D20*
X558249Y-343130D02*
X558249Y-298680D01*
X545549Y-273280D01*
G54D20*
X551899Y-279630D02*
X539199Y-279630D01*
X539199Y-216130D01*
X513799Y-216130D01*
G54D20*
X564599Y-279630D02*
X564599Y-216130D01*
X589999Y-216130D01*
G54D16*
X604922Y-378388D02*
X598622Y-372089D01*
X585822Y-372089D01*
X579522Y-378389D01*
X579522Y-391189D01*
X585822Y-397488D01*
X598622Y-397488D01*
X604922Y-391188D01*
X604922Y-378388D01*
G54D16*
X579522Y-378389D02*
X573222Y-372089D01*
X560422Y-372089D01*
X554122Y-378389D01*
X554122Y-391189D01*
X560422Y-397489D01*
X573222Y-397489D01*
X579522Y-391189D01*
X579522Y-378389D01*
G54D16*
X554122Y-378389D02*
X547822Y-372089D01*
X535022Y-372089D01*
X528722Y-378389D01*
X528722Y-391189D01*
X535022Y-397489D01*
X547822Y-397489D01*
X554122Y-391189D01*
X554122Y-378389D01*
G54D16*
X528722Y-378389D02*
X522422Y-372089D01*
X509622Y-372089D01*
X503322Y-378389D01*
X503322Y-391189D01*
X509622Y-397489D01*
X522422Y-397489D01*
X528722Y-391189D01*
X528722Y-378389D01*
G54D16*
X681122Y-378388D02*
X674822Y-372089D01*
X662022Y-372089D01*
X655722Y-378389D01*
X655722Y-391189D01*
X662022Y-397488D01*
X674822Y-397488D01*
X681122Y-391188D01*
X681122Y-378388D01*
G54D16*
X655722Y-378389D02*
X649422Y-372089D01*
X636622Y-372089D01*
X630322Y-378389D01*
X630322Y-391189D01*
X636622Y-397489D01*
X649422Y-397489D01*
X655722Y-391189D01*
X655722Y-378389D01*
G54D16*
X630322Y-378389D02*
X624022Y-372089D01*
X611222Y-372089D01*
X604922Y-378389D01*
X604922Y-391189D01*
X611222Y-397489D01*
X624022Y-397489D01*
X630322Y-391189D01*
X630322Y-378389D01*
G54D15*
X502822Y-414126D02*
X502822Y-405237D01*
X506155Y-405237D01*
X507489Y-405793D01*
X508155Y-406904D01*
X508155Y-408015D01*
X507489Y-409126D01*
X506155Y-409682D01*
X502822Y-409682D01*
G54D15*
X515266Y-413570D02*
X514199Y-414126D01*
X512866Y-414126D01*
X511533Y-413570D01*
X511266Y-412459D01*
X511266Y-410570D01*
X511933Y-409459D01*
X513266Y-409126D01*
X514599Y-409459D01*
X515266Y-410237D01*
X515266Y-411348D01*
X511266Y-411348D01*
G54D15*
X518377Y-409126D02*
X519710Y-411348D01*
X521044Y-411348D01*
X522377Y-414126D01*
G54D15*
X518377Y-414126D02*
X519710Y-411348D01*
X521044Y-411348D01*
X522377Y-409126D01*
G54D15*
X520377Y-414126D02*
X520377Y-409126D01*
G54D15*
X526021Y-414126D02*
X525488Y-414126D01*
X525488Y-413682D01*
X526021Y-413682D01*
X526021Y-414126D01*
X525488Y-414126D01*
G54D15*
X535043Y-414126D02*
X535043Y-405237D01*
G54D15*
X532376Y-405237D02*
X537709Y-405237D01*
G54D15*
X543487Y-409682D02*
X545487Y-410793D01*
X546153Y-411904D01*
X546153Y-414126D01*
G54D15*
X540820Y-414126D02*
X540820Y-405237D01*
X544153Y-405237D01*
X545487Y-405793D01*
X546153Y-406904D01*
X546153Y-408015D01*
X545487Y-409126D01*
X544153Y-409682D01*
X540820Y-409682D01*
G54D15*
X549264Y-409126D02*
X554597Y-414126D01*
G54D15*
X549264Y-414126D02*
X554597Y-409126D01*
G54D15*
X560952Y-414126D02*
X562285Y-414126D01*
X563619Y-413015D01*
X567619Y-405237D01*
G54D15*
X560952Y-405237D02*
X564285Y-410793D01*
G54D15*
X570730Y-414126D02*
X570730Y-405237D01*
X574063Y-410793D01*
X577397Y-405237D01*
X577397Y-414126D01*
G54D15*
X586996Y-414126D02*
X590329Y-405237D01*
X593663Y-414126D01*
G54D15*
X588329Y-410793D02*
X592329Y-410793D01*
G54D15*
X596774Y-408570D02*
X600107Y-405237D01*
X600107Y-414126D01*
G54D15*
X609706Y-414126D02*
X613039Y-405237D01*
X616373Y-414126D01*
G54D15*
X611039Y-410793D02*
X615039Y-410793D01*
G54D15*
X624817Y-414126D02*
X619484Y-414126D01*
X619484Y-413570D01*
X620151Y-412459D01*
X624151Y-409126D01*
X624817Y-408015D01*
X624817Y-406904D01*
X624151Y-405793D01*
X622817Y-405237D01*
X621484Y-405237D01*
X620151Y-405793D01*
X619484Y-406904D01*
G54D15*
X637660Y-414126D02*
X640993Y-405237D01*
X644327Y-414126D01*
G54D15*
X638993Y-410793D02*
X642993Y-410793D01*
G54D15*
X647438Y-406904D02*
X648105Y-405793D01*
X649438Y-405237D01*
X650771Y-405237D01*
X652105Y-405793D01*
X652771Y-406904D01*
X652771Y-408015D01*
X652105Y-409126D01*
X650771Y-409682D01*
X652105Y-410237D01*
X652771Y-411348D01*
X652771Y-412459D01*
X652105Y-413570D01*
X650771Y-414126D01*
X649438Y-414126D01*
X648105Y-413570D01*
X647438Y-412459D01*
G54D15*
X670947Y-406904D02*
X670947Y-412459D01*
X670281Y-413570D01*
X668947Y-414126D01*
X667614Y-414126D01*
X666281Y-413570D01*
X665614Y-412459D01*
X665614Y-406904D01*
X666281Y-405793D01*
X667614Y-405237D01*
X668947Y-405237D01*
X670281Y-405793D01*
X670947Y-406904D01*
G54D20*
X715411Y-203430D02*
X613811Y-203430D01*
X613811Y-355830D01*
X715411Y-355830D01*
X715411Y-203430D01*
G54D20*
G75*
G01X670911Y-241530D02*
G03X683711Y-241530I6400J0D01*
G01*
G54D20*
G75*
G01X658211Y-241530D02*
G03X671011Y-241530I6400J0D01*
G01*
G54D20*
G75*
G01X645511Y-241530D02*
G03X658311Y-241530I6400J0D01*
G01*
G54D20*
X683661Y-241530D02*
X702711Y-241530D01*
G54D20*
X645561Y-241530D02*
X626511Y-241530D01*
G54D20*
X702711Y-343130D02*
X626511Y-343130D01*
G54D20*
X670961Y-343130D02*
X670961Y-298680D01*
X658261Y-273280D01*
G54D20*
X664611Y-279630D02*
X651911Y-279630D01*
X651911Y-216130D01*
X626511Y-216130D01*
G54D20*
X677311Y-279630D02*
X677311Y-216130D01*
X702711Y-216130D01*
G54D23*
X734467Y-330696D02*
X722912Y-330696D01*
X734467Y-323762D01*
X722912Y-323762D01*
G54D23*
X728690Y-317118D02*
X730134Y-314518D01*
X731578Y-313651D01*
X734467Y-313651D01*
G54D23*
X734467Y-320585D02*
X722912Y-320585D01*
X722912Y-316251D01*
X723634Y-314518D01*
X725078Y-313651D01*
X726523Y-313651D01*
X727967Y-314518D01*
X728690Y-316251D01*
X728690Y-320585D01*
G54D23*
X734467Y-310474D02*
X722912Y-310474D01*
X722912Y-306140D01*
X723634Y-304407D01*
X725078Y-303540D01*
X726523Y-303540D01*
X727967Y-304407D01*
X728690Y-306140D01*
X728690Y-310474D01*
G54D23*
X729412Y-300363D02*
X729412Y-293429D01*
G54D23*
X725078Y-283318D02*
X732301Y-283318D01*
X733745Y-284185D01*
X734467Y-285918D01*
X734467Y-287652D01*
X733745Y-289385D01*
X732301Y-290252D01*
X725078Y-290252D01*
X723634Y-289385D01*
X722912Y-287652D01*
X722912Y-285918D01*
X723634Y-284185D01*
X725078Y-283318D01*
G54D23*
X734467Y-273207D02*
X734467Y-280141D01*
X733745Y-280141D01*
X732301Y-279274D01*
X727967Y-274074D01*
X726523Y-273207D01*
X725078Y-273207D01*
X723634Y-274074D01*
X722912Y-275807D01*
X722912Y-277541D01*
X723634Y-279274D01*
X725078Y-280141D01*
G54D23*
X729412Y-270030D02*
X729412Y-263096D01*
G54D23*
X732301Y-252985D02*
X733745Y-253852D01*
X734467Y-255585D01*
X734467Y-257319D01*
X733745Y-259052D01*
X732301Y-259919D01*
X725078Y-259919D01*
X723634Y-259052D01*
X722912Y-257319D01*
X722912Y-255585D01*
X723634Y-253852D01*
X725078Y-252985D01*
G54D23*
X729412Y-249808D02*
X729412Y-242874D01*
G54D23*
X725078Y-232763D02*
X732301Y-232763D01*
X733745Y-233630D01*
X734467Y-235363D01*
X734467Y-237097D01*
X733745Y-238830D01*
X732301Y-239697D01*
X725078Y-239697D01*
X723634Y-238830D01*
X722912Y-237097D01*
X722912Y-235363D01*
X723634Y-233630D01*
X725078Y-232763D01*
G54D23*
X722912Y-222652D02*
X722912Y-229586D01*
X727967Y-229586D01*
X727967Y-228719D01*
X727245Y-226986D01*
X727245Y-225252D01*
X727967Y-223519D01*
X729412Y-222652D01*
X732301Y-222652D01*
X733745Y-223519D01*
X734467Y-225252D01*
X734467Y-226986D01*
X733745Y-228719D01*
X732301Y-229586D01*
G54D23*
X734467Y-219475D02*
X722912Y-219475D01*
X722912Y-215141D01*
X723634Y-213408D01*
X725078Y-212541D01*
X732301Y-212541D01*
X733745Y-213408D01*
X734467Y-215141D01*
X734467Y-219475D01*
G54D23*
X734467Y-209364D02*
X722912Y-209364D01*
G54D23*
X734467Y-202430D02*
X722912Y-202430D01*
G54D23*
X728690Y-209364D02*
X728690Y-202430D01*
G54D16*
X641755Y-116542D02*
X635455Y-122842D01*
X635455Y-135643D01*
X641755Y-141943D01*
X654555Y-141943D01*
X660855Y-135643D01*
X660855Y-122842D01*
X654555Y-116542D01*
X641755Y-116542D01*
G54D16*
X641755Y-141943D02*
X635455Y-148242D01*
X635455Y-161042D01*
X641755Y-167342D01*
X654555Y-167343D01*
X660855Y-161043D01*
X660855Y-148242D01*
X654555Y-141943D01*
X641755Y-141943D01*
G54D16*
X641755Y-167342D02*
X635455Y-173643D01*
X635455Y-186442D01*
X641755Y-192742D01*
X654555Y-192743D01*
X660855Y-186443D01*
X660855Y-173643D01*
X654555Y-167343D01*
X641755Y-167342D01*
G54D21*
X628065Y-187430D02*
X617398Y-187430D01*
X617398Y-181030D01*
X618731Y-181030D01*
G54D21*
X621398Y-187430D02*
X621398Y-182630D01*
X622731Y-181030D01*
X626731Y-181030D01*
X628065Y-182630D01*
X628065Y-187430D01*
G54D21*
X628065Y-177298D02*
X627398Y-176498D01*
X623398Y-176498D01*
X622065Y-174898D01*
X622065Y-172498D01*
X628065Y-172498D01*
G54D21*
X626465Y-163964D02*
X623798Y-163964D01*
X622465Y-164764D01*
X622065Y-166364D01*
X622465Y-167964D01*
X623798Y-168764D01*
X626465Y-168764D01*
X627798Y-167964D01*
X628065Y-166364D01*
X627798Y-164764D01*
X626465Y-163964D01*
G54D21*
X628065Y-160232D02*
X622065Y-160232D01*
G54D21*
X624065Y-157832D02*
X628065Y-155432D01*
G54D21*
X625398Y-160232D02*
X622065Y-155432D01*
G54D21*
X628065Y-151058D02*
X628065Y-151698D01*
X627531Y-151698D01*
X627531Y-151058D01*
X628065Y-151058D01*
X628065Y-151698D01*
G54D21*
X628065Y-140232D02*
X617398Y-140232D01*
G54D21*
X617398Y-143432D02*
X617398Y-137032D01*
G54D21*
X628065Y-133300D02*
X622065Y-133300D01*
G54D21*
X623398Y-133300D02*
X622065Y-131700D01*
X622065Y-130100D01*
G54D21*
X628065Y-119966D02*
X628065Y-126366D01*
X627398Y-126366D01*
X626065Y-125566D01*
X622065Y-120766D01*
X620731Y-119966D01*
X619398Y-119966D01*
X618065Y-120766D01*
X617398Y-122366D01*
X617398Y-123966D01*
X618065Y-125566D01*
X619398Y-126366D01*
G54D16*
X733248Y-90943D02*
X726948Y-84643D01*
X714148Y-84643D01*
X707848Y-90943D01*
X707848Y-103743D01*
X714148Y-110043D01*
X726948Y-110043D01*
X733248Y-103743D01*
X733248Y-90943D01*
G54D16*
X707848Y-90943D02*
X701548Y-84643D01*
X688748Y-84643D01*
X682448Y-90943D01*
X682448Y-103743D01*
X688748Y-110043D01*
X701548Y-110043D01*
X707848Y-103743D01*
X707848Y-90943D01*
G54D16*
X682448Y-90943D02*
X676148Y-84643D01*
X663348Y-84643D01*
X657048Y-90943D01*
X657048Y-103743D01*
X663348Y-110043D01*
X676148Y-110043D01*
X682448Y-103743D01*
X682448Y-90943D01*
G54D21*
X622672Y-94573D02*
X622672Y-93239D01*
X624272Y-91906D01*
X625872Y-91906D01*
X627472Y-93239D01*
X627472Y-94573D01*
X625872Y-95906D01*
X624272Y-95906D01*
X622672Y-94573D01*
G54D21*
X622672Y-93239D02*
X622672Y-89906D01*
X623472Y-89239D01*
X626672Y-89239D01*
X627472Y-88573D01*
G54D21*
X631205Y-95906D02*
X632005Y-95239D01*
X632005Y-91239D01*
X633605Y-89906D01*
X636005Y-89906D01*
X636005Y-95906D01*
G54D21*
X644538Y-94306D02*
X644538Y-91639D01*
X643738Y-90306D01*
X642138Y-89906D01*
X640538Y-90306D01*
X639738Y-91639D01*
X639738Y-94306D01*
X640538Y-95639D01*
X642138Y-95906D01*
X643738Y-95639D01*
X644538Y-94306D01*
G54D21*
X648271Y-95906D02*
X648271Y-89906D01*
G54D21*
X650671Y-91906D02*
X653071Y-95906D01*
G54D21*
X648271Y-93239D02*
X653071Y-89906D01*
G54D21*
X623865Y-71806D02*
X623865Y-82473D01*
X630265Y-71806D01*
X630265Y-82473D01*
G54D21*
X633998Y-82473D02*
X633998Y-76473D01*
G54D21*
X633998Y-79140D02*
X638798Y-79140D01*
G54D21*
X638798Y-82473D02*
X638798Y-76473D01*
G54D21*
X642531Y-82473D02*
X642531Y-81806D01*
X647331Y-81806D01*
X647331Y-82473D01*
G54D21*
X643331Y-81806D02*
X643331Y-77806D01*
X644931Y-76473D01*
X646531Y-76473D01*
X646531Y-81806D01*
G54D21*
X666636Y-77806D02*
X673036Y-77806D01*
G54D21*
X669836Y-75140D02*
X669836Y-80473D01*
G54D21*
X698741Y-82473D02*
X692341Y-82473D01*
X692341Y-81806D01*
X693141Y-80473D01*
X697941Y-76473D01*
X698741Y-75140D01*
X698741Y-73806D01*
X697941Y-72473D01*
X696341Y-71806D01*
X694741Y-71806D01*
X693141Y-72473D01*
X692341Y-73806D01*
G54D21*
X718046Y-75806D02*
X722046Y-71806D01*
X722046Y-82473D01*
G54D24*
X81058Y-420202D02*
X82058Y-421868D01*
X84058Y-422702D01*
X86058Y-422702D01*
X88058Y-421868D01*
X89058Y-420202D01*
X89058Y-416035D01*
X89058Y-415202D01*
X86058Y-416868D01*
X84058Y-416868D01*
X82058Y-416035D01*
X81058Y-414368D01*
X81058Y-411868D01*
X82058Y-410202D01*
X84058Y-409368D01*
X86058Y-409368D01*
X88058Y-410202D01*
X89058Y-411868D01*
X89058Y-416035D01*
G36*
X182602Y-326066D02*
X182602Y-414866D01*
X176202Y-414866D01*
X176202Y-326066D01*
X182602Y-326066D01*
G37*
G54D16*
X182602Y-326066D02*
X182602Y-414866D01*
X176202Y-414866D01*
X176202Y-326066D01*
X182602Y-326066D01*
G54D16*
X176202Y-326066D02*
X214202Y-326066D01*
X214202Y-415066D01*
X176202Y-415066D01*
X176202Y-326066D01*
G54D22*
X225508Y-347850D02*
X218396Y-347850D01*
X218396Y-345184D01*
X218841Y-344117D01*
X219730Y-343584D01*
X220619Y-343584D01*
X221508Y-344117D01*
X221952Y-345184D01*
X222396Y-344117D01*
X223285Y-343584D01*
X224174Y-343584D01*
X225063Y-344117D01*
X225508Y-345184D01*
X225508Y-347850D01*
G54D22*
X221952Y-347850D02*
X221952Y-345184D01*
G54D22*
X224174Y-368933D02*
X225063Y-369466D01*
X225508Y-370532D01*
X225508Y-371599D01*
X225063Y-372666D01*
X224174Y-373199D01*
X219730Y-373199D01*
X218841Y-372666D01*
X218396Y-371599D01*
X218396Y-370532D01*
X218841Y-369466D01*
X219730Y-368932D01*
G54D22*
X225508Y-394290D02*
X225508Y-398023D01*
X218396Y-398023D01*
X218396Y-394290D01*
G54D22*
X221952Y-398023D02*
X221952Y-394290D01*
M02*
