%FSLAX34Y34*%
%MOMM*%
%LNCOPPER_TOP*%
G71*
G01*
%ADD10C, 1.800*%
%ADD11R, 1.400X1.200*%
%ADD12R, 1.400X3.500*%
%ADD13C, 6.000*%
%ADD14C, 0.700*%
%ADD15C, 1.500*%
%ADD16C, 1.800*%
%ADD17C, 2.000*%
%ADD18R, 1.600X1.300*%
%ADD19C, 1.500*%
%ADD20C, 1.000*%
%ADD21C, 0.400*%
%ADD22C, 0.600*%
%ADD23C, 2.200*%
%ADD24C, 0.500*%
%LPD*%
X461962Y-390400D02*
G54D10*
D03*
X461962Y-365000D02*
G54D10*
D03*
X461962Y-339600D02*
G54D10*
D03*
X461962Y-314200D02*
G54D10*
D03*
X461962Y-288800D02*
G54D10*
D03*
X461962Y-263400D02*
G54D10*
D03*
X461962Y-238000D02*
G54D10*
D03*
X461962Y-212600D02*
G54D10*
D03*
X461962Y-187200D02*
G54D10*
D03*
X461962Y-161800D02*
G54D10*
D03*
X461962Y-136400D02*
G54D10*
D03*
X461962Y-111000D02*
G54D10*
D03*
X461962Y-85600D02*
G54D10*
D03*
X461962Y-60200D02*
G54D10*
D03*
X461962Y-34800D02*
G54D10*
D03*
X309562Y-390400D02*
G54D10*
D03*
X309562Y-390400D02*
G54D10*
D03*
X309562Y-365000D02*
G54D10*
D03*
X309562Y-339600D02*
G54D10*
D03*
X309562Y-314200D02*
G54D10*
D03*
X309562Y-288800D02*
G54D10*
D03*
X309562Y-263400D02*
G54D10*
D03*
X309562Y-238000D02*
G54D10*
D03*
X309562Y-212600D02*
G54D10*
D03*
X309562Y-187200D02*
G54D10*
D03*
X309562Y-161800D02*
G54D10*
D03*
X309562Y-136400D02*
G54D10*
D03*
X309562Y-111000D02*
G54D10*
D03*
X309562Y-85600D02*
G54D10*
D03*
X309562Y-60200D02*
G54D10*
D03*
X309562Y-34800D02*
G54D10*
D03*
X585584Y-131152D02*
G54D11*
D03*
X585584Y-108152D02*
G54D11*
D03*
X585584Y-85152D02*
G54D11*
D03*
X523584Y-108152D02*
G54D12*
D03*
X715962Y-41150D02*
G54D13*
D03*
X715962Y-390400D02*
G54D13*
D03*
X39688Y-39562D02*
G54D13*
D03*
X585807Y-130062D02*
G54D14*
D03*
G54D15*
X646112Y-41150D02*
X635000Y-9400D01*
X257175Y-9400D01*
X184150Y-61912D01*
X79375Y-74612D01*
X79375Y-291975D01*
X620759Y-41282D02*
G54D16*
D03*
X646159Y-41282D02*
G54D16*
D03*
X585807Y-85574D02*
G54D14*
D03*
X162273Y-39693D02*
G54D17*
D03*
X136873Y-39693D02*
G54D17*
D03*
X111473Y-39693D02*
G54D17*
D03*
X522288Y-44450D02*
G54D18*
D03*
X522288Y-63450D02*
G54D18*
D03*
X522914Y-43776D02*
G54D14*
D03*
X555625Y-38100D02*
G54D19*
D03*
X581025Y-38100D02*
G54D19*
D03*
G54D20*
X461962Y-34800D02*
X495300Y-52262D01*
X506412Y-64962D01*
X542925Y-64962D01*
X555625Y-39562D01*
X700543Y-180043D02*
G54D17*
D03*
X700542Y-154643D02*
G54D17*
D03*
X700542Y-129243D02*
G54D17*
D03*
X255944Y-387691D02*
G54D17*
D03*
X255944Y-362291D02*
G54D17*
D03*
X596984Y-170476D02*
G54D17*
D03*
X571584Y-170476D02*
G54D17*
D03*
X546184Y-170476D02*
G54D17*
D03*
X520784Y-170476D02*
G54D17*
D03*
G54D20*
X525463Y-107825D02*
X585788Y-107825D01*
G54D20*
X523875Y-104650D02*
X523875Y-66550D01*
X104775Y-96838D02*
G54D16*
D03*
X79375Y-96838D02*
G54D16*
D03*
X53975Y-96838D02*
G54D16*
D03*
X136525Y-361950D02*
G54D17*
D03*
X136525Y-387350D02*
G54D17*
D03*
X111125Y-361950D02*
G54D17*
D03*
X111125Y-387350D02*
G54D17*
D03*
X85725Y-361950D02*
G54D17*
D03*
X85725Y-387350D02*
G54D17*
D03*
X60325Y-361950D02*
G54D17*
D03*
X60325Y-387350D02*
G54D17*
D03*
X34925Y-361950D02*
G54D17*
D03*
X34925Y-387350D02*
G54D17*
D03*
X212725Y-98426D02*
G54D16*
D03*
X187325Y-98426D02*
G54D16*
D03*
X161925Y-98426D02*
G54D16*
D03*
X104775Y-161926D02*
G54D16*
D03*
X79375Y-161926D02*
G54D16*
D03*
X53975Y-161926D02*
G54D16*
D03*
X212725Y-163513D02*
G54D16*
D03*
X187325Y-163513D02*
G54D16*
D03*
X161925Y-163513D02*
G54D16*
D03*
X104775Y-228601D02*
G54D16*
D03*
X79375Y-228601D02*
G54D16*
D03*
X53975Y-228601D02*
G54D16*
D03*
X212725Y-228601D02*
G54D16*
D03*
X187325Y-228601D02*
G54D16*
D03*
X161925Y-228601D02*
G54D16*
D03*
X104775Y-292101D02*
G54D16*
D03*
X79375Y-292101D02*
G54D16*
D03*
X53975Y-292101D02*
G54D16*
D03*
X212725Y-293688D02*
G54D16*
D03*
X187325Y-293688D02*
G54D16*
D03*
X161925Y-293688D02*
G54D16*
D03*
G54D15*
X187325Y-61912D02*
X187325Y-293688D01*
X177800Y-311150D01*
X177800Y-355600D01*
X198438Y-371350D01*
G54D21*
X250825Y-361950D02*
X306388Y-361950D01*
X309562Y-365125D01*
G54D22*
X60325Y-387350D02*
X46038Y-406400D01*
X25400Y-406400D01*
X15875Y-396875D01*
X15875Y-133350D01*
X52388Y-96838D01*
G54D22*
X53975Y-161925D02*
X39688Y-161925D01*
X26988Y-174625D01*
X26988Y-352425D01*
X34925Y-361950D01*
G54D22*
X53975Y-228600D02*
X44450Y-228600D01*
X36512Y-236538D01*
X36512Y-346075D01*
X50800Y-346075D01*
X60325Y-361950D01*
G54D22*
X53975Y-290512D02*
X53975Y-331788D01*
X85725Y-349250D01*
X85725Y-361950D01*
G54D22*
X161925Y-98425D02*
X149225Y-98425D01*
X123825Y-123825D01*
X123825Y-315912D01*
X111125Y-346075D01*
X111125Y-361950D01*
G54D22*
X161925Y-163512D02*
X149225Y-163512D01*
X134938Y-177800D01*
X134938Y-346075D01*
X136525Y-361950D01*
G54D22*
X161925Y-230188D02*
X161925Y-231775D01*
X146050Y-247650D01*
X146050Y-346075D01*
X152400Y-352425D01*
X152400Y-369888D01*
X136525Y-387350D01*
G54D22*
X111125Y-387350D02*
X123825Y-404812D01*
X155575Y-404812D01*
X161925Y-396875D01*
X161925Y-293688D01*
X161945Y-396724D02*
G54D14*
D03*
X125432Y-123674D02*
G54D14*
D03*
X134957Y-191937D02*
G54D14*
D03*
X146070Y-257024D02*
G54D14*
D03*
G54D21*
X309562Y-161925D02*
X303212Y-161925D01*
X290512Y-152400D01*
X290512Y-95250D01*
X257175Y-61912D01*
X233362Y-61912D01*
X233382Y-61762D02*
G54D14*
D03*
G54D21*
X522288Y-120650D02*
X522288Y-152400D01*
X546100Y-171450D01*
G54D21*
X573088Y-171450D02*
X573088Y-180975D01*
X560388Y-193675D01*
X481012Y-193675D01*
X461962Y-212725D01*
X589999Y-216130D02*
G54D23*
D03*
X589999Y-241530D02*
G54D23*
D03*
X589999Y-343130D02*
G54D23*
D03*
X513799Y-216130D02*
G54D23*
D03*
X513799Y-241530D02*
G54D23*
D03*
X513799Y-343130D02*
G54D23*
D03*
X592222Y-384789D02*
G54D17*
D03*
X566822Y-384789D02*
G54D17*
D03*
X541422Y-384789D02*
G54D17*
D03*
X516022Y-384788D02*
G54D17*
D03*
X668422Y-384789D02*
G54D17*
D03*
X643022Y-384789D02*
G54D17*
D03*
X617622Y-384789D02*
G54D17*
D03*
G54D21*
X461962Y-263525D02*
X398462Y-263525D01*
X395288Y-260350D01*
X395307Y-260199D02*
G54D14*
D03*
G54D21*
X395288Y-363538D02*
X412750Y-363538D01*
X452438Y-403225D01*
X498475Y-403225D01*
X515938Y-385762D01*
G54D21*
X461962Y-263525D02*
X469900Y-263525D01*
X479425Y-273050D01*
X479425Y-347662D01*
X501650Y-369888D01*
X549275Y-369888D01*
X566738Y-384175D01*
G54D21*
X461962Y-238125D02*
X461962Y-242888D01*
X485775Y-266700D01*
X485775Y-342900D01*
X504825Y-361950D01*
X620712Y-361950D01*
X642938Y-384175D01*
X702711Y-216130D02*
G54D23*
D03*
X702711Y-241530D02*
G54D23*
D03*
X702711Y-343130D02*
G54D23*
D03*
X626511Y-216130D02*
G54D23*
D03*
X626511Y-241530D02*
G54D23*
D03*
X626511Y-343130D02*
G54D23*
D03*
X648155Y-129243D02*
G54D17*
D03*
X648155Y-154642D02*
G54D17*
D03*
X648155Y-180042D02*
G54D17*
D03*
X585807Y-107837D02*
G54D14*
D03*
G54D21*
X703262Y-342900D02*
X703262Y-303212D01*
X674688Y-274638D01*
X674688Y-171450D01*
X700088Y-155575D01*
G54D21*
X703262Y-215900D02*
X703262Y-193675D01*
X700088Y-179388D01*
G54D21*
X627062Y-215900D02*
X650875Y-215900D01*
X668338Y-198438D01*
X668338Y-152400D01*
X701675Y-128588D01*
G54D21*
X590550Y-215900D02*
X600075Y-215900D01*
X630238Y-185738D01*
X642938Y-185738D01*
X649288Y-179388D01*
G54D21*
X590550Y-344488D02*
X590550Y-266700D01*
X574675Y-250825D01*
X574675Y-209550D01*
X584200Y-200025D01*
X606425Y-200025D01*
X627062Y-179388D01*
X627062Y-176212D01*
X647700Y-155575D01*
G54D21*
X514350Y-215900D02*
X557212Y-215900D01*
X579438Y-193675D01*
X603250Y-193675D01*
X603250Y-190500D01*
X631825Y-161925D01*
X631825Y-144462D01*
X647700Y-128588D01*
G54D21*
X601662Y-282575D02*
X617538Y-298450D01*
X650875Y-298450D01*
X668338Y-315912D01*
X668338Y-384175D01*
X669925Y-385762D01*
X650895Y-298300D02*
G54D24*
D03*
X601682Y-282425D02*
G54D24*
D03*
X720548Y-97343D02*
G54D17*
D03*
X695148Y-97343D02*
G54D17*
D03*
X669748Y-97343D02*
G54D17*
D03*
G54D21*
X590550Y-242888D02*
X595312Y-242888D01*
X617538Y-265112D01*
X649288Y-265112D01*
X649288Y-241300D01*
X658812Y-231775D01*
X658832Y-231625D02*
G54D24*
D03*
X198502Y-345166D02*
G54D16*
D03*
X198502Y-370566D02*
G54D16*
D03*
X198502Y-395966D02*
G54D16*
D03*
X395307Y-363387D02*
G54D14*
D03*
G54D22*
X85725Y-387350D02*
X106362Y-415925D01*
X180975Y-415925D01*
X198438Y-395288D01*
X392132Y-393549D02*
G54D14*
D03*
G54D21*
X198438Y-346075D02*
X234950Y-377825D01*
X234950Y-406400D01*
X384175Y-406400D01*
X392112Y-393700D01*
M02*
