%FSLAX34Y34*%
%MOMM*%
%LNSOLDERMASK_TOP*%
G71*
G01*
%ADD10C, 2.000*%
%ADD11R, 2.000X1.800*%
%ADD12R, 2.000X4.100*%
%ADD13C, 6.200*%
%ADD14C, 2.000*%
%ADD15C, 2.200*%
%ADD16R, 2.200X1.900*%
%ADD17C, 1.700*%
%ADD18C, 2.400*%
%LPD*%
X461962Y-390400D02*
G54D10*
D03*
X461962Y-365000D02*
G54D10*
D03*
X461962Y-339600D02*
G54D10*
D03*
X461962Y-314200D02*
G54D10*
D03*
X461962Y-288800D02*
G54D10*
D03*
X461962Y-263400D02*
G54D10*
D03*
X461962Y-238000D02*
G54D10*
D03*
X461962Y-212600D02*
G54D10*
D03*
X461962Y-187200D02*
G54D10*
D03*
X461962Y-161800D02*
G54D10*
D03*
X461962Y-136400D02*
G54D10*
D03*
X461962Y-111000D02*
G54D10*
D03*
X461962Y-85600D02*
G54D10*
D03*
X461962Y-60200D02*
G54D10*
D03*
X461962Y-34800D02*
G54D10*
D03*
X309562Y-390400D02*
G54D10*
D03*
X309562Y-390400D02*
G54D10*
D03*
X309562Y-365000D02*
G54D10*
D03*
X309562Y-339600D02*
G54D10*
D03*
X309562Y-314200D02*
G54D10*
D03*
X309562Y-288800D02*
G54D10*
D03*
X309562Y-263400D02*
G54D10*
D03*
X309562Y-238000D02*
G54D10*
D03*
X309562Y-212600D02*
G54D10*
D03*
X309562Y-187200D02*
G54D10*
D03*
X309562Y-161800D02*
G54D10*
D03*
X309562Y-136400D02*
G54D10*
D03*
X309562Y-111000D02*
G54D10*
D03*
X309562Y-85600D02*
G54D10*
D03*
X309562Y-60200D02*
G54D10*
D03*
X309562Y-34800D02*
G54D10*
D03*
X585584Y-131152D02*
G54D11*
D03*
X585584Y-108152D02*
G54D11*
D03*
X585584Y-85152D02*
G54D11*
D03*
X523584Y-108152D02*
G54D12*
D03*
X715962Y-41150D02*
G54D13*
D03*
X715962Y-390400D02*
G54D13*
D03*
X39688Y-39562D02*
G54D13*
D03*
X620759Y-41282D02*
G54D14*
D03*
X646159Y-41282D02*
G54D14*
D03*
X162273Y-39693D02*
G54D15*
D03*
X136873Y-39693D02*
G54D15*
D03*
X111473Y-39693D02*
G54D15*
D03*
X522288Y-44450D02*
G54D16*
D03*
X522288Y-63450D02*
G54D16*
D03*
X555625Y-38100D02*
G54D17*
D03*
X581025Y-38100D02*
G54D17*
D03*
X700543Y-180043D02*
G54D15*
D03*
X700542Y-154643D02*
G54D15*
D03*
X700542Y-129243D02*
G54D15*
D03*
X255944Y-387691D02*
G54D15*
D03*
X255944Y-362291D02*
G54D15*
D03*
X596984Y-170476D02*
G54D15*
D03*
X571584Y-170476D02*
G54D15*
D03*
X546184Y-170476D02*
G54D15*
D03*
X520784Y-170476D02*
G54D15*
D03*
X104775Y-96838D02*
G54D14*
D03*
X79375Y-96838D02*
G54D14*
D03*
X53975Y-96838D02*
G54D14*
D03*
X136525Y-361950D02*
G54D15*
D03*
X136525Y-387350D02*
G54D15*
D03*
X111125Y-361950D02*
G54D15*
D03*
X111125Y-387350D02*
G54D15*
D03*
X85725Y-361950D02*
G54D15*
D03*
X85725Y-387350D02*
G54D15*
D03*
X60325Y-361950D02*
G54D15*
D03*
X60325Y-387350D02*
G54D15*
D03*
X34925Y-361950D02*
G54D15*
D03*
X34925Y-387350D02*
G54D15*
D03*
X212725Y-98426D02*
G54D14*
D03*
X187325Y-98426D02*
G54D14*
D03*
X161925Y-98426D02*
G54D14*
D03*
X104775Y-161926D02*
G54D14*
D03*
X79375Y-161926D02*
G54D14*
D03*
X53975Y-161926D02*
G54D14*
D03*
X212725Y-163513D02*
G54D14*
D03*
X187325Y-163513D02*
G54D14*
D03*
X161925Y-163513D02*
G54D14*
D03*
X104775Y-228601D02*
G54D14*
D03*
X79375Y-228601D02*
G54D14*
D03*
X53975Y-228601D02*
G54D14*
D03*
X212725Y-228601D02*
G54D14*
D03*
X187325Y-228601D02*
G54D14*
D03*
X161925Y-228601D02*
G54D14*
D03*
X104775Y-292101D02*
G54D14*
D03*
X79375Y-292101D02*
G54D14*
D03*
X53975Y-292101D02*
G54D14*
D03*
X212725Y-293688D02*
G54D14*
D03*
X187325Y-293688D02*
G54D14*
D03*
X161925Y-293688D02*
G54D14*
D03*
X589999Y-216130D02*
G54D18*
D03*
X589999Y-241530D02*
G54D18*
D03*
X589999Y-343130D02*
G54D18*
D03*
X513799Y-216130D02*
G54D18*
D03*
X513799Y-241530D02*
G54D18*
D03*
X513799Y-343130D02*
G54D18*
D03*
X592222Y-384789D02*
G54D15*
D03*
X566822Y-384789D02*
G54D15*
D03*
X541422Y-384789D02*
G54D15*
D03*
X516022Y-384788D02*
G54D15*
D03*
X668422Y-384789D02*
G54D15*
D03*
X643022Y-384789D02*
G54D15*
D03*
X617622Y-384789D02*
G54D15*
D03*
X702711Y-216130D02*
G54D18*
D03*
X702711Y-241530D02*
G54D18*
D03*
X702711Y-343130D02*
G54D18*
D03*
X626511Y-216130D02*
G54D18*
D03*
X626511Y-241530D02*
G54D18*
D03*
X626511Y-343130D02*
G54D18*
D03*
X648155Y-129243D02*
G54D15*
D03*
X648155Y-154642D02*
G54D15*
D03*
X648155Y-180042D02*
G54D15*
D03*
X720548Y-97343D02*
G54D15*
D03*
X695148Y-97343D02*
G54D15*
D03*
X669748Y-97343D02*
G54D15*
D03*
X198502Y-345166D02*
G54D14*
D03*
X198502Y-370566D02*
G54D14*
D03*
X198502Y-395966D02*
G54D14*
D03*
M02*
